jost-Thin.ufo
<glyph name="exclam" format="2">
  <advance width="524"/>
  <unicode hex="0021"/>
  <outline>
    <contour>
      <point x="256" y="400" type="line"/>
      <point x="268" y="400" type="line"/>
      <point x="276" y="1400" type="line"/>
      <point x="248" y="1400" type="line"/>
    </contour>
    <contour>
      <point x="262" y="-20" type="curve" smooth="yes"/>
      <point x="274" y="-20"/>
      <point x="284" y="-12"/>
      <point x="284" y="2" type="curve" smooth="yes"/>
      <point x="284" y="16"/>
      <point x="274" y="24"/>
      <point x="262" y="24" type="curve" smooth="yes"/>
      <point x="250" y="24"/>
      <point x="240" y="16"/>
      <point x="240" y="2" type="curve" smooth="yes"/>
      <point x="240" y="-12"/>
      <point x="250" y="-20"/>
    </contour>
  </outline>
</glyph>
<glyph name="quotedbl" format="2">
  <advance width="806"/>
  <unicode hex="0022"/>
  <outline>
    <contour>
      <point x="540" y="840" type="line"/>
      <point x="554" y="840" type="line"/>
      <point x="666" y="1400" type="line"/>
      <point x="640" y="1400" type="line"/>
    </contour>
    <contour>
      <point x="180" y="840" type="line"/>
      <point x="194" y="840" type="line"/>
      <point x="306" y="1400" type="line"/>
      <point x="280" y="1400" type="line"/>
    </contour>
  </outline>
</glyph>
<glyph name="numbersign" format="2">
  <advance width="1142"/>
  <unicode hex="0023"/>
  <outline>
    <contour>
      <point x="180" y="0" type="line"/>
      <point x="202" y="0" type="line"/>
      <point x="319" y="480" type="line"/>
      <point x="716" y="480" type="line"/>
      <point x="600" y="0" type="line"/>
      <point x="622" y="0" type="line"/>
      <point x="739" y="480" type="line"/>
      <point x="992" y="480" type="line"/>
      <point x="992" y="502" type="line"/>
      <point x="744" y="502" type="line"/>
      <point x="843" y="908" type="line"/>
      <point x="1072" y="908" type="line"/>
      <point x="1072" y="930" type="line"/>
      <point x="848" y="930" type="line"/>
      <point x="962" y="1400" type="line"/>
      <point x="940" y="1400" type="line"/>
      <point x="825" y="930" type="line"/>
      <point x="427" y="930" type="line"/>
      <point x="542" y="1400" type="line"/>
      <point x="520" y="1400" type="line"/>
      <point x="406" y="930" type="line"/>
      <point x="150" y="930" type="line"/>
      <point x="150" y="908" type="line"/>
      <point x="401" y="908" type="line"/>
      <point x="302" y="502" type="line"/>
      <point x="70" y="502" type="line"/>
      <point x="70" y="480" type="line"/>
      <point x="297" y="480" type="line"/>
    </contour>
    <contour>
      <point x="323" y="502" type="line"/>
      <point x="422" y="908" type="line"/>
      <point x="820" y="908" type="line"/>
      <point x="722" y="502" type="line"/>
    </contour>
  </outline>
</glyph>
<glyph name="dollar" format="2">
  <advance width="1160"/>
  <unicode hex="0024"/>
  <outline>
    <contour>
      <point x="500" y="-224" type="line"/>
      <point x="520" y="-224" type="line"/>
      <point x="520" y="-16" type="line"/>
      <point x="748" y="-13"/>
      <point x="886" y="117"/>
      <point x="886" y="330" type="curve" smooth="yes"/>
      <point x="886" y="522"/>
      <point x="776" y="653"/>
      <point x="546" y="736" type="curve" smooth="yes"/>
      <point x="301" y="825"/>
      <point x="182" y="948"/>
      <point x="182" y="1110" type="curve" smooth="yes"/>
      <point x="182" y="1270"/>
      <point x="323" y="1394"/>
      <point x="506" y="1394" type="curve" smooth="yes"/>
      <point x="672" y="1394"/>
      <point x="806" y="1281"/>
      <point x="858" y="1096" type="curve"/>
      <point x="878" y="1100" type="line"/>
      <point x="831" y="1289"/>
      <point x="690" y="1412"/>
      <point x="516" y="1416" type="curve"/>
      <point x="516" y="1636" type="line"/>
      <point x="496" y="1636" type="line"/>
      <point x="496" y="1416" type="line"/>
      <point x="304" y="1412"/>
      <point x="160" y="1281"/>
      <point x="160" y="1110" type="curve" smooth="yes"/>
      <point x="160" y="941"/>
      <point x="288" y="807"/>
      <point x="534" y="718" type="curve" smooth="yes"/>
      <point x="756" y="636"/>
      <point x="864" y="509"/>
      <point x="864" y="330" type="curve" smooth="yes"/>
      <point x="864" y="124"/>
      <point x="735" y="6"/>
      <point x="510" y="6" type="curve" smooth="yes"/>
      <point x="318" y="6"/>
      <point x="175" y="141"/>
      <point x="100" y="394" type="curve"/>
      <point x="80" y="386" type="line"/>
      <point x="156" y="132"/>
      <point x="305" y="-11"/>
      <point x="500" y="-16" type="curve"/>
    </contour>
  </outline>
</glyph>
<glyph name="percent" format="2">
  <advance width="1402"/>
  <unicode hex="0025"/>
  <outline>
    <contour>
      <point x="366" y="820" type="curve" smooth="yes"/>
      <point x="546" y="820"/>
      <point x="662" y="952"/>
      <point x="662" y="1120" type="curve" smooth="yes"/>
      <point x="662" y="1288"/>
      <point x="546" y="1420"/>
      <point x="366" y="1420" type="curve" smooth="yes"/>
      <point x="186" y="1420"/>
      <point x="70" y="1288"/>
      <point x="70" y="1120" type="curve" smooth="yes"/>
      <point x="70" y="952"/>
      <point x="186" y="820"/>
    </contour>
    <contour>
      <point x="366" y="838" type="curve" smooth="yes"/>
      <point x="196" y="838"/>
      <point x="90" y="968"/>
      <point x="90" y="1120" type="curve" smooth="yes"/>
      <point x="90" y="1272"/>
      <point x="196" y="1400"/>
      <point x="366" y="1400" type="curve" smooth="yes"/>
      <point x="536" y="1400"/>
      <point x="642" y="1272"/>
      <point x="642" y="1120" type="curve" smooth="yes"/>
      <point x="642" y="968"/>
      <point x="536" y="838"/>
    </contour>
    <contour>
      <point x="1036" y="-20" type="curve" smooth="yes"/>
      <point x="1216" y="-20"/>
      <point x="1332" y="112"/>
      <point x="1332" y="280" type="curve" smooth="yes"/>
      <point x="1332" y="448"/>
      <point x="1216" y="580"/>
      <point x="1036" y="580" type="curve" smooth="yes"/>
      <point x="856" y="580"/>
      <point x="740" y="448"/>
      <point x="740" y="280" type="curve" smooth="yes"/>
      <point x="740" y="112"/>
      <point x="856" y="-20"/>
    </contour>
    <contour>
      <point x="1036" y="-2" type="curve" smooth="yes"/>
      <point x="866" y="-2"/>
      <point x="760" y="128"/>
      <point x="760" y="280" type="curve" smooth="yes"/>
      <point x="760" y="432"/>
      <point x="866" y="560"/>
      <point x="1036" y="560" type="curve" smooth="yes"/>
      <point x="1206" y="560"/>
      <point x="1312" y="432"/>
      <point x="1312" y="280" type="curve" smooth="yes"/>
      <point x="1312" y="128"/>
      <point x="1206" y="-2"/>
    </contour>
    <contour>
      <point x="232" y="0" type="line"/>
      <point x="256" y="0" type="line"/>
      <point x="1170" y="1400" type="line"/>
      <point x="1146" y="1400" type="line"/>
    </contour>
  </outline>
</glyph>
<glyph name="ampersand" format="2">
  <advance width="1350"/>
  <unicode hex="0026"/>
  <outline>
    <contour>
      <point x="490" y="-20" type="curve" smooth="yes"/>
      <point x="726" y="-20"/>
      <point x="793" y="39"/>
      <point x="1222" y="622" type="curve"/>
      <point x="1206" y="632" type="line"/>
      <point x="802" y="73"/>
      <point x="719" y="0"/>
      <point x="490" y="0" type="curve" smooth="yes"/>
      <point x="253" y="0"/>
      <point x="100" y="135"/>
      <point x="100" y="346" type="curve" smooth="yes"/>
      <point x="100" y="519"/>
      <point x="149" y="572"/>
      <point x="522" y="800" type="curve" smooth="yes"/>
      <point x="729" y="927"/>
      <point x="812" y="1026"/>
      <point x="812" y="1148" type="curve" smooth="yes"/>
      <point x="812" y="1306"/>
      <point x="695" y="1422"/>
      <point x="536" y="1422" type="curve" smooth="yes"/>
      <point x="353" y="1422"/>
      <point x="234" y="1315"/>
      <point x="234" y="1152" type="curve" smooth="yes"/>
      <point x="234" y="1044"/>
      <point x="268" y="967"/>
      <point x="366" y="854" type="curve" smooth="yes"/>
      <point x="1116" y="0" type="line"/>
      <point x="1142" y="0" type="line"/>
      <point x="380" y="870" type="line" smooth="yes"/>
      <point x="287" y="976"/>
      <point x="254" y="1049"/>
      <point x="254" y="1152" type="curve" smooth="yes"/>
      <point x="254" y="1302"/>
      <point x="367" y="1402"/>
      <point x="536" y="1402" type="curve" smooth="yes"/>
      <point x="682" y="1402"/>
      <point x="792" y="1293"/>
      <point x="792" y="1148" type="curve" smooth="yes"/>
      <point x="792" y="1035"/>
      <point x="702" y="930"/>
      <point x="508" y="814" type="curve" smooth="yes"/>
      <point x="145" y="597"/>
      <point x="80" y="526"/>
      <point x="80" y="346" type="curve" smooth="yes"/>
      <point x="80" y="124"/>
      <point x="242" y="-20"/>
    </contour>
  </outline>
</glyph>
<glyph name="quotesingle" format="2">
  <advance width="446"/>
  <unicode hex="0027"/>
  <outline>
    <contour>
      <point x="180" y="840" type="line"/>
      <point x="194" y="840" type="line"/>
      <point x="306" y="1400" type="line"/>
      <point x="280" y="1400" type="line"/>
    </contour>
  </outline>
</glyph>
<glyph name="parenleft" format="2">
  <advance width="480"/>
  <unicode hex="0028"/>
  <outline>
    <contour>
      <point x="410" y="-400" type="curve"/>
      <point x="420" y="-400" type="line"/>
      <point x="272" y="-84"/>
      <point x="200" y="236"/>
      <point x="200" y="580" type="curve" smooth="yes"/>
      <point x="200" y="924"/>
      <point x="272" y="1244"/>
      <point x="420" y="1560" type="curve"/>
      <point x="410" y="1560" type="line"/>
      <point x="259" y="1276"/>
      <point x="180" y="941"/>
      <point x="180" y="580" type="curve" smooth="yes"/>
      <point x="180" y="219"/>
      <point x="259" y="-116"/>
    </contour>
  </outline>
</glyph>
<glyph name="parenright" format="2">
  <advance width="480"/>
  <unicode hex="0029"/>
  <outline>
    <contour>
      <point x="60" y="-400" type="curve"/>
      <point x="70" y="-400" type="line"/>
      <point x="221" y="-116"/>
      <point x="300" y="219"/>
      <point x="300" y="580" type="curve" smooth="yes"/>
      <point x="300" y="941"/>
      <point x="221" y="1276"/>
      <point x="70" y="1560" type="curve"/>
      <point x="60" y="1560" type="line"/>
      <point x="208" y="1244"/>
      <point x="280" y="924"/>
      <point x="280" y="580" type="curve" smooth="yes"/>
      <point x="280" y="236"/>
      <point x="208" y="-84"/>
    </contour>
  </outline>
</glyph>
<glyph name="asterisk" format="2">
  <advance width="1184"/>
  <unicode hex="002A"/>
  <outline>
    <contour>
      <point x="788" y="759" type="line"/>
      <point x="808" y="774" type="line"/>
      <point x="602" y="1046" type="line"/>
      <point x="928" y="1146" type="line"/>
      <point x="922" y="1170" type="line"/>
      <point x="598" y="1059" type="line"/>
      <point x="604" y="1400" type="line"/>
      <point x="580" y="1400" type="line"/>
      <point x="586" y="1059" type="line"/>
      <point x="262" y="1170" type="line"/>
      <point x="256" y="1146" type="line"/>
      <point x="582" y="1046" type="line"/>
      <point x="376" y="774" type="line"/>
      <point x="396" y="760" type="line"/>
      <point x="592" y="1038" type="line"/>
    </contour>
  </outline>
</glyph>
<glyph name="plus" format="2">
  <advance width="1100"/>
  <unicode hex="002B"/>
  <outline>
    <contour>
      <point x="530" y="60" type="line"/>
      <point x="550" y="60" type="line"/>
      <point x="550" y="500" type="line"/>
      <point x="950" y="500" type="line"/>
      <point x="950" y="520" type="line"/>
      <point x="550" y="520" type="line"/>
      <point x="550" y="960" type="line"/>
      <point x="530" y="960" type="line"/>
      <point x="530" y="520" type="line"/>
      <point x="130" y="520" type="line"/>
      <point x="130" y="500" type="line"/>
      <point x="530" y="500" type="line"/>
    </contour>
  </outline>
</glyph>
<glyph name="comma" format="2">
  <advance width="552"/>
  <unicode hex="002C"/>
  <outline>
    <contour>
      <point x="152" y="-322" type="line"/>
      <point x="372" y="178" type="line"/>
      <point x="350" y="188" type="line"/>
      <point x="140" y="-318" type="line"/>
    </contour>
  </outline>
</glyph>
<glyph name="hyphen" format="2">
  <advance width="420"/>
  <unicode hex="002D"/>
  <outline>
    <contour>
      <point x="10" y="530" type="line"/>
      <point x="410" y="530" type="line"/>
      <point x="410" y="550" type="line"/>
      <point x="10" y="550" type="line"/>
    </contour>
  </outline>
</glyph>
<glyph name="period" format="2">
  <advance width="520"/>
  <unicode hex="002E"/>
  <outline>
    <contour>
      <point x="260" y="-20" type="curve" smooth="yes"/>
      <point x="272" y="-20"/>
      <point x="282" y="-12"/>
      <point x="282" y="2" type="curve" smooth="yes"/>
      <point x="282" y="16"/>
      <point x="272" y="24"/>
      <point x="260" y="24" type="curve" smooth="yes"/>
      <point x="248" y="24"/>
      <point x="238" y="16"/>
      <point x="238" y="2" type="curve" smooth="yes"/>
      <point x="238" y="-12"/>
      <point x="248" y="-20"/>
    </contour>
  </outline>
</glyph>
<glyph name="slash" format="2">
  <advance width="950"/>
  <unicode hex="002F"/>
  <outline>
    <contour>
      <point x="30" y="-300" type="line"/>
      <point x="54" y="-300" type="line"/>
      <point x="920" y="1400" type="line"/>
      <point x="896" y="1400" type="line"/>
    </contour>
  </outline>
</glyph>
<glyph name="zero" format="2">
  <advance width="1100"/>
  <unicode hex="0030"/>
  <outline>
    <contour>
      <point x="550" y="-20" type="curve" smooth="yes"/>
      <point x="811" y="-20"/>
      <point x="990" y="273"/>
      <point x="990" y="700" type="curve" smooth="yes"/>
      <point x="990" y="1127"/>
      <point x="811" y="1420"/>
      <point x="550" y="1420" type="curve" smooth="yes"/>
      <point x="289" y="1420"/>
      <point x="110" y="1127"/>
      <point x="110" y="700" type="curve" smooth="yes"/>
      <point x="110" y="273"/>
      <point x="289" y="-20"/>
    </contour>
    <contour>
      <point x="550" y="0" type="curve" smooth="yes"/>
      <point x="306" y="0"/>
      <point x="132" y="292"/>
      <point x="132" y="700" type="curve" smooth="yes"/>
      <point x="132" y="1108"/>
      <point x="306" y="1400"/>
      <point x="550" y="1400" type="curve" smooth="yes"/>
      <point x="794" y="1400"/>
      <point x="968" y="1108"/>
      <point x="968" y="700" type="curve" smooth="yes"/>
      <point x="968" y="292"/>
      <point x="794" y="0"/>
    </contour>
  </outline>
</glyph>
<glyph name="two" format="2">
  <advance width="1028"/>
  <unicode hex="0032"/>
  <outline>
    <contour>
      <point x="50" y="0" type="line"/>
      <point x="958" y="0" type="line"/>
      <point x="958" y="20" type="line"/>
      <point x="100" y="20" type="line"/>
      <point x="708" y="656" type="line" smooth="yes"/>
      <point x="847" y="801"/>
      <point x="902" y="910"/>
      <point x="902" y="1038" type="curve" smooth="yes"/>
      <point x="902" y="1260"/>
      <point x="742" y="1422"/>
      <point x="524" y="1422" type="curve" smooth="yes"/>
      <point x="278" y="1422"/>
      <point x="110" y="1218"/>
      <point x="110" y="920" type="curve"/>
      <point x="130" y="920" type="line"/>
      <point x="130" y="1207"/>
      <point x="289" y="1402"/>
      <point x="524" y="1402" type="curve" smooth="yes"/>
      <point x="734" y="1402"/>
      <point x="880" y="1252"/>
      <point x="880" y="1038" type="curve" smooth="yes"/>
      <point x="880" y="911"/>
      <point x="829" y="812"/>
      <point x="690" y="668" type="curve" smooth="yes"/>
    </contour>
  </outline>
</glyph>
<glyph name="three" format="2">
  <advance width="1102"/>
  <unicode hex="0033"/>
  <outline>
    <contour>
      <point x="556" y="-20" type="curve" smooth="yes"/>
      <point x="799" y="-20"/>
      <point x="972" y="134"/>
      <point x="972" y="350" type="curve" smooth="yes"/>
      <point x="972" y="549"/>
      <point x="820" y="694"/>
      <point x="568" y="730" type="curve"/>
      <point x="792" y="765"/>
      <point x="932" y="906"/>
      <point x="932" y="1088" type="curve" smooth="yes"/>
      <point x="932" y="1281"/>
      <point x="777" y="1420"/>
      <point x="564" y="1420" type="curve" smooth="yes"/>
      <point x="342" y="1420"/>
      <point x="190" y="1270"/>
      <point x="190" y="1052" type="curve"/>
      <point x="210" y="1052" type="line"/>
      <point x="210" y="1257"/>
      <point x="355" y="1400"/>
      <point x="564" y="1400" type="curve" smooth="yes"/>
      <point x="761" y="1400"/>
      <point x="912" y="1264"/>
      <point x="912" y="1086" type="curve" smooth="yes"/>
      <point x="912" y="892"/>
      <point x="729" y="740"/>
      <point x="496" y="740" type="curve"/>
      <point x="496" y="720" type="line"/>
      <point x="754" y="720"/>
      <point x="952" y="560"/>
      <point x="952" y="350" type="curve" smooth="yes"/>
      <point x="952" y="147"/>
      <point x="785" y="0"/>
      <point x="556" y="0" type="curve" smooth="yes"/>
      <point x="318" y="0"/>
      <point x="150" y="153"/>
      <point x="150" y="370" type="curve"/>
      <point x="130" y="370" type="line"/>
      <point x="130" y="141"/>
      <point x="306" y="-20"/>
    </contour>
  </outline>
</glyph>
<glyph name="four" format="2">
  <advance width="1106"/>
  <unicode hex="0034"/>
  <outline>
    <contour>
      <point x="796" y="0" type="line"/>
      <point x="818" y="0" type="line"/>
      <point x="818" y="280" type="line"/>
      <point x="1036" y="280" type="line"/>
      <point x="1036" y="300" type="line"/>
      <point x="818" y="300" type="line"/>
      <point x="818" y="1400" type="line"/>
      <point x="816" y="1400" type="line"/>
      <point x="50" y="280" type="line"/>
      <point x="796" y="280" type="line"/>
    </contour>
    <contour>
      <point x="88" y="300" type="line"/>
      <point x="796" y="1332" type="line"/>
      <point x="796" y="300" type="line"/>
    </contour>
  </outline>
</glyph>
<glyph name="five" format="2">
  <advance width="1114"/>
  <unicode hex="0035"/>
  <outline>
    <contour>
      <point x="528" y="-20" type="curve" smooth="yes"/>
      <point x="802" y="-20"/>
      <point x="978" y="168"/>
      <point x="978" y="460" type="curve" smooth="yes"/>
      <point x="978" y="708"/>
      <point x="809" y="892"/>
      <point x="580" y="892" type="curve" smooth="yes"/>
      <point x="424" y="892"/>
      <point x="276" y="823"/>
      <point x="206" y="718" type="curve"/>
      <point x="368" y="1380" type="line"/>
      <point x="1014" y="1380" type="line"/>
      <point x="1014" y="1400" type="line"/>
      <point x="354" y="1400" type="line"/>
      <point x="170" y="654" type="line"/>
      <point x="276" y="800"/>
      <point x="412" y="872"/>
      <point x="580" y="872" type="curve" smooth="yes"/>
      <point x="796" y="872"/>
      <point x="958" y="695"/>
      <point x="958" y="460" type="curve" smooth="yes"/>
      <point x="958" y="181"/>
      <point x="789" y="0"/>
      <point x="528" y="0" type="curve" smooth="yes"/>
      <point x="335" y="0"/>
      <point x="207" y="91"/>
      <point x="128" y="284" type="curve"/>
      <point x="110" y="274" type="line"/>
      <point x="189" y="77"/>
      <point x="327" y="-20"/>
    </contour>
  </outline>
</glyph>
<glyph name="six" format="2">
  <advance width="1072"/>
  <unicode hex="0036"/>
  <outline>
    <contour>
      <point x="536" y="-20" type="curve" smooth="yes"/>
      <point x="798" y="-20"/>
      <point x="972" y="164"/>
      <point x="972" y="440" type="curve" smooth="yes"/>
      <point x="972" y="679"/>
      <point x="786" y="874"/>
      <point x="558" y="874" type="curve" smooth="yes"/>
      <point x="410" y="874"/>
      <point x="286" y="816"/>
      <point x="198" y="708" type="curve"/>
      <point x="200" y="710" type="line"/>
      <point x="684" y="1400" type="line"/>
      <point x="660" y="1400" type="line"/>
      <point x="212" y="758" type="line" smooth="yes"/>
      <point x="146" y="668"/>
      <point x="100" y="537"/>
      <point x="100" y="440" type="curve" smooth="yes"/>
      <point x="100" y="164"/>
      <point x="274" y="-20"/>
    </contour>
    <contour>
      <point x="536" y="0" type="curve" smooth="yes"/>
      <point x="289" y="0"/>
      <point x="120" y="179"/>
      <point x="120" y="440" type="curve" smooth="yes"/>
      <point x="120" y="678"/>
      <point x="306" y="854"/>
      <point x="558" y="854" type="curve" smooth="yes"/>
      <point x="773" y="854"/>
      <point x="952" y="666"/>
      <point x="952" y="440" type="curve" smooth="yes"/>
      <point x="952" y="182"/>
      <point x="780" y="0"/>
    </contour>
  </outline>
</glyph>
<glyph name="seven" format="2">
  <advance width="1030"/>
  <unicode hex="0037"/>
  <outline>
    <contour>
      <point x="248" y="0" type="line"/>
      <point x="270" y="0" type="line"/>
      <point x="1010" y="1400" type="line"/>
      <point x="70" y="1400" type="line"/>
      <point x="70" y="1380" type="line"/>
      <point x="978" y="1380" type="line"/>
    </contour>
  </outline>
</glyph>
<glyph name="eight" format="2">
  <advance width="1032"/>
  <unicode hex="0038"/>
  <outline>
    <contour>
      <point x="516" y="-20" type="curve" smooth="yes"/>
      <point x="739" y="-20"/>
      <point x="902" y="145"/>
      <point x="902" y="370" type="curve" smooth="yes"/>
      <point x="902" y="567"/>
      <point x="770" y="713"/>
      <point x="568" y="740" type="curve"/>
      <point x="736" y="770"/>
      <point x="862" y="917"/>
      <point x="862" y="1082" type="curve" smooth="yes"/>
      <point x="862" y="1268"/>
      <point x="706" y="1420"/>
      <point x="516" y="1420" type="curve" smooth="yes"/>
      <point x="327" y="1420"/>
      <point x="170" y="1267"/>
      <point x="170" y="1082" type="curve" smooth="yes"/>
      <point x="170" y="917"/>
      <point x="296" y="770"/>
      <point x="464" y="740" type="curve"/>
      <point x="262" y="713"/>
      <point x="130" y="567"/>
      <point x="130" y="370" type="curve" smooth="yes"/>
      <point x="130" y="145"/>
      <point x="293" y="-20"/>
    </contour>
    <contour>
      <point x="516" y="0" type="curve" smooth="yes"/>
      <point x="306" y="0"/>
      <point x="150" y="158"/>
      <point x="150" y="370" type="curve" smooth="yes"/>
      <point x="150" y="572"/>
      <point x="311" y="730"/>
      <point x="516" y="730" type="curve" smooth="yes"/>
      <point x="727" y="730"/>
      <point x="882" y="578"/>
      <point x="882" y="370" type="curve" smooth="yes"/>
      <point x="882" y="158"/>
      <point x="726" y="0"/>
    </contour>
    <contour>
      <point x="516" y="750" type="curve" smooth="yes"/>
      <point x="347" y="750"/>
      <point x="190" y="909"/>
      <point x="190" y="1082" type="curve" smooth="yes"/>
      <point x="190" y="1257"/>
      <point x="337" y="1400"/>
      <point x="516" y="1400" type="curve" smooth="yes"/>
      <point x="693" y="1400"/>
      <point x="842" y="1254"/>
      <point x="842" y="1082" type="curve" smooth="yes"/>
      <point x="842" y="910"/>
      <point x="685" y="750"/>
    </contour>
  </outline>
</glyph>
<glyph name="colon" format="2">
  <advance width="600"/>
  <unicode hex="003A"/>
  <outline>
    <contour>
      <point x="260" y="676" type="curve" smooth="yes"/>
      <point x="272" y="676"/>
      <point x="282" y="684"/>
      <point x="282" y="698" type="curve" smooth="yes"/>
      <point x="282" y="712"/>
      <point x="272" y="720"/>
      <point x="260" y="720" type="curve" smooth="yes"/>
      <point x="248" y="720"/>
      <point x="238" y="712"/>
      <point x="238" y="698" type="curve" smooth="yes"/>
      <point x="238" y="684"/>
      <point x="248" y="676"/>
    </contour>
    <contour>
      <point x="260" y="-20" type="curve" smooth="yes"/>
      <point x="272" y="-20"/>
      <point x="282" y="-12"/>
      <point x="282" y="2" type="curve" smooth="yes"/>
      <point x="282" y="16"/>
      <point x="272" y="24"/>
      <point x="260" y="24" type="curve" smooth="yes"/>
      <point x="248" y="24"/>
      <point x="238" y="16"/>
      <point x="238" y="2" type="curve" smooth="yes"/>
      <point x="238" y="-12"/>
      <point x="248" y="-20"/>
    </contour>
  </outline>
</glyph>
<glyph name="semicolon" format="2">
  <advance width="552"/>
  <unicode hex="003B"/>
  <outline>
    <contour>
      <point x="152" y="-322" type="line"/>
      <point x="372" y="178" type="line"/>
      <point x="350" y="188" type="line"/>
      <point x="140" y="-318" type="line"/>
    </contour>
    <contour>
      <point x="320" y="676" type="curve" smooth="yes"/>
      <point x="332" y="676"/>
      <point x="342" y="684"/>
      <point x="342" y="698" type="curve" smooth="yes"/>
      <point x="342" y="712"/>
      <point x="332" y="720"/>
      <point x="320" y="720" type="curve" smooth="yes"/>
      <point x="308" y="720"/>
      <point x="298" y="712"/>
      <point x="298" y="698" type="curve" smooth="yes"/>
      <point x="298" y="684"/>
      <point x="308" y="676"/>
    </contour>
  </outline>
</glyph>
<glyph name="less" format="2">
  <advance width="1280"/>
  <unicode hex="003C"/>
  <outline>
    <contour>
      <point x="1150" y="90" type="line"/>
      <point x="1150" y="110" type="line"/>
      <point x="164" y="514" type="line"/>
      <point x="1150" y="920" type="line"/>
      <point x="1150" y="940" type="line"/>
      <point x="130" y="520" type="line"/>
      <point x="130" y="508" type="line"/>
    </contour>
  </outline>
</glyph>
<glyph name="equal" format="2">
  <advance width="1230"/>
  <unicode hex="003D"/>
  <outline>
    <contour>
      <point x="130" y="620" type="line"/>
      <point x="1100" y="620" type="line"/>
      <point x="1100" y="640" type="line"/>
      <point x="130" y="640" type="line"/>
    </contour>
    <contour>
      <point x="130" y="370" type="line"/>
      <point x="1100" y="370" type="line"/>
      <point x="1100" y="390" type="line"/>
      <point x="130" y="390" type="line"/>
    </contour>
  </outline>
</glyph>
<glyph name="greater" format="2">
  <advance width="1280"/>
  <unicode hex="003E"/>
  <outline>
    <contour>
      <point x="130" y="90" type="line"/>
      <point x="1150" y="510" type="line"/>
      <point x="1150" y="522" type="line"/>
      <point x="130" y="940" type="line"/>
      <point x="130" y="920" type="line"/>
      <point x="1116" y="516" type="line"/>
      <point x="130" y="110" type="line"/>
    </contour>
  </outline>
</glyph>
<glyph name="question" format="2">
  <advance width="1084"/>
  <unicode hex="003F"/>
  <outline>
    <contour>
      <point x="454" y="340" type="line"/>
      <point x="470" y="340" type="line"/>
      <point x="468" y="674" type="line"/>
      <point x="724" y="678"/>
      <point x="924" y="844"/>
      <point x="924" y="1040" type="curve" smooth="yes"/>
      <point x="924" y="1258"/>
      <point x="778" y="1420"/>
      <point x="528" y="1420" type="curve" smooth="yes"/>
      <point x="330" y="1420"/>
      <point x="222" y="1326"/>
      <point x="130" y="1186" type="curve"/>
      <point x="148" y="1174" type="line"/>
      <point x="236" y="1312"/>
      <point x="344" y="1400"/>
      <point x="528" y="1400" type="curve" smooth="yes"/>
      <point x="768" y="1400"/>
      <point x="904" y="1242"/>
      <point x="904" y="1040" type="curve" smooth="yes"/>
      <point x="904" y="848"/>
      <point x="706" y="690"/>
      <point x="446" y="690" type="curve" smooth="yes"/>
      <point x="444" y="690" type="line"/>
    </contour>
    <contour>
      <point x="450" y="-20" type="curve" smooth="yes"/>
      <point x="462" y="-20"/>
      <point x="472" y="-12"/>
      <point x="472" y="2" type="curve" smooth="yes"/>
      <point x="472" y="16"/>
      <point x="462" y="24"/>
      <point x="450" y="24" type="curve" smooth="yes"/>
      <point x="438" y="24"/>
      <point x="428" y="16"/>
      <point x="428" y="2" type="curve" smooth="yes"/>
      <point x="428" y="-12"/>
      <point x="438" y="-20"/>
    </contour>
  </outline>
</glyph>
<glyph name="at" format="2">
  <advance width="1540"/>
  <unicode hex="0040"/>
  <outline>
    <contour>
      <point x="710" y="-343" type="curve" smooth="yes"/>
      <point x="886" y="-343"/>
      <point x="1035" y="-307"/>
      <point x="1206" y="-225" type="curve"/>
      <point x="1194" y="-205" type="line"/>
      <point x="1048" y="-282"/>
      <point x="885" y="-321"/>
      <point x="710" y="-321" type="curve" smooth="yes"/>
      <point x="326" y="-321"/>
      <point x="92" y="-81"/>
      <point x="92" y="313" type="curve" smooth="yes"/>
      <point x="92" y="753"/>
      <point x="400" y="1067"/>
      <point x="830" y="1067" type="curve" smooth="yes"/>
      <point x="1182" y="1067"/>
      <point x="1448" y="803"/>
      <point x="1448" y="453" type="curve" smooth="yes"/>
      <point x="1448" y="213"/>
      <point x="1293" y="9"/>
      <point x="1112" y="9" type="curve" smooth="yes"/>
      <point x="1028" y="9"/>
      <point x="978" y="73"/>
      <point x="978" y="181" type="curve" smooth="yes"/>
      <point x="978" y="200"/>
      <point x="980" y="239"/>
      <point x="982" y="251" type="curve" smooth="yes"/>
      <point x="1064" y="713" type="line"/>
      <point x="1040" y="713" type="line"/>
      <point x="960" y="253" type="line"/>
      <point x="964" y="253" type="line"/>
      <point x="958" y="218"/>
      <point x="956" y="184"/>
      <point x="957" y="151" type="curve" smooth="yes"/>
      <point x="960" y="45"/>
      <point x="1018" y="-13"/>
      <point x="1112" y="-13" type="curve" smooth="yes"/>
      <point x="1308" y="-13"/>
      <point x="1470" y="197"/>
      <point x="1470" y="453" type="curve" smooth="yes"/>
      <point x="1470" y="815"/>
      <point x="1194" y="1089"/>
      <point x="830" y="1089" type="curve" smooth="yes"/>
      <point x="392" y="1089"/>
      <point x="70" y="761"/>
      <point x="70" y="313" type="curve" smooth="yes"/>
      <point x="70" y="-95"/>
      <point x="312" y="-343"/>
    </contour>
    <contour>
      <point x="680" y="-11" type="curve" smooth="yes"/>
      <point x="850" y="-11"/>
      <point x="1000" y="185"/>
      <point x="1000" y="407" type="curve" smooth="yes"/>
      <point x="1000" y="595"/>
      <point x="898" y="729"/>
      <point x="756" y="729" type="curve" smooth="yes"/>
      <point x="555" y="729"/>
      <point x="410" y="554"/>
      <point x="410" y="313" type="curve" smooth="yes"/>
      <point x="410" y="121"/>
      <point x="520" y="-11"/>
    </contour>
    <contour>
      <point x="676" y="11" type="curve" smooth="yes"/>
      <point x="534" y="11"/>
      <point x="432" y="137"/>
      <point x="432" y="313" type="curve" smooth="yes"/>
      <point x="432" y="541"/>
      <point x="568" y="707"/>
      <point x="756" y="707" type="curve" smooth="yes"/>
      <point x="884" y="707"/>
      <point x="980" y="581"/>
      <point x="980" y="413" type="curve" smooth="yes"/>
      <point x="980" y="191"/>
      <point x="843" y="11"/>
    </contour>
  </outline>
</glyph>
<glyph name="A" format="2">
  <advance width="1200"/>
  <unicode hex="0041"/>
  <anchor x="600" y="0" name="bottom"/>
  <anchor x="1170" y="0" name="ogonek"/>
  <anchor x="600" y="1400" name="top"/>
  <outline>
    <contour>
      <point x="30" y="0" type="line"/>
      <point x="54" y="0" type="line"/>
      <point x="270" y="546" type="line"/>
      <point x="272" y="554" type="line"/>
      <point x="600" y="1376" type="line"/>
      <point x="930" y="552" type="line"/>
      <point x="932" y="546" type="line"/>
      <point x="1146" y="0" type="line"/>
      <point x="1170" y="0" type="line"/>
      <point x="600" y="1430" type="line"/>
    </contour>
    <contour>
      <point x="258" y="544" type="line"/>
      <point x="944" y="544" type="line"/>
      <point x="944" y="564" type="line"/>
      <point x="258" y="564" type="line"/>
    </contour>
  </outline>
</glyph>
<glyph name="B" format="2">
  <advance width="990"/>
  <unicode hex="0042"/>
  <anchor x="495" y="0" name="bottom"/>
  <anchor x="495" y="1400" name="top"/>
  <outline>
    <contour>
      <point x="180" y="0" type="line"/>
      <point x="420" y="0" type="line" smooth="yes"/>
      <point x="711" y="0"/>
      <point x="870" y="141"/>
      <point x="870" y="400" type="curve" smooth="yes"/>
      <point x="870" y="605"/>
      <point x="669" y="784"/>
      <point x="440" y="784" type="curve" smooth="yes"/>
      <point x="194" y="784" type="line"/>
      <point x="194" y="768" type="line"/>
      <point x="420" y="768" type="line" smooth="yes"/>
      <point x="655" y="768"/>
      <point x="848" y="602"/>
      <point x="848" y="400" type="curve" smooth="yes"/>
      <point x="848" y="154"/>
      <point x="698" y="22"/>
      <point x="420" y="22" type="curve" smooth="yes"/>
      <point x="200" y="22" type="line"/>
      <point x="200" y="1378" type="line"/>
      <point x="400" y="1378" type="line" smooth="yes"/>
      <point x="638" y="1378"/>
      <point x="774" y="1270"/>
      <point x="774" y="1080" type="curve" smooth="yes"/>
      <point x="774" y="896"/>
      <point x="636" y="788"/>
      <point x="400" y="788" type="curve" smooth="yes"/>
      <point x="194" y="788" type="line"/>
      <point x="194" y="772" type="line"/>
      <point x="420" y="772" type="line" smooth="yes"/>
      <point x="658" y="772"/>
      <point x="796" y="885"/>
      <point x="796" y="1080" type="curve" smooth="yes"/>
      <point x="796" y="1280"/>
      <point x="648" y="1400"/>
      <point x="400" y="1400" type="curve" smooth="yes"/>
      <point x="180" y="1400" type="line"/>
    </contour>
  </outline>
</glyph>
<glyph name="C" format="2">
  <advance width="1370"/>
  <unicode hex="0043"/>
  <anchor x="757" y="-7" name="bottom"/>
  <anchor x="760" y="1416" name="top"/>
  <outline>
    <contour>
      <point x="760" y="-16" type="curve" smooth="yes"/>
      <point x="964" y="-16"/>
      <point x="1092" y="40"/>
      <point x="1210" y="144" type="curve"/>
      <point x="1210" y="176" type="line"/>
      <point x="1094" y="62"/>
      <point x="958" y="8"/>
      <point x="760" y="8" type="curve" smooth="yes"/>
      <point x="386" y="8"/>
      <point x="124" y="300"/>
      <point x="124" y="700" type="curve" smooth="yes"/>
      <point x="124" y="1106"/>
      <point x="388" y="1392"/>
      <point x="760" y="1392" type="curve" smooth="yes"/>
      <point x="948" y="1392"/>
      <point x="1098" y="1338"/>
      <point x="1210" y="1226" type="curve"/>
      <point x="1210" y="1256" type="line"/>
      <point x="1092" y="1360"/>
      <point x="964" y="1416"/>
      <point x="760" y="1416" type="curve" smooth="yes"/>
      <point x="372" y="1416"/>
      <point x="100" y="1118"/>
      <point x="100" y="700" type="curve" smooth="yes"/>
      <point x="100" y="282"/>
      <point x="372" y="-16"/>
    </contour>
  </outline>
</glyph>
<glyph name="D" format="2">
  <advance width="1270"/>
  <unicode hex="0044"/>
  <anchor x="500" y="0" name="bottom"/>
  <anchor x="635" y="700" name="center"/>
  <anchor x="590" y="1400" name="top"/>
  <outline>
    <contour>
      <point x="180" y="0" type="line"/>
      <point x="500" y="0" type="line" smooth="yes"/>
      <point x="908" y="0"/>
      <point x="1170" y="282"/>
      <point x="1170" y="700" type="curve" smooth="yes"/>
      <point x="1170" y="1118"/>
      <point x="908" y="1400"/>
      <point x="500" y="1400" type="curve" smooth="yes"/>
      <point x="180" y="1400" type="line"/>
    </contour>
    <contour>
      <point x="202" y="22" type="line"/>
      <point x="202" y="1378" type="line"/>
      <point x="500" y="1378" type="line" smooth="yes"/>
      <point x="900" y="1378"/>
      <point x="1148" y="1106"/>
      <point x="1148" y="700" type="curve" smooth="yes"/>
      <point x="1148" y="292"/>
      <point x="900" y="22"/>
      <point x="500" y="22" type="curve" smooth="yes"/>
    </contour>
  </outline>
</glyph>
<glyph name="E" format="2">
  <advance width="1020"/>
  <unicode hex="0045"/>
  <anchor x="510" y="0" name="bottom"/>
  <anchor x="701" y="20" name="ogonek"/>
  <anchor x="519" y="1400" name="top"/>
  <anchor x="20" y="1400" name="topleft"/>
  <outline>
    <contour>
      <point x="180" y="0" type="line"/>
      <point x="860" y="0" type="line"/>
      <point x="860" y="20" type="line"/>
      <point x="202" y="20" type="line"/>
      <point x="202" y="768" type="line"/>
      <point x="820" y="768" type="line"/>
      <point x="820" y="788" type="line"/>
      <point x="202" y="788" type="line"/>
      <point x="202" y="1380" type="line"/>
      <point x="860" y="1380" type="line"/>
      <point x="860" y="1400" type="line"/>
      <point x="180" y="1400" type="line"/>
    </contour>
  </outline>
</glyph>
<glyph name="F" format="2">
  <advance width="900"/>
  <unicode hex="0046"/>
  <anchor x="450" y="0" name="bottom"/>
  <anchor x="450" y="1400" name="top"/>
  <outline>
    <contour>
      <point x="180" y="0" type="line"/>
      <point x="202" y="0" type="line"/>
      <point x="202" y="746" type="line"/>
      <point x="760" y="746" type="line"/>
      <point x="760" y="766" type="line"/>
      <point x="202" y="766" type="line"/>
      <point x="202" y="1378" type="line"/>
      <point x="780" y="1378" type="line"/>
      <point x="780" y="1400" type="line"/>
      <point x="180" y="1400" type="line"/>
    </contour>
  </outline>
</glyph>
<glyph name="G" format="2">
  <advance width="1530"/>
  <unicode hex="0047"/>
  <anchor x="780" y="-16" name="bottom"/>
  <anchor x="780" y="1416" name="top"/>
  <outline>
    <contour>
      <point x="780" y="-16" type="curve" smooth="yes"/>
      <point x="1168" y="-16"/>
      <point x="1420" y="312"/>
      <point x="1420" y="680" type="curve"/>
      <point x="840" y="680" type="line"/>
      <point x="840" y="660" type="line"/>
      <point x="1398" y="660" type="line"/>
      <point x="1390" y="310"/>
      <point x="1148" y="6"/>
      <point x="780" y="6" type="curve" smooth="yes"/>
      <point x="396" y="6"/>
      <point x="122" y="300"/>
      <point x="122" y="700" type="curve" smooth="yes"/>
      <point x="122" y="1106"/>
      <point x="398" y="1394"/>
      <point x="780" y="1394" type="curve" smooth="yes"/>
      <point x="1024" y="1394"/>
      <point x="1216" y="1266"/>
      <point x="1316" y="1100" type="curve"/>
      <point x="1336" y="1112" type="line"/>
      <point x="1216" y="1286"/>
      <point x="1038" y="1416"/>
      <point x="780" y="1416" type="curve" smooth="yes"/>
      <point x="392" y="1416"/>
      <point x="100" y="1118"/>
      <point x="100" y="700" type="curve" smooth="yes"/>
      <point x="100" y="282"/>
      <point x="392" y="-16"/>
    </contour>
  </outline>
</glyph>
<glyph name="H" format="2">
  <advance width="1294"/>
  <unicode hex="0048"/>
  <anchor x="647" y="0" name="bottom"/>
  <anchor x="647" y="700" name="center"/>
  <anchor x="647" y="1400" name="top"/>
  <anchor x="20" y="1400" name="topleft"/>
  <outline>
    <contour>
      <point x="180" y="0" type="line"/>
      <point x="202" y="0" type="line"/>
      <point x="202" y="754" type="line"/>
      <point x="1092" y="754" type="line"/>
      <point x="1092" y="0" type="line"/>
      <point x="1114" y="0" type="line"/>
      <point x="1114" y="1400" type="line"/>
      <point x="1092" y="1400" type="line"/>
      <point x="1092" y="774" type="line"/>
      <point x="202" y="774" type="line"/>
      <point x="202" y="1400" type="line"/>
      <point x="180" y="1400" type="line"/>
    </contour>
  </outline>
</glyph>
<glyph name="I" format="2">
  <advance width="360"/>
  <unicode hex="0049"/>
  <anchor x="186" y="0" name="bottom"/>
  <anchor x="190" y="0" name="ogonek"/>
  <anchor x="180" y="1400" name="top"/>
  <anchor x="20" y="1400" name="topleft"/>
  <outline>
    <contour>
      <point x="170" y="0" type="line"/>
      <point x="190" y="0" type="line"/>
      <point x="190" y="1400" type="line"/>
      <point x="170" y="1400" type="line"/>
    </contour>
  </outline>
</glyph>
<glyph name="J" format="2">
  <advance width="762"/>
  <unicode hex="004A"/>
  <anchor x="565" y="0" name="bottom"/>
  <anchor x="571" y="1400" name="top"/>
  <outline>
    <contour>
      <point x="336" y="-19" type="curve" smooth="yes"/>
      <point x="508" y="-19"/>
      <point x="582" y="84"/>
      <point x="582" y="324" type="curve" smooth="yes"/>
      <point x="582" y="1400" type="line"/>
      <point x="560" y="1400" type="line"/>
      <point x="560" y="335" type="line" smooth="yes"/>
      <point x="560" y="99"/>
      <point x="492" y="3"/>
      <point x="334" y="3" type="curve" smooth="yes"/>
      <point x="247" y="3"/>
      <point x="183" y="30"/>
      <point x="114" y="105" type="curve"/>
      <point x="100" y="91" type="line"/>
      <point x="160" y="20"/>
      <point x="237" y="-19"/>
    </contour>
  </outline>
</glyph>
<glyph name="K" format="2">
  <advance width="908"/>
  <unicode hex="004B"/>
  <anchor x="454" y="0" name="bottom"/>
  <anchor x="454" y="1400" name="top"/>
  <outline>
    <contour>
      <point x="844" y="0" type="line"/>
      <point x="878" y="0" type="line"/>
      <point x="218" y="744" type="line"/>
      <point x="848" y="1400" type="line"/>
      <point x="816" y="1400" type="line"/>
      <point x="188" y="744" type="line"/>
    </contour>
    <contour>
      <point x="170" y="0" type="line"/>
      <point x="192" y="0" type="line"/>
      <point x="192" y="1400" type="line"/>
      <point x="170" y="1400" type="line"/>
    </contour>
  </outline>
</glyph>
<glyph name="N" format="2">
  <advance width="1450"/>
  <unicode hex="004E"/>
  <anchor x="725" y="0" name="bottom"/>
  <anchor x="725" y="1400" name="top"/>
  <outline>
    <contour>
      <point x="1270" y="-30" type="line"/>
      <point x="1270" y="1400" type="line"/>
      <point x="1248" y="1400" type="line"/>
      <point x="1248" y="34" type="line"/>
      <point x="180" y="1430" type="line"/>
      <point x="180" y="0" type="line"/>
      <point x="202" y="0" type="line"/>
      <point x="202" y="1356" type="line"/>
    </contour>
  </outline>
</glyph>
<glyph name="O" format="2">
  <advance width="1548"/>
  <unicode hex="004F"/>
  <anchor x="774" y="0" name="bottom"/>
  <anchor x="774" y="700" name="center"/>
  <anchor x="876" y="10" name="ogonek"/>
  <anchor x="774" y="1400" name="top"/>
  <anchor x="20" y="1400" name="topleft"/>
  <anchor x="1528" y="1400" name="topright"/>
  <outline>
    <contour>
      <point x="774" y="-16" type="curve" smooth="yes"/>
      <point x="1165" y="-16"/>
      <point x="1448" y="285"/>
      <point x="1448" y="700" type="curve" smooth="yes"/>
      <point x="1448" y="1115"/>
      <point x="1165" y="1416"/>
      <point x="774" y="1416" type="curve" smooth="yes"/>
      <point x="383" y="1416"/>
      <point x="100" y="1115"/>
      <point x="100" y="700" type="curve" smooth="yes"/>
      <point x="100" y="285"/>
      <point x="383" y="-16"/>
    </contour>
    <contour>
      <point x="774" y="6" type="curve" smooth="yes"/>
      <point x="394" y="6"/>
      <point x="122" y="296"/>
      <point x="122" y="700" type="curve" smooth="yes"/>
      <point x="122" y="1104"/>
      <point x="394" y="1394"/>
      <point x="774" y="1394" type="curve" smooth="yes"/>
      <point x="1154" y="1394"/>
      <point x="1426" y="1104"/>
      <point x="1426" y="700" type="curve" smooth="yes"/>
      <point x="1426" y="296"/>
      <point x="1154" y="6"/>
    </contour>
  </outline>
</glyph>
<glyph name="P" format="2">
  <advance width="960"/>
  <unicode hex="0050"/>
  <anchor x="480" y="0" name="bottom"/>
  <anchor x="480" y="1400" name="top"/>
  <outline>
    <contour>
      <point x="180" y="0" type="line"/>
      <point x="202" y="0" type="line"/>
      <point x="202" y="588" type="line"/>
      <point x="430" y="588" type="line" smooth="yes"/>
      <point x="680" y="588"/>
      <point x="860" y="736"/>
      <point x="860" y="994" type="curve" smooth="yes"/>
      <point x="860" y="1252"/>
      <point x="680" y="1400"/>
      <point x="430" y="1400" type="curve" smooth="yes"/>
      <point x="180" y="1400" type="line"/>
    </contour>
    <contour>
      <point x="202" y="608" type="line"/>
      <point x="202" y="1380" type="line"/>
      <point x="430" y="1380" type="line" smooth="yes"/>
      <point x="670" y="1380"/>
      <point x="838" y="1240"/>
      <point x="838" y="994" type="curve" smooth="yes"/>
      <point x="838" y="748"/>
      <point x="670" y="608"/>
      <point x="430" y="608" type="curve" smooth="yes"/>
    </contour>
  </outline>
</glyph>
<glyph name="Q" format="2">
  <advance width="1542"/>
  <unicode hex="0051"/>
  <anchor x="771" y="0" name="bottom"/>
  <anchor x="771" y="1400" name="top"/>
  <outline>
    <contour>
      <point x="774" y="-16" type="curve" smooth="yes"/>
      <point x="1165" y="-16"/>
      <point x="1448" y="285"/>
      <point x="1448" y="700" type="curve" smooth="yes"/>
      <point x="1448" y="1115"/>
      <point x="1165" y="1416"/>
      <point x="774" y="1416" type="curve" smooth="yes"/>
      <point x="383" y="1416"/>
      <point x="100" y="1115"/>
      <point x="100" y="700" type="curve" smooth="yes"/>
      <point x="100" y="285"/>
      <point x="383" y="-16"/>
    </contour>
    <contour>
      <point x="1440" y="0" type="line"/>
      <point x="1472" y="0" type="line"/>
      <point x="832" y="600" type="line"/>
      <point x="800" y="600" type="line"/>
    </contour>
    <contour>
      <point x="774" y="6" type="curve" smooth="yes"/>
      <point x="394" y="6"/>
      <point x="122" y="296"/>
      <point x="122" y="700" type="curve" smooth="yes"/>
      <point x="122" y="1104"/>
      <point x="394" y="1394"/>
      <point x="774" y="1394" type="curve" smooth="yes"/>
      <point x="1154" y="1394"/>
      <point x="1426" y="1104"/>
      <point x="1426" y="700" type="curve" smooth="yes"/>
      <point x="1426" y="296"/>
      <point x="1154" y="6"/>
    </contour>
  </outline>
</glyph>
<glyph name="R" format="2">
  <advance width="936"/>
  <unicode hex="0052"/>
  <anchor x="468" y="0" name="bottom"/>
  <anchor x="511" y="1400" name="top"/>
  <outline>
    <contour>
      <point x="180" y="0" type="line"/>
      <point x="202" y="0" type="line"/>
      <point x="202" y="628" type="line"/>
      <point x="402" y="628" type="line"/>
      <point x="838" y="0" type="line"/>
      <point x="866" y="0" type="line"/>
      <point x="426" y="628" type="line"/>
      <point x="710" y="633"/>
      <point x="882" y="779"/>
      <point x="882" y="1014" type="curve" smooth="yes"/>
      <point x="882" y="1253"/>
      <point x="703" y="1400"/>
      <point x="410" y="1400" type="curve" smooth="yes"/>
      <point x="180" y="1400" type="line"/>
    </contour>
    <contour>
      <point x="202" y="648" type="line"/>
      <point x="202" y="1378" type="line"/>
      <point x="410" y="1378" type="line" smooth="yes"/>
      <point x="694" y="1378"/>
      <point x="860" y="1243"/>
      <point x="860" y="1014" type="curve" smooth="yes"/>
      <point x="860" y="784"/>
      <point x="692" y="648"/>
      <point x="410" y="648" type="curve" smooth="yes"/>
    </contour>
  </outline>
</glyph>
<glyph name="S" format="2">
  <advance width="976"/>
  <unicode hex="0053"/>
  <anchor x="508" y="-13" name="bottom"/>
  <anchor x="508" y="1405" name="top"/>
  <outline>
    <contour>
      <point x="510" y="-16" type="curve" smooth="yes"/>
      <point x="731" y="-16"/>
      <point x="886" y="135"/>
      <point x="886" y="350" type="curve" smooth="yes"/>
      <point x="886" y="535"/>
      <point x="785" y="650"/>
      <point x="546" y="736" type="curve" smooth="yes"/>
      <point x="303" y="824"/>
      <point x="182" y="945"/>
      <point x="182" y="1100" type="curve" smooth="yes"/>
      <point x="182" y="1265"/>
      <point x="324" y="1394"/>
      <point x="506" y="1394" type="curve" smooth="yes"/>
      <point x="674" y="1394"/>
      <point x="805" y="1283"/>
      <point x="858" y="1096" type="curve"/>
      <point x="878" y="1100" type="line"/>
      <point x="828" y="1297"/>
      <point x="688" y="1416"/>
      <point x="506" y="1416" type="curve" smooth="yes"/>
      <point x="312" y="1416"/>
      <point x="160" y="1277"/>
      <point x="160" y="1100" type="curve" smooth="yes"/>
      <point x="160" y="943"/>
      <point x="296" y="804"/>
      <point x="534" y="718" type="curve" smooth="yes"/>
      <point x="771" y="631"/>
      <point x="864" y="527"/>
      <point x="864" y="350" type="curve" smooth="yes"/>
      <point x="864" y="146"/>
      <point x="719" y="6"/>
      <point x="510" y="6" type="curve" smooth="yes"/>
      <point x="312" y="6"/>
      <point x="181" y="130"/>
      <point x="100" y="394" type="curve"/>
      <point x="80" y="386" type="line"/>
      <point x="160" y="117"/>
      <point x="302" y="-16"/>
    </contour>
  </outline>
</glyph>
<glyph name="T" format="2">
  <advance width="862"/>
  <unicode hex="0054"/>
  <anchor x="425" y="0" name="bottom"/>
  <anchor x="431" y="700" name="center"/>
  <anchor x="431" y="1400" name="top"/>
  <outline>
    <contour>
      <point x="420" y="0" type="line"/>
      <point x="442" y="0" type="line"/>
      <point x="442" y="1378" type="line"/>
      <point x="822" y="1378" type="line"/>
      <point x="822" y="1400" type="line"/>
      <point x="40" y="1400" type="line"/>
      <point x="40" y="1378" type="line"/>
      <point x="420" y="1378" type="line"/>
    </contour>
  </outline>
</glyph>
<glyph name="U" format="2">
  <advance width="1152"/>
  <unicode hex="0055"/>
  <anchor x="576" y="0" name="bottom"/>
  <anchor x="576" y="-20" name="ogonek"/>
  <anchor x="576" y="1400" name="top"/>
  <anchor x="1132" y="1400" name="topright"/>
  <outline>
    <contour>
      <point x="576" y="-20" type="curve" smooth="yes"/>
      <point x="834" y="-20"/>
      <point x="982" y="148"/>
      <point x="982" y="440" type="curve" smooth="yes"/>
      <point x="982" y="1400" type="line"/>
      <point x="960" y="1400" type="line"/>
      <point x="960" y="440" type="line" smooth="yes"/>
      <point x="960" y="167"/>
      <point x="815" y="2"/>
      <point x="576" y="2" type="curve" smooth="yes"/>
      <point x="337" y="2"/>
      <point x="192" y="167"/>
      <point x="192" y="440" type="curve" smooth="yes"/>
      <point x="192" y="1400" type="line"/>
      <point x="170" y="1400" type="line"/>
      <point x="170" y="440" type="line" smooth="yes"/>
      <point x="170" y="148"/>
      <point x="318" y="-20"/>
    </contour>
  </outline>
</glyph>
<glyph name="V" format="2">
  <advance width="1200"/>
  <unicode hex="0056"/>
  <anchor x="600" y="0" name="bottom"/>
  <anchor x="600" y="1400" name="top"/>
  <outline>
    <contour>
      <point x="600" y="-30" type="line"/>
      <point x="1170" y="1400" type="line"/>
      <point x="1144" y="1400" type="line"/>
      <point x="600" y="30" type="line"/>
      <point x="56" y="1400" type="line"/>
      <point x="30" y="1400" type="line"/>
    </contour>
  </outline>
</glyph>
<glyph name="W" format="2">
  <advance width="1900"/>
  <unicode hex="0057"/>
  <anchor x="950" y="0" name="bottom"/>
  <anchor x="950" y="1400" name="top"/>
  <outline>
    <contour>
      <point x="510" y="-30" type="line"/>
      <point x="950" y="1354" type="line"/>
      <point x="1390" y="-30" type="line"/>
      <point x="1860" y="1400" type="line"/>
      <point x="1838" y="1400" type="line"/>
      <point x="1390" y="52" type="line"/>
      <point x="950" y="1430" type="line"/>
      <point x="510" y="52" type="line"/>
      <point x="62" y="1400" type="line"/>
      <point x="40" y="1400" type="line"/>
    </contour>
  </outline>
</glyph>
<glyph name="Y" format="2">
  <advance width="1014"/>
  <unicode hex="0059"/>
  <anchor x="507" y="0" name="bottom"/>
  <anchor x="507" y="1400" name="top"/>
  <anchor x="20" y="1400" name="topleft"/>
  <outline>
    <contour>
      <point x="486" y="0" type="line"/>
      <point x="508" y="0" type="line"/>
      <point x="508" y="534" type="line"/>
      <point x="984" y="1400" type="line"/>
      <point x="958" y="1400" type="line"/>
      <point x="496" y="562" type="line"/>
      <point x="56" y="1400" type="line"/>
      <point x="30" y="1400" type="line"/>
      <point x="486" y="532" type="line"/>
    </contour>
  </outline>
</glyph>
<glyph name="Z" format="2">
  <advance width="1070"/>
  <unicode hex="005A"/>
  <anchor x="535" y="0" name="bottom"/>
  <anchor x="535" y="700" name="center"/>
  <anchor x="620" y="1400" name="top"/>
  <outline>
    <contour>
      <point x="40" y="0" type="line"/>
      <point x="1020" y="0" type="line"/>
      <point x="1020" y="22" type="line"/>
      <point x="84" y="22" type="line"/>
      <point x="1040" y="1400" type="line"/>
      <point x="80" y="1400" type="line"/>
      <point x="80" y="1378" type="line"/>
      <point x="996" y="1378" type="line"/>
    </contour>
  </outline>
</glyph>
<glyph name="bracketleft" format="2">
  <advance width="520"/>
  <unicode hex="005B"/>
  <outline>
    <contour>
      <point x="200" y="-440" type="line"/>
      <point x="480" y="-440" type="line"/>
      <point x="480" y="-418" type="line"/>
      <point x="222" y="-418" type="line"/>
      <point x="222" y="1538" type="line"/>
      <point x="480" y="1538" type="line"/>
      <point x="480" y="1560" type="line"/>
      <point x="200" y="1560" type="line"/>
    </contour>
  </outline>
</glyph>
<glyph name="backslash" format="2">
  <advance width="870"/>
  <unicode hex="005C"/>
  <outline>
    <contour>
      <point x="814" y="0" type="line"/>
      <point x="840" y="0" type="line"/>
      <point x="56" y="1400" type="line"/>
      <point x="30" y="1400" type="line"/>
    </contour>
  </outline>
</glyph>
<glyph name="bracketright" format="2">
  <advance width="520"/>
  <unicode hex="005D"/>
  <outline>
    <contour>
      <point x="40" y="-440" type="line"/>
      <point x="320" y="-440" type="line"/>
      <point x="320" y="1560" type="line"/>
      <point x="40" y="1560" type="line"/>
      <point x="40" y="1538" type="line"/>
      <point x="298" y="1538" type="line"/>
      <point x="298" y="-418" type="line"/>
      <point x="40" y="-418" type="line"/>
    </contour>
  </outline>
</glyph>
<glyph name="a" format="2">
  <advance width="870"/>
  <unicode hex="0061"/>
  <anchor x="435" y="0" name="bottom"/>
  <anchor x="730" y="0" name="ogonek"/>
  <anchor x="466" y="940" name="top"/>
  <outline>
    <contour>
      <point x="710" y="0" type="line"/>
      <point x="730" y="0" type="line"/>
      <point x="730" y="640" type="line" smooth="yes"/>
      <point x="730" y="833"/>
      <point x="636" y="940"/>
      <point x="466" y="940" type="curve" smooth="yes"/>
      <point x="354" y="940"/>
      <point x="245" y="893"/>
      <point x="154" y="806" type="curve"/>
      <point x="168" y="790" type="line"/>
      <point x="259" y="876"/>
      <point x="359" y="920"/>
      <point x="466" y="920" type="curve" smooth="yes"/>
      <point x="626" y="920"/>
      <point x="710" y="823"/>
      <point x="710" y="640" type="curve" smooth="yes"/>
    </contour>
    <contour>
      <point x="386" y="-20" type="curve" smooth="yes"/>
      <point x="578" y="-20"/>
      <point x="720" y="125"/>
      <point x="720" y="320" type="curve"/>
      <point x="710" y="320" type="line"/>
      <point x="710" y="139"/>
      <point x="569" y="0"/>
      <point x="386" y="0" type="curve" smooth="yes"/>
      <point x="223" y="0"/>
      <point x="100" y="116"/>
      <point x="100" y="270" type="curve" smooth="yes"/>
      <point x="100" y="432"/>
      <point x="239" y="542"/>
      <point x="442" y="542" type="curve" smooth="yes"/>
      <point x="553" y="542"/>
      <point x="652" y="509"/>
      <point x="716" y="450" type="curve"/>
      <point x="716" y="470" type="line"/>
      <point x="646" y="530"/>
      <point x="551" y="562"/>
      <point x="442" y="562" type="curve" smooth="yes"/>
      <point x="223" y="562"/>
      <point x="80" y="447"/>
      <point x="80" y="270" type="curve" smooth="yes"/>
      <point x="80" y="103"/>
      <point x="209" y="-20"/>
    </contour>
  </outline>
</glyph>
<glyph name="b" format="2">
  <advance width="1082"/>
  <unicode hex="0062"/>
  <anchor x="541" y="0" name="bottom"/>
  <anchor x="541" y="1600" name="top"/>
  <outline>
    <contour>
      <point x="160" y="0" type="line"/>
      <point x="180" y="0" type="line"/>
      <point x="180" y="1560" type="line"/>
      <point x="160" y="1560" type="line"/>
    </contour>
    <contour>
      <point x="566" y="-20" type="curve" smooth="yes"/>
      <point x="805" y="-20"/>
      <point x="992" y="191"/>
      <point x="992" y="460" type="curve" smooth="yes"/>
      <point x="992" y="729"/>
      <point x="805" y="940"/>
      <point x="566" y="940" type="curve" smooth="yes"/>
      <point x="333" y="940"/>
      <point x="166" y="739"/>
      <point x="166" y="460" type="curve" smooth="yes"/>
      <point x="166" y="180"/>
      <point x="333" y="-20"/>
    </contour>
    <contour>
      <point x="560" y="0" type="curve" smooth="yes"/>
      <point x="340" y="0"/>
      <point x="180" y="194"/>
      <point x="180" y="460" type="curve" smooth="yes"/>
      <point x="180" y="726"/>
      <point x="340" y="920"/>
      <point x="560" y="920" type="curve" smooth="yes"/>
      <point x="788" y="920"/>
      <point x="972" y="714"/>
      <point x="972" y="460" type="curve" smooth="yes"/>
      <point x="972" y="207"/>
      <point x="787" y="0"/>
    </contour>
  </outline>
</glyph>
<glyph name="c" format="2">
  <advance width="976"/>
  <unicode hex="0063"/>
  <anchor x="488" y="0" name="bottom"/>
  <anchor x="546" y="940" name="top"/>
  <outline>
    <contour>
      <point x="546" y="-20" type="curve" smooth="yes"/>
      <point x="664" y="-20"/>
      <point x="798" y="30"/>
      <point x="856" y="96" type="curve"/>
      <point x="856" y="122" type="line"/>
      <point x="796" y="54"/>
      <point x="660" y="0"/>
      <point x="546" y="0" type="curve" smooth="yes"/>
      <point x="291" y="0"/>
      <point x="100" y="197"/>
      <point x="100" y="460" type="curve" smooth="yes"/>
      <point x="100" y="723"/>
      <point x="291" y="920"/>
      <point x="546" y="920" type="curve" smooth="yes"/>
      <point x="660" y="920"/>
      <point x="796" y="866"/>
      <point x="856" y="798" type="curve"/>
      <point x="856" y="824" type="line"/>
      <point x="796" y="890"/>
      <point x="661" y="940"/>
      <point x="546" y="940" type="curve" smooth="yes"/>
      <point x="279" y="940"/>
      <point x="80" y="735"/>
      <point x="80" y="460" type="curve" smooth="yes"/>
      <point x="80" y="185"/>
      <point x="279" y="-20"/>
    </contour>
  </outline>
</glyph>
<glyph name="e" format="2">
  <advance width="1004"/>
  <unicode hex="0065"/>
  <anchor x="502" y="0" name="bottom"/>
  <anchor x="500" y="-20" name="ogonek"/>
  <anchor x="502" y="920" name="top"/>
  <outline>
    <contour>
      <point x="500" y="-20" type="curve" smooth="yes"/>
      <point x="669" y="-20"/>
      <point x="784" y="48"/>
      <point x="898" y="214" type="curve"/>
      <point x="882" y="226" type="line"/>
      <point x="774" y="66"/>
      <point x="663" y="0"/>
      <point x="500" y="0" type="curve" smooth="yes"/>
      <point x="280" y="0"/>
      <point x="110" y="203"/>
      <point x="110" y="465" type="curve" smooth="yes"/>
      <point x="110" y="725"/>
      <point x="282" y="920"/>
      <point x="510" y="920" type="curve" smooth="yes"/>
      <point x="721" y="920"/>
      <point x="893" y="736"/>
      <point x="893" y="510" type="curve" smooth="yes"/>
      <point x="893" y="487"/>
      <point x="890" y="469"/>
      <point x="885" y="458" type="curve"/>
      <point x="900" y="476" type="line"/>
      <point x="104" y="476" type="line"/>
      <point x="104" y="456" type="line"/>
      <point x="910" y="456" type="line"/>
      <point x="913" y="477"/>
      <point x="914" y="495"/>
      <point x="914" y="508" type="curve" smooth="yes"/>
      <point x="914" y="745"/>
      <point x="732" y="940"/>
      <point x="510" y="940" type="curve" smooth="yes"/>
      <point x="270" y="940"/>
      <point x="90" y="736"/>
      <point x="90" y="464" type="curve" smooth="yes"/>
      <point x="90" y="189"/>
      <point x="267" y="-20"/>
    </contour>
  </outline>
</glyph>
<glyph name="f" format="2">
  <advance width="556"/>
  <unicode hex="0066"/>
  <anchor x="278" y="0" name="bottom"/>
  <anchor x="278" y="1600" name="top"/>
  <outline>
    <contour>
      <point x="190" y="0" type="line"/>
      <point x="210" y="0" type="line"/>
      <point x="210" y="900" type="line"/>
      <point x="490" y="900" type="line"/>
      <point x="490" y="920" type="line"/>
      <point x="210" y="920" type="line"/>
      <point x="210" y="1300" type="line" smooth="yes"/>
      <point x="210" y="1455"/>
      <point x="287" y="1556"/>
      <point x="406" y="1556" type="curve" smooth="yes"/>
      <point x="466" y="1556"/>
      <point x="511" y="1530"/>
      <point x="562" y="1466" type="curve"/>
      <point x="576" y="1480" type="line"/>
      <point x="526" y="1547"/>
      <point x="475" y="1576"/>
      <point x="406" y="1576" type="curve" smooth="yes"/>
      <point x="274" y="1576"/>
      <point x="190" y="1469"/>
      <point x="190" y="1300" type="curve" smooth="yes"/>
      <point x="190" y="920" type="line"/>
      <point x="100" y="920" type="line"/>
      <point x="100" y="900" type="line"/>
      <point x="190" y="900" type="line"/>
    </contour>
  </outline>
</glyph>
<glyph name="g" format="2">
  <advance width="1082"/>
  <unicode hex="0067"/>
  <anchor x="504" y="-440" name="bottom"/>
  <anchor x="646" y="920" name="top"/>
  <outline>
    <contour>
      <point x="504" y="-460" type="curve" smooth="yes"/>
      <point x="756" y="-460"/>
      <point x="922" y="-270"/>
      <point x="922" y="20" type="curve" smooth="yes"/>
      <point x="922" y="920" type="line"/>
      <point x="902" y="920" type="line"/>
      <point x="902" y="20" type="line" smooth="yes"/>
      <point x="902" y="-258"/>
      <point x="745" y="-440"/>
      <point x="504" y="-440" type="curve" smooth="yes"/>
      <point x="285" y="-440"/>
      <point x="140" y="-288"/>
      <point x="140" y="-60" type="curve"/>
      <point x="120" y="-60" type="line"/>
      <point x="120" y="-300"/>
      <point x="274" y="-460"/>
    </contour>
    <contour>
      <point x="516" y="-20" type="curve" smooth="yes"/>
      <point x="746" y="-20"/>
      <point x="915" y="183"/>
      <point x="915" y="460" type="curve" smooth="yes"/>
      <point x="915" y="738"/>
      <point x="747" y="940"/>
      <point x="516" y="940" type="curve" smooth="yes"/>
      <point x="272" y="940"/>
      <point x="90" y="735"/>
      <point x="90" y="460" type="curve" smooth="yes"/>
      <point x="90" y="191"/>
      <point x="277" y="-20"/>
    </contour>
    <contour>
      <point x="522" y="0" type="curve" smooth="yes"/>
      <point x="292" y="0"/>
      <point x="110" y="203"/>
      <point x="110" y="460" type="curve" smooth="yes"/>
      <point x="110" y="715"/>
      <point x="294" y="920"/>
      <point x="522" y="920" type="curve" smooth="yes"/>
      <point x="737" y="920"/>
      <point x="902" y="725"/>
      <point x="902" y="470" type="curve" smooth="yes"/>
      <point x="902" y="199"/>
      <point x="741" y="0"/>
    </contour>
  </outline>
</glyph>
<glyph name="h" format="2">
  <advance width="950"/>
  <unicode hex="0068"/>
  <anchor x="475" y="0" name="bottom"/>
  <anchor x="475" y="800" name="center"/>
  <anchor x="475" y="1400" name="top"/>
  <outline>
    <contour>
      <point x="170" y="0" type="line"/>
      <point x="190" y="0" type="line"/>
      <point x="190" y="1560" type="line"/>
      <point x="170" y="1560" type="line"/>
    </contour>
    <contour>
      <point x="760" y="0" type="line"/>
      <point x="780" y="0" type="line"/>
      <point x="780" y="640" type="line" smooth="yes"/>
      <point x="780" y="829"/>
      <point x="682" y="940"/>
      <point x="514" y="940" type="curve" smooth="yes"/>
      <point x="317" y="940"/>
      <point x="180" y="784"/>
      <point x="180" y="560" type="curve"/>
      <point x="190" y="560" type="line"/>
      <point x="190" y="764"/>
      <point x="331" y="920"/>
      <point x="514" y="920" type="curve" smooth="yes"/>
      <point x="668" y="920"/>
      <point x="760" y="815"/>
      <point x="760" y="640" type="curve" smooth="yes"/>
    </contour>
  </outline>
</glyph>
<glyph name="i" format="2">
  <advance width="360"/>
  <unicode hex="0069"/>
  <anchor x="180" y="0" name="bottom"/>
  <anchor x="190" y="0" name="ogonek"/>
  <anchor x="180" y="920" name="top"/>
  <outline>
    <contour>
      <point x="170" y="0" type="line"/>
      <point x="190" y="0" type="line"/>
      <point x="190" y="920" type="line"/>
      <point x="170" y="920" type="line"/>
    </contour>
    <contour>
      <point x="180" y="1368" type="curve" smooth="yes"/>
      <point x="193" y="1368"/>
      <point x="202" y="1377"/>
      <point x="202" y="1390" type="curve" smooth="yes"/>
      <point x="202" y="1403"/>
      <point x="193" y="1412"/>
      <point x="180" y="1412" type="curve" smooth="yes"/>
      <point x="167" y="1412"/>
      <point x="158" y="1403"/>
      <point x="158" y="1390" type="curve" smooth="yes"/>
      <point x="158" y="1377"/>
      <point x="167" y="1368"/>
    </contour>
  </outline>
</glyph>
<glyph name="j" format="2">
  <advance width="360"/>
  <unicode hex="006A"/>
  <anchor x="174" y="1414" name="top"/>
  <outline>
    <contour>
      <point x="-36" y="-440" type="curve" smooth="yes"/>
      <point x="96" y="-440"/>
      <point x="180" y="-333"/>
      <point x="180" y="-164" type="curve" smooth="yes"/>
      <point x="180" y="920" type="line"/>
      <point x="160" y="920" type="line"/>
      <point x="160" y="-164" type="line" smooth="yes"/>
      <point x="160" y="-319"/>
      <point x="83" y="-420"/>
      <point x="-36" y="-420" type="curve" smooth="yes"/>
      <point x="-96" y="-420"/>
      <point x="-141" y="-394"/>
      <point x="-192" y="-330" type="curve"/>
      <point x="-206" y="-344" type="line"/>
      <point x="-155" y="-412"/>
      <point x="-104" y="-440"/>
    </contour>
    <contour>
      <point x="174" y="1370" type="curve" smooth="yes"/>
      <point x="187" y="1370"/>
      <point x="196" y="1379"/>
      <point x="196" y="1392" type="curve" smooth="yes"/>
      <point x="196" y="1405"/>
      <point x="187" y="1414"/>
      <point x="174" y="1414" type="curve" smooth="yes"/>
      <point x="161" y="1414"/>
      <point x="152" y="1405"/>
      <point x="152" y="1392" type="curve" smooth="yes"/>
      <point x="152" y="1379"/>
      <point x="161" y="1370"/>
    </contour>
  </outline>
</glyph>
<glyph name="k" format="2">
  <advance width="744"/>
  <unicode hex="006B"/>
  <anchor x="372" y="0" name="bottom"/>
  <anchor x="372" y="1600" name="top"/>
  <outline>
    <contour>
      <point x="160" y="0" type="line"/>
      <point x="180" y="0" type="line"/>
      <point x="180" y="1560" type="line"/>
      <point x="160" y="1560" type="line"/>
    </contour>
    <contour>
      <point x="696" y="0" type="line"/>
      <point x="724" y="0" type="line"/>
      <point x="193" y="552" type="line"/>
      <point x="195" y="533" type="line"/>
      <point x="688" y="920" type="line"/>
      <point x="656" y="920" type="line"/>
      <point x="176" y="540" type="line"/>
    </contour>
  </outline>
</glyph>
<glyph name="l" format="2">
  <advance width="360"/>
  <unicode hex="006C"/>
  <anchor x="180" y="0" name="bottom"/>
  <anchor x="180" y="800" name="center"/>
  <anchor x="182" y="1560" name="top"/>
  <anchor x="340" y="1565" name="topright"/>
  <outline>
    <contour>
      <point x="170" y="0" type="line"/>
      <point x="190" y="0" type="line"/>
      <point x="190" y="1560" type="line"/>
      <point x="170" y="1560" type="line"/>
    </contour>
  </outline>
</glyph>
<glyph name="m" format="2">
  <advance width="1380"/>
  <unicode hex="006D"/>
  <anchor x="684" y="0" name="bottom"/>
  <anchor x="711" y="920" name="top"/>
  <outline>
    <contour>
      <point x="170" y="0" type="line"/>
      <point x="190" y="0" type="line"/>
      <point x="190" y="560" type="line" smooth="yes"/>
      <point x="190" y="751"/>
      <point x="323" y="920"/>
      <point x="474" y="920" type="curve" smooth="yes"/>
      <point x="599" y="920"/>
      <point x="680" y="810"/>
      <point x="680" y="640" type="curve" smooth="yes"/>
      <point x="680" y="0" type="line"/>
      <point x="700" y="0" type="line"/>
      <point x="700" y="560" type="line" smooth="yes"/>
      <point x="700" y="751"/>
      <point x="833" y="920"/>
      <point x="984" y="920" type="curve" smooth="yes"/>
      <point x="1109" y="920"/>
      <point x="1190" y="810"/>
      <point x="1190" y="640" type="curve" smooth="yes"/>
      <point x="1190" y="0" type="line"/>
      <point x="1210" y="0" type="line"/>
      <point x="1210" y="640" type="line" smooth="yes"/>
      <point x="1210" y="823"/>
      <point x="1122" y="940"/>
      <point x="984" y="940" type="curve" smooth="yes"/>
      <point x="853" y="940"/>
      <point x="739" y="832"/>
      <point x="699" y="670" type="curve"/>
      <point x="691" y="836"/>
      <point x="604" y="940"/>
      <point x="474" y="940" type="curve" smooth="yes"/>
      <point x="340" y="940"/>
      <point x="225" y="826"/>
      <point x="190" y="658" type="curve"/>
      <point x="190" y="920" type="line"/>
      <point x="170" y="920" type="line"/>
    </contour>
  </outline>
</glyph>
<glyph name="n" format="2">
  <advance width="950"/>
  <unicode hex="006E"/>
  <anchor x="445" y="0" name="bottom"/>
  <anchor x="514" y="940" name="top"/>
  <outline>
    <contour>
      <point x="170" y="0" type="line"/>
      <point x="190" y="0" type="line"/>
      <point x="190" y="560" type="line" smooth="yes"/>
      <point x="190" y="766"/>
      <point x="329" y="920"/>
      <point x="514" y="920" type="curve" smooth="yes"/>
      <point x="667" y="920"/>
      <point x="760" y="815"/>
      <point x="760" y="640" type="curve" smooth="yes"/>
      <point x="760" y="0" type="line"/>
      <point x="780" y="0" type="line"/>
      <point x="780" y="640" type="line" smooth="yes"/>
      <point x="780" y="829"/>
      <point x="682" y="940"/>
      <point x="514" y="940" type="curve" smooth="yes"/>
      <point x="350" y="940"/>
      <point x="228" y="833"/>
      <point x="190" y="657" type="curve"/>
      <point x="190" y="920" type="line"/>
      <point x="170" y="920" type="line"/>
    </contour>
  </outline>
</glyph>
<glyph name="o" format="2">
  <advance width="1112"/>
  <unicode hex="006F"/>
  <anchor x="556" y="-20" name="bottom"/>
  <anchor x="556" y="460" name="center"/>
  <anchor x="652" y="1" name="ogonek"/>
  <anchor x="556" y="940" name="top"/>
  <anchor x="1092" y="920" name="topright"/>
  <outline>
    <contour>
      <point x="556" y="-20" type="curve" smooth="yes"/>
      <point x="820" y="-20"/>
      <point x="1022" y="182"/>
      <point x="1022" y="460" type="curve" smooth="yes"/>
      <point x="1022" y="738"/>
      <point x="820" y="940"/>
      <point x="556" y="940" type="curve" smooth="yes"/>
      <point x="292" y="940"/>
      <point x="90" y="738"/>
      <point x="90" y="460" type="curve" smooth="yes"/>
      <point x="90" y="182"/>
      <point x="292" y="-20"/>
    </contour>
    <contour>
      <point x="556" y="0" type="curve" smooth="yes"/>
      <point x="306" y="0"/>
      <point x="110" y="192"/>
      <point x="110" y="460" type="curve" smooth="yes"/>
      <point x="110" y="728"/>
      <point x="306" y="920"/>
      <point x="556" y="920" type="curve" smooth="yes"/>
      <point x="806" y="920"/>
      <point x="1002" y="728"/>
      <point x="1002" y="460" type="curve" smooth="yes"/>
      <point x="1002" y="192"/>
      <point x="806" y="0"/>
    </contour>
  </outline>
</glyph>
<glyph name="p" format="2">
  <advance width="1082"/>
  <unicode hex="0070"/>
  <anchor x="541" y="0" name="bottom"/>
  <anchor x="541" y="920" name="top"/>
  <outline>
    <contour>
      <point x="160" y="-440" type="line"/>
      <point x="180" y="-440" type="line"/>
      <point x="180" y="920" type="line"/>
      <point x="160" y="920" type="line"/>
    </contour>
    <contour>
      <point x="566" y="-20" type="curve" smooth="yes"/>
      <point x="806" y="-20"/>
      <point x="992" y="166"/>
      <point x="992" y="460" type="curve" smooth="yes"/>
      <point x="992" y="754"/>
      <point x="806" y="940"/>
      <point x="566" y="940" type="curve" smooth="yes"/>
      <point x="320" y="940"/>
      <point x="170" y="698"/>
      <point x="170" y="460" type="curve" smooth="yes"/>
      <point x="170" y="222"/>
      <point x="320" y="-20"/>
    </contour>
    <contour>
      <point x="560" y="0" type="curve" smooth="yes"/>
      <point x="342" y="0"/>
      <point x="180" y="228"/>
      <point x="180" y="460" type="curve" smooth="yes"/>
      <point x="180" y="692"/>
      <point x="342" y="920"/>
      <point x="560" y="920" type="curve" smooth="yes"/>
      <point x="792" y="920"/>
      <point x="972" y="742"/>
      <point x="972" y="460" type="curve" smooth="yes"/>
      <point x="972" y="178"/>
      <point x="792" y="0"/>
    </contour>
  </outline>
</glyph>
<glyph name="q" format="2">
  <advance width="1082"/>
  <unicode hex="0071"/>
  <anchor x="541" y="0" name="bottom"/>
  <anchor x="541" y="920" name="top"/>
  <outline>
    <contour>
      <point x="516" y="-20" type="curve" smooth="yes"/>
      <point x="745" y="-20"/>
      <point x="912" y="182"/>
      <point x="912" y="460" type="curve" smooth="yes"/>
      <point x="912" y="739"/>
      <point x="747" y="940"/>
      <point x="516" y="940" type="curve" smooth="yes"/>
      <point x="272" y="940"/>
      <point x="90" y="735"/>
      <point x="90" y="460" type="curve" smooth="yes"/>
      <point x="90" y="191"/>
      <point x="277" y="-20"/>
    </contour>
    <contour>
      <point x="522" y="0" type="curve" smooth="yes"/>
      <point x="291" y="0"/>
      <point x="110" y="202"/>
      <point x="110" y="460" type="curve" smooth="yes"/>
      <point x="110" y="717"/>
      <point x="292" y="920"/>
      <point x="522" y="920" type="curve" smooth="yes"/>
      <point x="735" y="920"/>
      <point x="902" y="718"/>
      <point x="902" y="460" type="curve" smooth="yes"/>
      <point x="902" y="194"/>
      <point x="742" y="0"/>
    </contour>
    <contour>
      <point x="902" y="-440" type="line"/>
      <point x="922" y="-440" type="line"/>
      <point x="922" y="920" type="line"/>
      <point x="902" y="920" type="line"/>
    </contour>
  </outline>
</glyph>
<glyph name="r" format="2">
  <advance width="580"/>
  <unicode hex="0072"/>
  <anchor x="290" y="0" name="bottom"/>
  <anchor x="394" y="920" name="top"/>
  <outline>
    <contour>
      <point x="170" y="0" type="line"/>
      <point x="190" y="0" type="line"/>
      <point x="190" y="920" type="line"/>
      <point x="170" y="920" type="line"/>
    </contour>
    <contour>
      <point x="180" y="560" type="curve"/>
      <point x="190" y="560" type="line"/>
      <point x="190" y="774"/>
      <point x="285" y="920"/>
      <point x="424" y="920" type="curve" smooth="yes"/>
      <point x="464" y="920"/>
      <point x="498" y="908"/>
      <point x="538" y="880" type="curve"/>
      <point x="550" y="896" type="line"/>
      <point x="506" y="927"/>
      <point x="469" y="940"/>
      <point x="424" y="940" type="curve" smooth="yes"/>
      <point x="274" y="940"/>
      <point x="180" y="794"/>
    </contour>
  </outline>
</glyph>
<glyph name="s" format="2">
  <advance width="806"/>
  <unicode hex="0073"/>
  <anchor x="424" y="-3" name="bottom"/>
  <anchor x="403" y="920" name="top"/>
  <outline>
    <contour>
      <point x="422" y="-20" type="curve" smooth="yes"/>
      <point x="576" y="-20"/>
      <point x="694" y="88"/>
      <point x="695" y="229" type="curve" smooth="yes"/>
      <point x="696" y="348"/>
      <point x="616" y="423"/>
      <point x="441" y="476" type="curve" smooth="yes"/>
      <point x="271" y="528"/>
      <point x="185" y="604"/>
      <point x="185" y="720" type="curve" smooth="yes"/>
      <point x="185" y="841"/>
      <point x="281" y="920"/>
      <point x="428" y="920" type="curve" smooth="yes"/>
      <point x="514" y="920"/>
      <point x="587" y="893"/>
      <point x="670" y="831" type="curve"/>
      <point x="681" y="844" type="line"/>
      <point x="600" y="908"/>
      <point x="519" y="938"/>
      <point x="428" y="938" type="curve" smooth="yes"/>
      <point x="270" y="938"/>
      <point x="165" y="851"/>
      <point x="165" y="720" type="curve" smooth="yes"/>
      <point x="165" y="593"/>
      <point x="255" y="510"/>
      <point x="436" y="454" type="curve" smooth="yes"/>
      <point x="600" y="403"/>
      <point x="674" y="337"/>
      <point x="675" y="229" type="curve" smooth="yes"/>
      <point x="676" y="97"/>
      <point x="567" y="-2"/>
      <point x="422" y="-2" type="curve" smooth="yes"/>
      <point x="321" y="-2"/>
      <point x="225" y="46"/>
      <point x="120" y="148" type="curve"/>
      <point x="107" y="137" type="line"/>
      <point x="214" y="31"/>
      <point x="316" y="-20"/>
    </contour>
  </outline>
</glyph>
<glyph name="u" format="2">
  <advance width="950"/>
  <unicode hex="0075"/>
  <anchor x="475" y="0" name="bottom"/>
  <anchor x="780" y="0" name="ogonek"/>
  <anchor x="475" y="920" name="top"/>
  <anchor x="930" y="920" name="topright"/>
  <outline>
    <contour>
      <point x="436" y="-20" type="curve" smooth="yes"/>
      <point x="600" y="-20"/>
      <point x="722" y="86"/>
      <point x="760" y="263" type="curve"/>
      <point x="760" y="0" type="line"/>
      <point x="780" y="0" type="line"/>
      <point x="780" y="920" type="line"/>
      <point x="760" y="920" type="line"/>
      <point x="760" y="360" type="line" smooth="yes"/>
      <point x="760" y="154"/>
      <point x="621" y="0"/>
      <point x="436" y="0" type="curve" smooth="yes"/>
      <point x="280" y="0"/>
      <point x="190" y="109"/>
      <point x="190" y="300" type="curve" smooth="yes"/>
      <point x="190" y="920" type="line"/>
      <point x="170" y="920" type="line"/>
      <point x="170" y="300" type="line" smooth="yes"/>
      <point x="170" y="94"/>
      <point x="265" y="-20"/>
    </contour>
  </outline>
</glyph>
<glyph name="v" format="2">
  <advance width="840"/>
  <unicode hex="0076"/>
  <anchor x="420" y="0" name="bottom"/>
  <anchor x="420" y="920" name="top"/>
  <outline>
    <contour>
      <point x="420" y="-30" type="line"/>
      <point x="820" y="920" type="line"/>
      <point x="796" y="920" type="line"/>
      <point x="420" y="20" type="line"/>
      <point x="44" y="920" type="line"/>
      <point x="20" y="920" type="line"/>
    </contour>
  </outline>
</glyph>
<glyph name="w" format="2">
  <advance width="1240"/>
  <unicode hex="0077"/>
  <anchor x="620" y="0" name="bottom"/>
  <anchor x="620" y="920" name="top"/>
  <outline>
    <contour>
      <point x="324" y="-30" type="line"/>
      <point x="610" y="882" type="line"/>
      <point x="916" y="-30" type="line"/>
      <point x="1210" y="920" type="line"/>
      <point x="1190" y="920" type="line"/>
      <point x="916" y="36" type="line"/>
      <point x="610" y="950" type="line"/>
      <point x="324" y="36" type="line"/>
      <point x="50" y="920" type="line"/>
      <point x="30" y="920" type="line"/>
    </contour>
  </outline>
</glyph>
<glyph name="x" format="2">
  <advance width="760"/>
  <unicode hex="0078"/>
  <anchor x="380" y="0" name="bottom"/>
  <anchor x="380" y="920" name="top"/>
  <outline>
    <contour>
      <point x="20" y="0" type="line"/>
      <point x="50" y="0" type="line"/>
      <point x="380" y="458" type="line"/>
      <point x="710" y="0" type="line"/>
      <point x="740" y="0" type="line"/>
      <point x="394" y="474" type="line"/>
      <point x="718" y="920" type="line"/>
      <point x="690" y="920" type="line"/>
      <point x="380" y="490" type="line"/>
      <point x="70" y="920" type="line"/>
      <point x="40" y="920" type="line"/>
      <point x="366" y="474" type="line"/>
    </contour>
  </outline>
</glyph>
<glyph name="y" format="2">
  <advance width="850"/>
  <unicode hex="0079"/>
  <anchor x="425" y="0" name="bottom"/>
  <anchor x="460" y="920" name="top"/>
  <outline>
    <contour>
      <point x="208" y="-440" type="line"/>
      <point x="230" y="-440" type="line"/>
      <point x="830" y="920" type="line"/>
      <point x="808" y="920" type="line"/>
      <point x="420" y="40" type="line"/>
      <point x="442" y="40" type="line"/>
      <point x="44" y="920" type="line"/>
      <point x="20" y="920" type="line"/>
      <point x="420" y="40" type="line"/>
    </contour>
  </outline>
</glyph>
<glyph name="z" format="2">
  <advance width="860"/>
  <unicode hex="007A"/>
  <anchor x="430" y="0" name="bottom"/>
  <anchor x="430" y="460" name="center"/>
  <anchor x="485" y="920" name="top"/>
  <outline>
    <contour>
      <point x="40" y="0" type="line"/>
      <point x="820" y="0" type="line"/>
      <point x="820" y="20" type="line"/>
      <point x="82" y="20" type="line"/>
      <point x="800" y="920" type="line"/>
      <point x="80" y="920" type="line"/>
      <point x="80" y="900" type="line"/>
      <point x="758" y="900" type="line"/>
    </contour>
  </outline>
</glyph>
<glyph name="braceleft" format="2">
  <advance width="562"/>
  <unicode hex="007B"/>
  <outline>
    <contour>
      <point x="462" y="-400" type="curve" smooth="yes"/>
      <point x="502" y="-400" type="line"/>
      <point x="502" y="-380" type="line"/>
      <point x="462" y="-380" type="line" smooth="yes"/>
      <point x="336" y="-380"/>
      <point x="296" y="-318"/>
      <point x="296" y="-120" type="curve" smooth="yes"/>
      <point x="296" y="300" type="line" smooth="yes"/>
      <point x="296" y="450"/>
      <point x="232" y="584"/>
      <point x="160" y="584" type="curve"/>
      <point x="160" y="576" type="line"/>
      <point x="232" y="576"/>
      <point x="296" y="710"/>
      <point x="296" y="860" type="curve" smooth="yes"/>
      <point x="296" y="1280" type="line" smooth="yes"/>
      <point x="296" y="1478"/>
      <point x="336" y="1540"/>
      <point x="462" y="1540" type="curve" smooth="yes"/>
      <point x="502" y="1540" type="line"/>
      <point x="502" y="1560" type="line"/>
      <point x="462" y="1560" type="line" smooth="yes"/>
      <point x="322" y="1560"/>
      <point x="276" y="1490"/>
      <point x="276" y="1280" type="curve" smooth="yes"/>
      <point x="276" y="860" type="line" smooth="yes"/>
      <point x="276" y="724"/>
      <point x="228" y="613"/>
      <point x="160" y="590" type="curve"/>
      <point x="160" y="570" type="line"/>
      <point x="228" y="547"/>
      <point x="276" y="436"/>
      <point x="276" y="300" type="curve" smooth="yes"/>
      <point x="276" y="-120" type="line" smooth="yes"/>
      <point x="276" y="-330"/>
      <point x="322" y="-400"/>
    </contour>
  </outline>
</glyph>
<glyph name="braceright" format="2">
  <advance width="562"/>
  <unicode hex="007D"/>
  <outline>
    <contour>
      <point x="60" y="-400" type="line"/>
      <point x="100" y="-400" type="line" smooth="yes"/>
      <point x="240" y="-400"/>
      <point x="286" y="-330"/>
      <point x="286" y="-120" type="curve" smooth="yes"/>
      <point x="286" y="300" type="line" smooth="yes"/>
      <point x="286" y="436"/>
      <point x="334" y="547"/>
      <point x="402" y="570" type="curve"/>
      <point x="402" y="590" type="line"/>
      <point x="334" y="613"/>
      <point x="286" y="724"/>
      <point x="286" y="860" type="curve" smooth="yes"/>
      <point x="286" y="1280" type="line" smooth="yes"/>
      <point x="286" y="1490"/>
      <point x="240" y="1560"/>
      <point x="100" y="1560" type="curve" smooth="yes"/>
      <point x="60" y="1560" type="line"/>
      <point x="60" y="1540" type="line"/>
      <point x="100" y="1540" type="line" smooth="yes"/>
      <point x="226" y="1540"/>
      <point x="266" y="1478"/>
      <point x="266" y="1280" type="curve" smooth="yes"/>
      <point x="266" y="860" type="line" smooth="yes"/>
      <point x="266" y="710"/>
      <point x="330" y="576"/>
      <point x="402" y="576" type="curve"/>
      <point x="402" y="584" type="line"/>
      <point x="330" y="584"/>
      <point x="266" y="450"/>
      <point x="266" y="300" type="curve" smooth="yes"/>
      <point x="266" y="-120" type="line" smooth="yes"/>
      <point x="266" y="-318"/>
      <point x="226" y="-380"/>
      <point x="100" y="-380" type="curve" smooth="yes"/>
      <point x="60" y="-380" type="line"/>
    </contour>
  </outline>
</glyph>
<glyph name="asciitilde" format="2">
  <advance width="1150"/>
  <unicode hex="007E"/>
  <outline>
    <contour>
      <point x="828" y="344" type="curve" smooth="yes"/>
      <point x="957" y="344"/>
      <point x="1030" y="473"/>
      <point x="992" y="636" type="curve"/>
      <point x="972" y="642" type="line"/>
      <point x="1009" y="474"/>
      <point x="952" y="364"/>
      <point x="828" y="364" type="curve" smooth="yes"/>
      <point x="748" y="364"/>
      <point x="696" y="396"/>
      <point x="604" y="500" type="curve" smooth="yes"/>
      <point x="514" y="602"/>
      <point x="424" y="654"/>
      <point x="338" y="654" type="curve" smooth="yes"/>
      <point x="201" y="654"/>
      <point x="112" y="512"/>
      <point x="156" y="362" type="curve"/>
      <point x="176" y="356" type="line"/>
      <point x="135" y="511"/>
      <point x="206" y="634"/>
      <point x="338" y="634" type="curve" smooth="yes"/>
      <point x="424" y="634"/>
      <point x="487" y="597"/>
      <point x="588" y="486" type="curve" smooth="yes"/>
      <point x="678" y="387"/>
      <point x="752" y="344"/>
    </contour>
  </outline>
</glyph>
<glyph name="exclamdown" format="2">
  <advance width="600"/>
  <unicode hex="00A1"/>
  <outline>
    <contour>
      <point x="324" y="-490" type="line"/>
      <point x="352" y="-490" type="line"/>
      <point x="344" y="510" type="line"/>
      <point x="332" y="510" type="line"/>
    </contour>
    <contour>
      <point x="338" y="886" type="curve" smooth="yes"/>
      <point x="350" y="886"/>
      <point x="360" y="894"/>
      <point x="360" y="908" type="curve" smooth="yes"/>
      <point x="360" y="922"/>
      <point x="350" y="930"/>
      <point x="338" y="930" type="curve" smooth="yes"/>
      <point x="326" y="930"/>
      <point x="316" y="922"/>
      <point x="316" y="908" type="curve" smooth="yes"/>
      <point x="316" y="894"/>
      <point x="326" y="886"/>
    </contour>
  </outline>
</glyph>
<glyph name="cent" format="2">
  <advance width="1160"/>
  <unicode hex="00A2"/>
  <outline>
    <contour>
      <point x="622" y="-224" type="line"/>
      <point x="650" y="-224" type="line"/>
      <point x="641" y="-20" type="line"/>
      <point x="785" y="-19"/>
      <point x="904" y="46"/>
      <point x="948" y="96" type="curve"/>
      <point x="948" y="122" type="line"/>
      <point x="906" y="72"/>
      <point x="786" y="0"/>
      <point x="638" y="0" type="curve" smooth="yes"/>
      <point x="384" y="0"/>
      <point x="192" y="198"/>
      <point x="192" y="460" type="curve" smooth="yes"/>
      <point x="192" y="722"/>
      <point x="384" y="920"/>
      <point x="638" y="920" type="curve" smooth="yes"/>
      <point x="786" y="920"/>
      <point x="906" y="848"/>
      <point x="948" y="798" type="curve"/>
      <point x="948" y="824" type="line"/>
      <point x="906" y="872"/>
      <point x="785" y="939"/>
      <point x="641" y="940" type="curve"/>
      <point x="650" y="1156" type="line"/>
      <point x="622" y="1156" type="line"/>
      <point x="631" y="940" type="line"/>
      <point x="371" y="937"/>
      <point x="172" y="736"/>
      <point x="172" y="460" type="curve" smooth="yes"/>
      <point x="172" y="184"/>
      <point x="371" y="-17"/>
      <point x="631" y="-20" type="curve"/>
    </contour>
  </outline>
</glyph>
<glyph name="sterling" format="2">
  <advance width="1160"/>
  <unicode hex="00A3"/>
  <outline>
    <contour>
      <point x="188" y="0" type="curve"/>
      <point x="994" y="0" type="line"/>
      <point x="994" y="20" type="line"/>
      <point x="208" y="20" type="line"/>
      <point x="216" y="0" type="line"/>
      <point x="435" y="213"/>
      <point x="536" y="380"/>
      <point x="536" y="528" type="curve" smooth="yes"/>
      <point x="536" y="742"/>
      <point x="292" y="830"/>
      <point x="292" y="1076" type="curve" smooth="yes"/>
      <point x="292" y="1238"/>
      <point x="416" y="1400"/>
      <point x="622" y="1400" type="curve" smooth="yes"/>
      <point x="864" y="1400"/>
      <point x="956" y="1154"/>
      <point x="962" y="996" type="curve"/>
      <point x="982" y="996" type="line"/>
      <point x="972" y="1156"/>
      <point x="888" y="1420"/>
      <point x="622" y="1420" type="curve" smooth="yes"/>
      <point x="404" y="1420"/>
      <point x="272" y="1254"/>
      <point x="272" y="1076" type="curve" smooth="yes"/>
      <point x="272" y="824"/>
      <point x="516" y="732"/>
      <point x="516" y="528" type="curve" smooth="yes"/>
      <point x="516" y="352"/>
      <point x="376" y="194"/>
    </contour>
    <contour>
      <point x="174" y="590" type="line"/>
      <point x="794" y="590" type="line"/>
      <point x="794" y="610" type="line"/>
      <point x="174" y="610" type="line"/>
    </contour>
  </outline>
</glyph>
<glyph name="currency" format="2">
  <advance width="1120"/>
  <unicode hex="00A4"/>
  <outline>
    <contour>
      <point x="108" y="106" type="line"/>
      <point x="246" y="248" type="line"/>
      <point x="328" y="167"/>
      <point x="439" y="120"/>
      <point x="560" y="120" type="curve" smooth="yes"/>
      <point x="686" y="120"/>
      <point x="800" y="171"/>
      <point x="883" y="257" type="curve"/>
      <point x="1033" y="106" type="line"/>
      <point x="1052" y="127" type="line"/>
      <point x="901" y="277" type="line"/>
      <point x="972" y="360"/>
      <point x="1016" y="472"/>
      <point x="1016" y="600" type="curve" smooth="yes"/>
      <point x="1016" y="728"/>
      <point x="972" y="840"/>
      <point x="901" y="923" type="curve"/>
      <point x="1052" y="1073" type="line"/>
      <point x="1033" y="1094" type="line"/>
      <point x="883" y="943" type="line"/>
      <point x="800" y="1029"/>
      <point x="686" y="1080"/>
      <point x="560" y="1080" type="curve" smooth="yes"/>
      <point x="439" y="1080"/>
      <point x="328" y="1033"/>
      <point x="246" y="952" type="curve"/>
      <point x="108" y="1094" type="line"/>
      <point x="86" y="1073" type="line"/>
      <point x="228" y="934" type="line"/>
      <point x="151" y="849"/>
      <point x="104" y="733"/>
      <point x="104" y="600" type="curve" smooth="yes"/>
      <point x="104" y="467"/>
      <point x="151" y="351"/>
      <point x="228" y="266" type="curve"/>
      <point x="86" y="127" type="line"/>
    </contour>
    <contour>
      <point x="560" y="140" type="curve" smooth="yes"/>
      <point x="320" y="140"/>
      <point x="124" y="338"/>
      <point x="124" y="600" type="curve" smooth="yes"/>
      <point x="124" y="862"/>
      <point x="320" y="1060"/>
      <point x="560" y="1060" type="curve" smooth="yes"/>
      <point x="800" y="1060"/>
      <point x="996" y="862"/>
      <point x="996" y="600" type="curve" smooth="yes"/>
      <point x="996" y="338"/>
      <point x="800" y="140"/>
    </contour>
  </outline>
</glyph>
<glyph name="yen" format="2">
  <advance width="1130"/>
  <unicode hex="00A5"/>
  <outline>
    <contour>
      <point x="516" y="0" type="line"/>
      <point x="538" y="0" type="line"/>
      <point x="538" y="530" type="line"/>
      <point x="1014" y="1400" type="line"/>
      <point x="988" y="1400" type="line"/>
      <point x="528" y="562" type="line"/>
      <point x="86" y="1400" type="line"/>
      <point x="60" y="1400" type="line"/>
      <point x="516" y="534" type="line"/>
    </contour>
    <contour>
      <point x="60" y="290" type="line"/>
      <point x="1014" y="290" type="line"/>
      <point x="1014" y="310" type="line"/>
      <point x="60" y="310" type="line"/>
    </contour>
    <contour>
      <point x="60" y="540" type="line"/>
      <point x="1014" y="540" type="line"/>
      <point x="1014" y="560" type="line"/>
      <point x="60" y="560" type="line"/>
    </contour>
  </outline>
</glyph>
<glyph name="brokenbar" format="2">
  <advance width="420"/>
  <unicode hex="00A6"/>
  <outline>
    <contour>
      <point x="200" y="910" type="line"/>
      <point x="220" y="910" type="line"/>
      <point x="220" y="1390" type="line"/>
      <point x="200" y="1390" type="line"/>
    </contour>
    <contour>
      <point x="200" y="10" type="line"/>
      <point x="220" y="10" type="line"/>
      <point x="220" y="490" type="line"/>
      <point x="200" y="490" type="line"/>
    </contour>
  </outline>
</glyph>
<glyph name="section" format="2">
  <advance width="796"/>
  <unicode hex="00A7"/>
  <outline>
    <contour>
      <point x="430" y="-20" type="curve" smooth="yes"/>
      <point x="613" y="-20"/>
      <point x="736" y="68"/>
      <point x="736" y="200" type="curve" smooth="yes"/>
      <point x="736" y="319"/>
      <point x="664" y="386"/>
      <point x="432" y="482" type="curve" smooth="yes"/>
      <point x="216" y="571"/>
      <point x="138" y="634"/>
      <point x="138" y="718" type="curve" smooth="yes"/>
      <point x="138" y="831"/>
      <point x="282" y="943"/>
      <point x="446" y="959" type="curve"/>
      <point x="426" y="966" type="line"/>
      <point x="252" y="957"/>
      <point x="118" y="849"/>
      <point x="118" y="718" type="curve" smooth="yes"/>
      <point x="118" y="626"/>
      <point x="193" y="563"/>
      <point x="418" y="466" type="curve" smooth="yes"/>
      <point x="638" y="371"/>
      <point x="716" y="301"/>
      <point x="716" y="200" type="curve" smooth="yes"/>
      <point x="716" y="80"/>
      <point x="601" y="0"/>
      <point x="430" y="0" type="curve" smooth="yes"/>
      <point x="244" y="0"/>
      <point x="106" y="99"/>
      <point x="76" y="254" type="curve"/>
      <point x="60" y="246" type="line"/>
      <point x="90" y="85"/>
      <point x="235" y="-20"/>
    </contour>
    <contour>
      <point x="432" y="470" type="line"/>
      <point x="610" y="472"/>
      <point x="736" y="576"/>
      <point x="736" y="720" type="curve" smooth="yes"/>
      <point x="736" y="821"/>
      <point x="679" y="870"/>
      <point x="446" y="966" type="curve" smooth="yes"/>
      <point x="205" y="1066"/>
      <point x="138" y="1117"/>
      <point x="138" y="1198" type="curve" smooth="yes"/>
      <point x="138" y="1307"/>
      <point x="261" y="1400"/>
      <point x="406" y="1400" type="curve" smooth="yes"/>
      <point x="540" y="1400"/>
      <point x="677" y="1326"/>
      <point x="714" y="1232" type="curve"/>
      <point x="728" y="1240" type="line"/>
      <point x="690" y="1347"/>
      <point x="559" y="1420"/>
      <point x="406" y="1420" type="curve" smooth="yes"/>
      <point x="244" y="1420"/>
      <point x="118" y="1323"/>
      <point x="118" y="1198" type="curve" smooth="yes"/>
      <point x="118" y="1106"/>
      <point x="198" y="1043"/>
      <point x="432" y="950" type="curve" smooth="yes"/>
      <point x="655" y="862"/>
      <point x="716" y="812"/>
      <point x="716" y="720" type="curve" smooth="yes"/>
      <point x="716" y="583"/>
      <point x="597" y="490"/>
      <point x="410" y="480" type="curve"/>
    </contour>
  </outline>
</glyph>
<glyph name="copyright" format="2">
  <advance width="1600"/>
  <unicode hex="00A9"/>
  <outline>
    <contour>
      <point x="800" y="-20" type="curve" smooth="yes"/>
      <point x="1213" y="-20"/>
      <point x="1520" y="287"/>
      <point x="1520" y="700" type="curve" smooth="yes"/>
      <point x="1520" y="1113"/>
      <point x="1213" y="1420"/>
      <point x="800" y="1420" type="curve" smooth="yes"/>
      <point x="387" y="1420"/>
      <point x="80" y="1113"/>
      <point x="80" y="700" type="curve" smooth="yes"/>
      <point x="80" y="287"/>
      <point x="387" y="-20"/>
    </contour>
    <contour>
      <point x="800" y="0" type="curve" smooth="yes"/>
      <point x="404" y="0"/>
      <point x="100" y="304"/>
      <point x="100" y="700" type="curve" smooth="yes"/>
      <point x="100" y="1096"/>
      <point x="404" y="1400"/>
      <point x="800" y="1400" type="curve" smooth="yes"/>
      <point x="1196" y="1400"/>
      <point x="1500" y="1096"/>
      <point x="1500" y="700" type="curve" smooth="yes"/>
      <point x="1500" y="304"/>
      <point x="1196" y="0"/>
    </contour>
    <contour>
      <point x="798" y="270" type="curve" smooth="yes"/>
      <point x="904" y="270"/>
      <point x="996" y="303"/>
      <point x="1068" y="366" type="curve"/>
      <point x="1062" y="392" type="line"/>
      <point x="994" y="326"/>
      <point x="904" y="292"/>
      <point x="797" y="292" type="curve" smooth="yes"/>
      <point x="570" y="292"/>
      <point x="422" y="453"/>
      <point x="422" y="700" type="curve" smooth="yes"/>
      <point x="422" y="950"/>
      <point x="568" y="1108"/>
      <point x="797" y="1108" type="curve" smooth="yes"/>
      <point x="905" y="1108"/>
      <point x="997" y="1074"/>
      <point x="1062" y="1010" type="curve"/>
      <point x="1068" y="1034" type="line"/>
      <point x="997" y="1097"/>
      <point x="904" y="1130"/>
      <point x="798" y="1130" type="curve" smooth="yes"/>
      <point x="563" y="1130"/>
      <point x="402" y="956"/>
      <point x="402" y="700" type="curve" smooth="yes"/>
      <point x="402" y="439"/>
      <point x="558" y="270"/>
    </contour>
  </outline>
</glyph>
<glyph name="ordfeminine" format="2">
  <advance width="476"/>
  <unicode hex="00AA"/>
  <outline>
    <contour>
      <point x="204" y="910" type="curve" smooth="yes"/>
      <point x="282" y="910"/>
      <point x="346" y="958"/>
      <point x="366" y="1034" type="curve"/>
      <point x="366" y="920" type="line"/>
      <point x="376" y="920" type="line"/>
      <point x="376" y="1250" type="line" smooth="yes"/>
      <point x="376" y="1346"/>
      <point x="328" y="1400"/>
      <point x="244" y="1400" type="curve" smooth="yes"/>
      <point x="188" y="1400"/>
      <point x="132" y="1376"/>
      <point x="88" y="1332" type="curve"/>
      <point x="96" y="1324" type="line"/>
      <point x="140" y="1368"/>
      <point x="190" y="1390"/>
      <point x="244" y="1390" type="curve" smooth="yes"/>
      <point x="324" y="1390"/>
      <point x="366" y="1342"/>
      <point x="366" y="1250" type="curve" smooth="yes"/>
      <point x="366" y="1158" type="line"/>
      <point x="335" y="1185"/>
      <point x="287" y="1200"/>
      <point x="232" y="1200" type="curve" smooth="yes"/>
      <point x="121" y="1200"/>
      <point x="52" y="1145"/>
      <point x="52" y="1056" type="curve" smooth="yes"/>
      <point x="52" y="972"/>
      <point x="116" y="910"/>
    </contour>
    <contour>
      <point x="204" y="920" type="curve" smooth="yes"/>
      <point x="122" y="920"/>
      <point x="60" y="978"/>
      <point x="60" y="1056" type="curve" smooth="yes"/>
      <point x="60" y="1136"/>
      <point x="130" y="1192"/>
      <point x="232" y="1192" type="curve" smooth="yes"/>
      <point x="286" y="1192"/>
      <point x="332" y="1176"/>
      <point x="366" y="1146" type="curve"/>
      <point x="366" y="1080" type="line" smooth="yes"/>
      <point x="366" y="991"/>
      <point x="294" y="920"/>
    </contour>
  </outline>
</glyph>
<glyph name="guillemetleft" format="2">
  <advance width="970"/>
  <unicode hex="00AB"/>
  <outline>
    <contour>
      <point x="496" y="40" type="line"/>
      <point x="510" y="54" type="line"/>
      <point x="100" y="510" type="line"/>
      <point x="510" y="966" type="line"/>
      <point x="496" y="980" type="line"/>
      <point x="80" y="510" type="line"/>
    </contour>
    <contour>
      <point x="816" y="40" type="line"/>
      <point x="830" y="54" type="line"/>
      <point x="420" y="510" type="line"/>
      <point x="830" y="966" type="line"/>
      <point x="816" y="980" type="line"/>
      <point x="400" y="510" type="line"/>
    </contour>
  </outline>
</glyph>
<glyph name="logicalnot" format="2">
  <advance width="1240"/>
  <unicode hex="00AC"/>
  <outline>
    <contour>
      <point x="1090" y="350" type="line"/>
      <point x="1110" y="350" type="line"/>
      <point x="1110" y="750" type="line"/>
      <point x="130" y="750" type="line"/>
      <point x="130" y="730" type="line"/>
      <point x="1090" y="730" type="line"/>
    </contour>
  </outline>
</glyph>
<glyph name="registered" format="2">
  <advance width="1600"/>
  <unicode hex="00AE"/>
  <outline>
    <contour>
      <point x="800" y="-20" type="curve" smooth="yes"/>
      <point x="1213" y="-20"/>
      <point x="1520" y="287"/>
      <point x="1520" y="700" type="curve" smooth="yes"/>
      <point x="1520" y="1113"/>
      <point x="1213" y="1420"/>
      <point x="800" y="1420" type="curve" smooth="yes"/>
      <point x="387" y="1420"/>
      <point x="80" y="1113"/>
      <point x="80" y="700" type="curve" smooth="yes"/>
      <point x="80" y="287"/>
      <point x="387" y="-20"/>
    </contour>
    <contour>
      <point x="800" y="0" type="curve" smooth="yes"/>
      <point x="404" y="0"/>
      <point x="100" y="304"/>
      <point x="100" y="700" type="curve" smooth="yes"/>
      <point x="100" y="1096"/>
      <point x="404" y="1400"/>
      <point x="800" y="1400" type="curve" smooth="yes"/>
      <point x="1196" y="1400"/>
      <point x="1500" y="1096"/>
      <point x="1500" y="700" type="curve" smooth="yes"/>
      <point x="1500" y="304"/>
      <point x="1196" y="0"/>
    </contour>
    <contour>
      <point x="600" y="300" type="line"/>
      <point x="620" y="300" type="line"/>
      <point x="620" y="676" type="line"/>
      <point x="754" y="676" type="line"/>
      <point x="1015" y="300" type="line"/>
      <point x="1042" y="300" type="line"/>
      <point x="779" y="676" type="line"/>
      <point x="893" y="676"/>
      <point x="1022" y="777"/>
      <point x="1022" y="908" type="curve" smooth="yes"/>
      <point x="1022" y="1051"/>
      <point x="913" y="1140"/>
      <point x="738" y="1140" type="curve" smooth="yes"/>
      <point x="600" y="1140" type="line"/>
    </contour>
    <contour>
      <point x="620" y="693" type="line"/>
      <point x="620" y="1120" type="line"/>
      <point x="740" y="1120" type="line" smooth="yes"/>
      <point x="906" y="1120"/>
      <point x="1002" y="1042"/>
      <point x="1002" y="908" type="curve" smooth="yes"/>
      <point x="1002" y="787"/>
      <point x="897" y="693"/>
      <point x="764" y="693" type="curve" smooth="yes"/>
    </contour>
  </outline>
</glyph>
<glyph name="degree" format="2">
  <advance width="556"/>
  <unicode hex="00B0"/>
  <outline>
    <contour>
      <point x="278" y="960" type="curve" smooth="yes"/>
      <point x="415" y="960"/>
      <point x="516" y="1061"/>
      <point x="516" y="1200" type="curve" smooth="yes"/>
      <point x="516" y="1339"/>
      <point x="415" y="1440"/>
      <point x="278" y="1440" type="curve" smooth="yes"/>
      <point x="141" y="1440"/>
      <point x="40" y="1339"/>
      <point x="40" y="1200" type="curve" smooth="yes"/>
      <point x="40" y="1061"/>
      <point x="141" y="960"/>
    </contour>
    <contour>
      <point x="278" y="980" type="curve" smooth="yes"/>
      <point x="154" y="980"/>
      <point x="60" y="1074"/>
      <point x="60" y="1200" type="curve" smooth="yes"/>
      <point x="60" y="1326"/>
      <point x="154" y="1420"/>
      <point x="278" y="1420" type="curve" smooth="yes"/>
      <point x="402" y="1420"/>
      <point x="496" y="1326"/>
      <point x="496" y="1200" type="curve" smooth="yes"/>
      <point x="496" y="1074"/>
      <point x="402" y="980"/>
    </contour>
  </outline>
</glyph>
<glyph name="plusminus" format="2">
  <advance width="1220"/>
  <unicode hex="00B1"/>
  <outline>
    <contour>
      <point x="600" y="300" type="line"/>
      <point x="620" y="300" type="line"/>
      <point x="620" y="760" type="line"/>
      <point x="1090" y="760" type="line"/>
      <point x="1090" y="780" type="line"/>
      <point x="620" y="780" type="line"/>
      <point x="620" y="1240" type="line"/>
      <point x="600" y="1240" type="line"/>
      <point x="600" y="780" type="line"/>
      <point x="130" y="780" type="line"/>
      <point x="130" y="760" type="line"/>
      <point x="600" y="760" type="line"/>
    </contour>
    <contour>
      <point x="130" y="0" type="line"/>
      <point x="1090" y="0" type="line"/>
      <point x="1090" y="20" type="line"/>
      <point x="130" y="20" type="line"/>
    </contour>
  </outline>
</glyph>
<glyph name="micro" format="2">
  <advance width="950"/>
  <unicode hex="00B5"/>
  <outline>
    <contour>
      <point x="170" y="-640" type="line"/>
      <point x="190" y="-640" type="line"/>
      <point x="190" y="148" type="line"/>
      <point x="224" y="42"/>
      <point x="301" y="-20"/>
      <point x="436" y="-20" type="curve" smooth="yes"/>
      <point x="597" y="-20"/>
      <point x="724" y="96"/>
      <point x="760" y="263" type="curve"/>
      <point x="760" y="0" type="line"/>
      <point x="780" y="0" type="line"/>
      <point x="780" y="920" type="line"/>
      <point x="760" y="920" type="line"/>
      <point x="760" y="360" type="line" smooth="yes"/>
      <point x="760" y="170"/>
      <point x="618" y="0"/>
      <point x="436" y="0" type="curve" smooth="yes"/>
      <point x="256" y="0"/>
      <point x="190" y="118"/>
      <point x="190" y="300" type="curve" smooth="yes"/>
      <point x="190" y="920" type="line"/>
      <point x="170" y="920" type="line"/>
    </contour>
  </outline>
</glyph>
<glyph name="paragraph" format="2">
  <advance width="896"/>
  <unicode hex="00B6"/>
  <outline>
    <contour>
      <point x="576" y="-440" type="line"/>
      <point x="596" y="-440" type="line"/>
      <point x="596" y="1380" type="line"/>
      <point x="756" y="1380" type="line"/>
      <point x="756" y="-440" type="line"/>
      <point x="776" y="-440" type="line"/>
      <point x="776" y="1400" type="line"/>
      <point x="576" y="1400" type="line" smooth="yes"/>
      <point x="326" y="1400"/>
      <point x="120" y="1248"/>
      <point x="120" y="970" type="curve" smooth="yes"/>
      <point x="120" y="692"/>
      <point x="326" y="540"/>
      <point x="576" y="540" type="curve"/>
    </contour>
  </outline>
</glyph>
<glyph name="periodcentered" format="2">
  <advance width="484"/>
  <unicode hex="00B7"/>
  <outline>
    <contour>
      <point x="242" y="420" type="curve" smooth="yes"/>
      <point x="254" y="420"/>
      <point x="264" y="428"/>
      <point x="264" y="442" type="curve" smooth="yes"/>
      <point x="264" y="456"/>
      <point x="254" y="464"/>
      <point x="242" y="464" type="curve" smooth="yes"/>
      <point x="230" y="464"/>
      <point x="220" y="456"/>
      <point x="220" y="442" type="curve" smooth="yes"/>
      <point x="220" y="428"/>
      <point x="230" y="420"/>
    </contour>
  </outline>
</glyph>
<glyph name="ordmasculine" format="2">
  <advance width="556"/>
  <unicode hex="00BA"/>
  <outline>
    <contour>
      <point x="278" y="920" type="curve" smooth="yes"/>
      <point x="414" y="920"/>
      <point x="516" y="1020"/>
      <point x="516" y="1160" type="curve" smooth="yes"/>
      <point x="516" y="1300"/>
      <point x="414" y="1400"/>
      <point x="278" y="1400" type="curve" smooth="yes"/>
      <point x="142" y="1400"/>
      <point x="40" y="1300"/>
      <point x="40" y="1160" type="curve" smooth="yes"/>
      <point x="40" y="1020"/>
      <point x="142" y="920"/>
    </contour>
    <contour>
      <point x="278" y="940" type="curve" smooth="yes"/>
      <point x="158" y="940"/>
      <point x="60" y="1030"/>
      <point x="60" y="1160" type="curve" smooth="yes"/>
      <point x="60" y="1290"/>
      <point x="158" y="1380"/>
      <point x="278" y="1380" type="curve" smooth="yes"/>
      <point x="398" y="1380"/>
      <point x="496" y="1290"/>
      <point x="496" y="1160" type="curve" smooth="yes"/>
      <point x="496" y="1030"/>
      <point x="398" y="940"/>
    </contour>
  </outline>
</glyph>
<glyph name="guillemetright" format="2">
  <advance width="970"/>
  <unicode hex="00BB"/>
  <outline>
    <contour>
      <point x="154" y="40" type="line"/>
      <point x="570" y="510" type="line"/>
      <point x="154" y="980" type="line"/>
      <point x="140" y="966" type="line"/>
      <point x="550" y="510" type="line"/>
      <point x="140" y="54" type="line"/>
    </contour>
    <contour>
      <point x="474" y="40" type="line"/>
      <point x="890" y="510" type="line"/>
      <point x="474" y="980" type="line"/>
      <point x="460" y="966" type="line"/>
      <point x="870" y="510" type="line"/>
      <point x="460" y="54" type="line"/>
    </contour>
  </outline>
</glyph>
<glyph name="questiondown" format="2">
  <advance width="1084"/>
  <unicode hex="00BF"/>
  <outline>
    <contour>
      <point x="556" y="-20" type="curve" smooth="yes"/>
      <point x="754" y="-20"/>
      <point x="862" y="74"/>
      <point x="954" y="214" type="curve"/>
      <point x="936" y="226" type="line"/>
      <point x="848" y="88"/>
      <point x="740" y="0"/>
      <point x="556" y="0" type="curve" smooth="yes"/>
      <point x="316" y="0"/>
      <point x="180" y="158"/>
      <point x="180" y="360" type="curve" smooth="yes"/>
      <point x="180" y="552"/>
      <point x="380" y="710"/>
      <point x="640" y="710" type="curve" smooth="yes"/>
      <point x="640" y="710" type="line"/>
      <point x="630" y="1060" type="line"/>
      <point x="614" y="1060" type="line"/>
      <point x="616" y="726" type="line"/>
      <point x="360" y="722"/>
      <point x="160" y="556"/>
      <point x="160" y="360" type="curve" smooth="yes"/>
      <point x="160" y="142"/>
      <point x="306" y="-20"/>
    </contour>
    <contour>
      <point x="634" y="1376" type="curve" smooth="yes"/>
      <point x="646" y="1376"/>
      <point x="656" y="1384"/>
      <point x="656" y="1398" type="curve" smooth="yes"/>
      <point x="656" y="1412"/>
      <point x="646" y="1420"/>
      <point x="634" y="1420" type="curve" smooth="yes"/>
      <point x="622" y="1420"/>
      <point x="612" y="1412"/>
      <point x="612" y="1398" type="curve" smooth="yes"/>
      <point x="612" y="1384"/>
      <point x="622" y="1376"/>
    </contour>
  </outline>
</glyph>
<glyph name="AE" format="2">
  <advance width="1792"/>
  <unicode hex="00C6"/>
  <anchor x="980" y="0" name="bottom"/>
  <anchor x="1229" y="1400" name="top"/>
  <outline>
    <contour>
      <point x="10" y="0" type="line"/>
      <point x="36" y="0" type="line"/>
      <point x="420" y="560" type="line"/>
      <point x="980" y="560" type="line"/>
      <point x="980" y="0" type="line"/>
      <point x="1632" y="0" type="line"/>
      <point x="1632" y="20" type="line"/>
      <point x="1002" y="20" type="line"/>
      <point x="1002" y="768" type="line"/>
      <point x="1592" y="768" type="line"/>
      <point x="1592" y="788" type="line"/>
      <point x="1002" y="788" type="line"/>
      <point x="1002" y="1380" type="line"/>
      <point x="1632" y="1380" type="line"/>
      <point x="1632" y="1400" type="line"/>
      <point x="970" y="1400" type="line"/>
    </contour>
    <contour>
      <point x="434" y="580" type="line"/>
      <point x="980" y="1377" type="line"/>
      <point x="980" y="580" type="line"/>
    </contour>
  </outline>
</glyph>
<glyph name="Eth" format="2">
  <advance width="1360"/>
  <unicode hex="00D0"/>
  <outline>
    <contour>
      <point x="180" y="0" type="line"/>
      <point x="500" y="0" type="line" smooth="yes"/>
      <point x="904" y="0"/>
      <point x="1170" y="278"/>
      <point x="1170" y="700" type="curve" smooth="yes"/>
      <point x="1170" y="1122"/>
      <point x="904" y="1400"/>
      <point x="500" y="1400" type="curve" smooth="yes"/>
      <point x="180" y="1400" type="line"/>
      <point x="180" y="710" type="line"/>
      <point x="10" y="710" type="line"/>
      <point x="10" y="690" type="line"/>
      <point x="180" y="690" type="line"/>
    </contour>
    <contour>
      <point x="202" y="22" type="line"/>
      <point x="202" y="690" type="line"/>
      <point x="610" y="690" type="line"/>
      <point x="610" y="710" type="line"/>
      <point x="202" y="710" type="line"/>
      <point x="202" y="1378" type="line"/>
      <point x="500" y="1378" type="line" smooth="yes"/>
      <point x="892" y="1378"/>
      <point x="1148" y="1110"/>
      <point x="1148" y="700" type="curve" smooth="yes"/>
      <point x="1148" y="290"/>
      <point x="892" y="22"/>
      <point x="500" y="22" type="curve" smooth="yes"/>
    </contour>
  </outline>
</glyph>
<glyph name="multiply" format="2">
  <advance width="1156"/>
  <unicode hex="00D7"/>
  <outline>
    <contour>
      <point x="176" y="92" type="line"/>
      <point x="578" y="496" type="line"/>
      <point x="980" y="92" type="line"/>
      <point x="994" y="106" type="line"/>
      <point x="590" y="508" type="line"/>
      <point x="996" y="912" type="line"/>
      <point x="982" y="926" type="line"/>
      <point x="578" y="520" type="line"/>
      <point x="174" y="926" type="line"/>
      <point x="160" y="912" type="line"/>
      <point x="566" y="508" type="line"/>
      <point x="162" y="106" type="line"/>
    </contour>
  </outline>
</glyph>
<glyph name="Oslash" format="2">
  <advance width="1580"/>
  <unicode hex="00D8"/>
  <anchor x="790" y="0" name="bottom"/>
  <anchor x="774" y="700" name="center"/>
  <anchor x="876" y="10" name="ogonek"/>
  <anchor x="790" y="1400" name="top"/>
  <anchor x="20" y="1400" name="topleft"/>
  <anchor x="1528" y="1400" name="topright"/>
  <outline>
    <contour>
      <point x="148" y="-66" type="line"/>
      <point x="335" y="153" type="line"/>
      <point x="338" y="157" type="line"/>
      <point x="1241" y="1214" type="line"/>
      <point x="1246" y="1220" type="line"/>
      <point x="1446" y="1454" type="line"/>
      <point x="1424" y="1466" type="line"/>
      <point x="1227" y="1235" type="line"/>
      <point x="1224" y="1231" type="line"/>
      <point x="322" y="173" type="line"/>
      <point x="319" y="169" type="line"/>
      <point x="128" y="-54" type="line"/>
    </contour>
    <contour>
      <point x="774" y="-16" type="curve" smooth="yes"/>
      <point x="1165" y="-16"/>
      <point x="1448" y="285"/>
      <point x="1448" y="700" type="curve" smooth="yes"/>
      <point x="1448" y="1115"/>
      <point x="1165" y="1416"/>
      <point x="774" y="1416" type="curve" smooth="yes"/>
      <point x="383" y="1416"/>
      <point x="100" y="1115"/>
      <point x="100" y="700" type="curve" smooth="yes"/>
      <point x="100" y="285"/>
      <point x="383" y="-16"/>
    </contour>
    <contour>
      <point x="774" y="6" type="curve" smooth="yes"/>
      <point x="394" y="6"/>
      <point x="122" y="296"/>
      <point x="122" y="700" type="curve" smooth="yes"/>
      <point x="122" y="1104"/>
      <point x="394" y="1394"/>
      <point x="774" y="1394" type="curve" smooth="yes"/>
      <point x="1154" y="1394"/>
      <point x="1426" y="1104"/>
      <point x="1426" y="700" type="curve" smooth="yes"/>
      <point x="1426" y="296"/>
      <point x="1154" y="6"/>
    </contour>
  </outline>
</glyph>
<glyph name="Thorn" format="2">
  <advance width="1040"/>
  <unicode hex="00DE"/>
  <anchor x="520" y="0" name="bottom"/>
  <anchor x="520" y="1400" name="top"/>
  <outline>
    <contour>
      <point x="160" y="0" type="line"/>
      <point x="180" y="0" type="line"/>
      <point x="180" y="280" type="line"/>
      <point x="480" y="280" type="line" smooth="yes"/>
      <point x="750" y="280"/>
      <point x="956" y="442"/>
      <point x="956" y="700" type="curve" smooth="yes"/>
      <point x="956" y="958"/>
      <point x="750" y="1120"/>
      <point x="480" y="1120" type="curve" smooth="yes"/>
      <point x="180" y="1120" type="line"/>
      <point x="180" y="1400" type="line"/>
      <point x="160" y="1400" type="line"/>
    </contour>
    <contour>
      <point x="180" y="300" type="line"/>
      <point x="180" y="1100" type="line"/>
      <point x="480" y="1100" type="line" smooth="yes"/>
      <point x="730" y="1100"/>
      <point x="934" y="952"/>
      <point x="934" y="700" type="curve" smooth="yes"/>
      <point x="934" y="468"/>
      <point x="730" y="300"/>
      <point x="480" y="300" type="curve" smooth="yes"/>
    </contour>
  </outline>
</glyph>
<glyph name="germandbls" format="2">
  <advance width="1061"/>
  <unicode hex="00DF"/>
  <outline>
    <contour>
      <point x="600" y="-20" type="curve" smooth="yes"/>
      <point x="817" y="-20"/>
      <point x="971" y="156"/>
      <point x="971" y="403" type="curve" smooth="yes"/>
      <point x="971" y="798"/>
      <point x="559" y="697"/>
      <point x="559" y="849" type="curve" smooth="yes"/>
      <point x="559" y="970"/>
      <point x="819" y="1034"/>
      <point x="819" y="1277" type="curve" smooth="yes"/>
      <point x="819" y="1456"/>
      <point x="678" y="1588"/>
      <point x="506" y="1588" type="curve" smooth="yes"/>
      <point x="301" y="1588"/>
      <point x="160" y="1400"/>
      <point x="160" y="1150" type="curve" smooth="yes"/>
      <point x="160" y="0" type="line"/>
      <point x="180" y="0" type="line"/>
      <point x="180" y="1160" type="line" smooth="yes"/>
      <point x="180" y="1393"/>
      <point x="315" y="1568"/>
      <point x="506" y="1568" type="curve" smooth="yes"/>
      <point x="668" y="1568"/>
      <point x="799" y="1441"/>
      <point x="799" y="1277" type="curve" smooth="yes"/>
      <point x="799" y="1047"/>
      <point x="539" y="988"/>
      <point x="539" y="849" type="curve" smooth="yes"/>
      <point x="539" y="673"/>
      <point x="951" y="788"/>
      <point x="951" y="399" type="curve" smooth="yes"/>
      <point x="951" y="170"/>
      <point x="811" y="-4"/>
      <point x="600" y="-4" type="curve" smooth="yes"/>
      <point x="492" y="-4"/>
      <point x="345" y="41"/>
      <point x="280" y="104" type="curve"/>
      <point x="270" y="93" type="line"/>
      <point x="334" y="26"/>
      <point x="489" y="-20"/>
    </contour>
  </outline>
</glyph>
<glyph name="ae" format="2">
  <advance width="1650"/>
  <unicode hex="00E6"/>
  <anchor x="825" y="0" name="bottom"/>
  <anchor x="825" y="920" name="top"/>
  <outline>
    <contour>
      <point x="388" y="-20" type="curve" smooth="yes"/>
      <point x="581" y="-20"/>
      <point x="708" y="118"/>
      <point x="733" y="356" type="curve"/>
      <point x="722" y="356" type="line"/>
      <point x="756" y="117"/>
      <point x="903" y="-20"/>
      <point x="1126" y="-20" type="curve" smooth="yes"/>
      <point x="1307" y="-20"/>
      <point x="1468" y="67"/>
      <point x="1558" y="214" type="curve"/>
      <point x="1542" y="226" type="line"/>
      <point x="1448" y="83"/>
      <point x="1295" y="0"/>
      <point x="1126" y="0" type="curve" smooth="yes"/>
      <point x="885" y="0"/>
      <point x="729" y="181"/>
      <point x="731" y="460" type="curve"/>
      <point x="722" y="456" type="line"/>
      <point x="1569" y="456" type="line"/>
      <point x="1574" y="482"/>
      <point x="1574" y="487"/>
      <point x="1574" y="506" type="curve" smooth="yes"/>
      <point x="1574" y="748"/>
      <point x="1393" y="940"/>
      <point x="1166" y="940" type="curve" smooth="yes"/>
      <point x="948" y="940"/>
      <point x="761" y="783"/>
      <point x="721" y="565" type="curve"/>
      <point x="728" y="565" type="line"/>
      <point x="742" y="816"/>
      <point x="659" y="940"/>
      <point x="476" y="940" type="curve" smooth="yes"/>
      <point x="361" y="940"/>
      <point x="243" y="891"/>
      <point x="154" y="806" type="curve"/>
      <point x="168" y="790" type="line"/>
      <point x="252" y="873"/>
      <point x="361" y="920"/>
      <point x="470" y="920" type="curve" smooth="yes"/>
      <point x="626" y="920"/>
      <point x="710" y="822"/>
      <point x="710" y="640" type="curve" smooth="yes"/>
      <point x="710" y="466" type="line"/>
      <point x="721" y="469" type="line"/>
      <point x="665" y="527"/>
      <point x="564" y="562"/>
      <point x="450" y="562" type="curve" smooth="yes"/>
      <point x="228" y="562"/>
      <point x="80" y="443"/>
      <point x="80" y="264" type="curve" smooth="yes"/>
      <point x="80" y="99"/>
      <point x="209" y="-20"/>
    </contour>
    <contour>
      <point x="388" y="0" type="curve" smooth="yes"/>
      <point x="222" y="0"/>
      <point x="100" y="112"/>
      <point x="100" y="264" type="curve" smooth="yes"/>
      <point x="100" y="429"/>
      <point x="242" y="542"/>
      <point x="450" y="542" type="curve" smooth="yes"/>
      <point x="563" y="542"/>
      <point x="663" y="507"/>
      <point x="717" y="449" type="curve"/>
      <point x="710" y="461" type="line"/>
      <point x="718" y="358" type="line"/>
      <point x="720" y="396" type="line"/>
      <point x="699" y="146"/>
      <point x="577" y="0"/>
    </contour>
    <contour>
      <point x="730" y="471" type="line"/>
      <point x="730" y="720"/>
      <point x="921" y="920"/>
      <point x="1158" y="920" type="curve" smooth="yes"/>
      <point x="1378" y="920"/>
      <point x="1552" y="736"/>
      <point x="1553" y="503" type="curve" smooth="yes"/>
      <point x="1553" y="486"/>
      <point x="1552" y="478"/>
      <point x="1549" y="469" type="curve"/>
      <point x="1562" y="476" type="line"/>
      <point x="722" y="476" type="line"/>
    </contour>
  </outline>
</glyph>
<glyph name="eth" format="2">
  <advance width="1072"/>
  <unicode hex="00F0"/>
  <outline>
    <contour>
      <point x="536" y="-20" type="curve" smooth="yes"/>
      <point x="798" y="-20"/>
      <point x="972" y="164"/>
      <point x="972" y="440" type="curve" smooth="yes"/>
      <point x="972" y="638"/>
      <point x="890" y="740"/>
      <point x="412" y="1400" type="curve"/>
      <point x="398" y="1388" type="line"/>
      <point x="669" y="1021"/>
      <point x="729" y="935"/>
      <point x="873" y="708" type="curve"/>
      <point x="872" y="710" type="line"/>
      <point x="786" y="817"/>
      <point x="661" y="874"/>
      <point x="514" y="874" type="curve" smooth="yes"/>
      <point x="286" y="874"/>
      <point x="100" y="679"/>
      <point x="100" y="440" type="curve" smooth="yes"/>
      <point x="100" y="164"/>
      <point x="274" y="-20"/>
    </contour>
    <contour>
      <point x="536" y="0" type="curve" smooth="yes"/>
      <point x="292" y="0"/>
      <point x="120" y="182"/>
      <point x="120" y="440" type="curve" smooth="yes"/>
      <point x="120" y="665"/>
      <point x="300" y="854"/>
      <point x="514" y="854" type="curve" smooth="yes"/>
      <point x="766" y="854"/>
      <point x="952" y="678"/>
      <point x="952" y="440" type="curve" smooth="yes"/>
      <point x="952" y="184"/>
      <point x="779" y="0"/>
    </contour>
    <contour>
      <point x="357" y="1041" type="line"/>
      <point x="851" y="1261" type="line"/>
      <point x="843" y="1279" type="line"/>
      <point x="349" y="1059" type="line"/>
    </contour>
  </outline>
</glyph>
<glyph name="divide" format="2">
  <advance width="1246"/>
  <unicode hex="00F7"/>
  <outline>
    <contour>
      <point x="620" y="880" type="curve" smooth="yes"/>
      <point x="632" y="880"/>
      <point x="642" y="888"/>
      <point x="642" y="902" type="curve" smooth="yes"/>
      <point x="642" y="916"/>
      <point x="632" y="924"/>
      <point x="620" y="924" type="curve" smooth="yes"/>
      <point x="608" y="924"/>
      <point x="598" y="916"/>
      <point x="598" y="902" type="curve" smooth="yes"/>
      <point x="598" y="888"/>
      <point x="608" y="880"/>
    </contour>
    <contour>
      <point x="120" y="500" type="line"/>
      <point x="1120" y="500" type="line"/>
      <point x="1120" y="520" type="line"/>
      <point x="120" y="520" type="line"/>
    </contour>
    <contour>
      <point x="620" y="40" type="curve" smooth="yes"/>
      <point x="632" y="40"/>
      <point x="642" y="48"/>
      <point x="642" y="62" type="curve" smooth="yes"/>
      <point x="642" y="76"/>
      <point x="632" y="84"/>
      <point x="620" y="84" type="curve" smooth="yes"/>
      <point x="608" y="84"/>
      <point x="598" y="76"/>
      <point x="598" y="62" type="curve" smooth="yes"/>
      <point x="598" y="48"/>
      <point x="608" y="40"/>
    </contour>
  </outline>
</glyph>
<glyph name="oslash" format="2">
  <advance width="1112"/>
  <unicode hex="00F8"/>
  <anchor x="556" y="-20" name="bottom"/>
  <anchor x="556" y="460" name="center"/>
  <anchor x="652" y="1" name="ogonek"/>
  <anchor x="556" y="940" name="top"/>
  <anchor x="1092" y="920" name="topright"/>
  <outline>
    <contour>
      <point x="556" y="-20" type="curve" smooth="yes"/>
      <point x="820" y="-20"/>
      <point x="1022" y="182"/>
      <point x="1022" y="460" type="curve" smooth="yes"/>
      <point x="1022" y="738"/>
      <point x="820" y="940"/>
      <point x="556" y="940" type="curve" smooth="yes"/>
      <point x="292" y="940"/>
      <point x="90" y="738"/>
      <point x="90" y="460" type="curve" smooth="yes"/>
      <point x="90" y="182"/>
      <point x="292" y="-20"/>
    </contour>
    <contour>
      <point x="556" y="0" type="curve" smooth="yes"/>
      <point x="306" y="0"/>
      <point x="110" y="192"/>
      <point x="110" y="460" type="curve" smooth="yes"/>
      <point x="110" y="728"/>
      <point x="306" y="920"/>
      <point x="556" y="920" type="curve" smooth="yes"/>
      <point x="806" y="920"/>
      <point x="1002" y="728"/>
      <point x="1002" y="460" type="curve" smooth="yes"/>
      <point x="1002" y="192"/>
      <point x="806" y="0"/>
    </contour>
    <contour>
      <point x="135" y="12" type="line"/>
      <point x="232" y="115" type="line"/>
      <point x="237" y="119" type="line"/>
      <point x="894" y="776" type="line"/>
      <point x="902" y="783" type="line"/>
      <point x="1022" y="901" type="line"/>
      <point x="1010" y="916" type="line"/>
      <point x="889" y="796" type="line"/>
      <point x="884" y="790" type="line"/>
      <point x="227" y="133" type="line"/>
      <point x="221" y="126" type="line"/>
      <point x="119" y="26" type="line"/>
    </contour>
  </outline>
</glyph>
<glyph name="thorn" format="2">
  <advance width="1082"/>
  <unicode hex="00FE"/>
  <anchor x="541" y="0" name="bottom"/>
  <anchor x="541" y="920" name="top"/>
  <outline>
    <contour>
      <point x="160" y="-440" type="line"/>
      <point x="180" y="-440" type="line"/>
      <point x="180" y="1560" type="line"/>
      <point x="160" y="1560" type="line"/>
    </contour>
    <contour>
      <point x="566" y="-20" type="curve" smooth="yes"/>
      <point x="808" y="-20"/>
      <point x="992" y="187"/>
      <point x="992" y="460" type="curve" smooth="yes"/>
      <point x="992" y="731"/>
      <point x="807" y="940"/>
      <point x="566" y="940" type="curve" smooth="yes"/>
      <point x="339" y="940"/>
      <point x="170" y="735"/>
      <point x="170" y="460" type="curve" smooth="yes"/>
      <point x="170" y="178"/>
      <point x="334" y="-20"/>
    </contour>
    <contour>
      <point x="560" y="0" type="curve" smooth="yes"/>
      <point x="344" y="0"/>
      <point x="180" y="199"/>
      <point x="180" y="460" type="curve" smooth="yes"/>
      <point x="180" y="723"/>
      <point x="343" y="920"/>
      <point x="560" y="920" type="curve" smooth="yes"/>
      <point x="794" y="920"/>
      <point x="972" y="721"/>
      <point x="972" y="460" type="curve" smooth="yes"/>
      <point x="972" y="206"/>
      <point x="787" y="0"/>
    </contour>
  </outline>
</glyph>
<glyph name="Hbar" format="2">
  <advance width="1294"/>
  <unicode hex="0126"/>
  <anchor x="647" y="0" name="bottom"/>
  <anchor x="647" y="700" name="center"/>
  <anchor x="647" y="1400" name="top"/>
  <anchor x="20" y="1400" name="topleft"/>
  <outline>
    <contour>
      <point x="180" y="0" type="line"/>
      <point x="202" y="0" type="line"/>
      <point x="202" y="754" type="line"/>
      <point x="1092" y="754" type="line"/>
      <point x="1092" y="0" type="line"/>
      <point x="1114" y="0" type="line"/>
      <point x="1114" y="954" type="line"/>
      <point x="1173" y="954" type="line"/>
      <point x="1173" y="974" type="line"/>
      <point x="1114" y="974" type="line"/>
      <point x="1114" y="1400" type="line"/>
      <point x="1092" y="1400" type="line"/>
      <point x="1092" y="974" type="line"/>
      <point x="202" y="974" type="line"/>
      <point x="202" y="1400" type="line"/>
      <point x="180" y="1400" type="line"/>
      <point x="180" y="974" type="line"/>
      <point x="121" y="974" type="line"/>
      <point x="121" y="954" type="line"/>
      <point x="180" y="954" type="line"/>
    </contour>
    <contour>
      <point x="202" y="774" type="line"/>
      <point x="202" y="954" type="line"/>
      <point x="1092" y="954" type="line"/>
      <point x="1092" y="774" type="line"/>
    </contour>
  </outline>
</glyph>
<glyph name="hbar" format="2">
  <advance width="1087"/>
  <unicode hex="0127"/>
  <anchor x="612" y="0" name="bottom"/>
  <anchor x="612" y="800" name="center"/>
  <anchor x="612" y="1400" name="top"/>
  <outline>
    <contour>
      <point x="307" y="0" type="line"/>
      <point x="327" y="0" type="line"/>
      <point x="327" y="1560" type="line"/>
      <point x="307" y="1560" type="line"/>
    </contour>
    <contour>
      <point x="170" y="1220" type="line"/>
      <point x="570" y="1220" type="line"/>
      <point x="570" y="1240" type="line"/>
      <point x="170" y="1240" type="line"/>
    </contour>
    <contour>
      <point x="897" y="0" type="line"/>
      <point x="917" y="0" type="line"/>
      <point x="917" y="640" type="line" smooth="yes"/>
      <point x="917" y="829"/>
      <point x="819" y="940"/>
      <point x="651" y="940" type="curve" smooth="yes"/>
      <point x="454" y="940"/>
      <point x="317" y="784"/>
      <point x="317" y="560" type="curve"/>
      <point x="327" y="560" type="line"/>
      <point x="327" y="764"/>
      <point x="468" y="920"/>
      <point x="651" y="920" type="curve" smooth="yes"/>
      <point x="805" y="920"/>
      <point x="897" y="815"/>
      <point x="897" y="640" type="curve" smooth="yes"/>
    </contour>
  </outline>
</glyph>
<glyph name="idotless" format="2">
  <advance width="360"/>
  <unicode hex="0131"/>
  <anchor x="180" y="0" name="bottom"/>
  <anchor x="190" y="0" name="ogonek"/>
  <anchor x="180" y="920" name="top"/>
  <outline>
    <contour>
      <point x="170" y="0" type="line"/>
      <point x="190" y="0" type="line"/>
      <point x="190" y="920" type="line"/>
      <point x="170" y="920" type="line"/>
    </contour>
  </outline>
</glyph>
<glyph name="Lslash" format="2">
  <advance width="860"/>
  <unicode hex="0141"/>
  <anchor x="455" y="0" name="bottom"/>
  <anchor x="190" y="710" name="center"/>
  <anchor x="470" y="1410" name="top"/>
  <anchor x="840" y="1400" name="topright"/>
  <outline>
    <contour>
      <point x="180" y="0" type="line"/>
      <point x="820" y="0" type="line"/>
      <point x="820" y="20" type="line"/>
      <point x="200" y="20" type="line"/>
      <point x="200" y="1400" type="line"/>
      <point x="180" y="1400" type="line"/>
    </contour>
    <contour>
      <point x="34" y="811" type="line"/>
      <point x="407" y="1053" type="line"/>
      <point x="396" y="1069" type="line"/>
      <point x="23" y="827" type="line"/>
    </contour>
  </outline>
</glyph>
<glyph name="eng" format="2">
  <advance width="950"/>
  <unicode hex="014B"/>
  <outline>
    <contour>
      <point x="564" y="-440" type="curve" smooth="yes"/>
      <point x="702" y="-440"/>
      <point x="780" y="-340"/>
      <point x="780" y="-164" type="curve" smooth="yes"/>
      <point x="780" y="640" type="line" smooth="yes"/>
      <point x="780" y="836"/>
      <point x="688" y="940"/>
      <point x="514" y="940" type="curve" smooth="yes"/>
      <point x="356" y="940"/>
      <point x="227" y="827"/>
      <point x="190" y="657" type="curve"/>
      <point x="190" y="920" type="line"/>
      <point x="170" y="920" type="line"/>
      <point x="170" y="0" type="line"/>
      <point x="190" y="0" type="line"/>
      <point x="190" y="560" type="line" smooth="yes"/>
      <point x="190" y="756"/>
      <point x="338" y="920"/>
      <point x="514" y="920" type="curve" smooth="yes"/>
      <point x="676" y="920"/>
      <point x="760" y="825"/>
      <point x="760" y="640" type="curve" smooth="yes"/>
      <point x="760" y="-164" type="line" smooth="yes"/>
      <point x="760" y="-324"/>
      <point x="687" y="-420"/>
      <point x="564" y="-420" type="curve" smooth="yes"/>
      <point x="508" y="-420"/>
      <point x="456" y="-390"/>
      <point x="408" y="-330" type="curve"/>
      <point x="394" y="-344" type="line"/>
      <point x="441" y="-406"/>
      <point x="501" y="-440"/>
    </contour>
  </outline>
</glyph>
<glyph name="OE" format="2">
  <advance width="1902"/>
  <unicode hex="0152"/>
  <anchor x="951" y="0" name="bottom"/>
  <anchor x="1070" y="1400" name="top"/>
  <outline>
    <contour>
      <point x="780" y="0" type="curve" smooth="yes"/>
      <point x="1742" y="0" type="line"/>
      <point x="1742" y="20" type="line"/>
      <point x="1052" y="20" type="line"/>
      <point x="1052" y="770" type="line"/>
      <point x="1700" y="770" type="line"/>
      <point x="1700" y="790" type="line"/>
      <point x="1052" y="790" type="line"/>
      <point x="1052" y="1380" type="line"/>
      <point x="1740" y="1380" type="line"/>
      <point x="1740" y="1400" type="line"/>
      <point x="780" y="1400" type="line" smooth="yes"/>
      <point x="368" y="1400"/>
      <point x="80" y="1113"/>
      <point x="80" y="700" type="curve" smooth="yes"/>
      <point x="80" y="288"/>
      <point x="368" y="0"/>
    </contour>
    <contour>
      <point x="780" y="20" type="line" smooth="yes"/>
      <point x="390" y="20"/>
      <point x="100" y="310"/>
      <point x="100" y="700" type="curve" smooth="yes"/>
      <point x="100" y="1091"/>
      <point x="390" y="1380"/>
      <point x="780" y="1380" type="curve" smooth="yes"/>
      <point x="1030" y="1380" type="line"/>
      <point x="1030" y="20" type="line"/>
    </contour>
  </outline>
</glyph>
<glyph name="oe" format="2">
  <advance width="1852"/>
  <unicode hex="0153"/>
  <anchor x="926" y="0" name="bottom"/>
  <anchor x="926" y="920" name="top"/>
  <outline>
    <contour>
      <point x="506" y="-20" type="curve" smooth="yes"/>
      <point x="718" y="-20"/>
      <point x="896" y="159"/>
      <point x="914" y="388" type="curve"/>
      <point x="906" y="388" type="line"/>
      <point x="930" y="148"/>
      <point x="1108" y="-20"/>
      <point x="1336" y="-20" type="curve" smooth="yes"/>
      <point x="1512" y="-20"/>
      <point x="1641" y="53"/>
      <point x="1746" y="212" type="curve"/>
      <point x="1730" y="226" type="line"/>
      <point x="1642" y="78"/>
      <point x="1507" y="0"/>
      <point x="1336" y="0" type="curve" smooth="yes"/>
      <point x="1096" y="0"/>
      <point x="926" y="190"/>
      <point x="925" y="459" type="curve"/>
      <point x="911" y="456" type="line"/>
      <point x="1758" y="456" type="line"/>
      <point x="1761" y="471"/>
      <point x="1762" y="486"/>
      <point x="1762" y="506" type="curve" smooth="yes"/>
      <point x="1762" y="743"/>
      <point x="1569" y="940"/>
      <point x="1336" y="940" type="curve" smooth="yes"/>
      <point x="1108" y="940"/>
      <point x="934" y="774"/>
      <point x="905" y="531" type="curve"/>
      <point x="914" y="531" type="line"/>
      <point x="895" y="762"/>
      <point x="718" y="940"/>
      <point x="506" y="940" type="curve" smooth="yes"/>
      <point x="262" y="940"/>
      <point x="90" y="742"/>
      <point x="90" y="460" type="curve" smooth="yes"/>
      <point x="90" y="178"/>
      <point x="262" y="-20"/>
    </contour>
    <contour>
      <point x="512" y="0" type="curve" smooth="yes"/>
      <point x="275" y="0"/>
      <point x="110" y="189"/>
      <point x="110" y="460" type="curve" smooth="yes"/>
      <point x="110" y="731"/>
      <point x="275" y="920"/>
      <point x="512" y="920" type="curve" smooth="yes"/>
      <point x="727" y="920"/>
      <point x="902" y="714"/>
      <point x="902" y="460" type="curve" smooth="yes"/>
      <point x="902" y="206"/>
      <point x="727" y="0"/>
    </contour>
    <contour>
      <point x="925" y="462" type="line"/>
      <point x="915" y="717"/>
      <point x="1097" y="920"/>
      <point x="1336" y="920" type="curve" smooth="yes"/>
      <point x="1558" y="920"/>
      <point x="1740" y="731"/>
      <point x="1740" y="500" type="curve" smooth="yes"/>
      <point x="1739" y="488"/>
      <point x="1745" y="579"/>
      <point x="1738" y="467" type="curve"/>
      <point x="1751" y="476" type="line"/>
      <point x="911" y="476" type="line"/>
    </contour>
  </outline>
</glyph>
<glyph name="Tbar" format="2">
  <advance width="862"/>
  <unicode hex="0166"/>
  <anchor x="425" y="0" name="bottom"/>
  <anchor x="431" y="700" name="center"/>
  <anchor x="431" y="1400" name="top"/>
  <outline>
    <contour>
      <point x="420" y="0" type="line"/>
      <point x="442" y="0" type="line"/>
      <point x="442" y="1378" type="line"/>
      <point x="822" y="1378" type="line"/>
      <point x="822" y="1400" type="line"/>
      <point x="40" y="1400" type="line"/>
      <point x="40" y="1378" type="line"/>
      <point x="420" y="1378" type="line"/>
    </contour>
    <contour>
      <point x="69" y="978" type="line"/>
      <point x="793" y="978" type="line"/>
      <point x="793" y="1000" type="line"/>
      <point x="69" y="1000" type="line"/>
    </contour>
  </outline>
</glyph>
<glyph name="tbar" format="2">
  <advance width="380"/>
  <unicode hex="0167"/>
  <anchor x="184" y="0" name="bottom"/>
  <anchor x="190" y="460" name="center"/>
  <anchor x="190" y="1064" name="top"/>
  <anchor x="360" y="1239" name="topright"/>
  <outline>
    <contour>
      <point x="180" y="0" type="line"/>
      <point x="200" y="0" type="line"/>
      <point x="200" y="800" type="line"/>
      <point x="350" y="800" type="line"/>
      <point x="350" y="820" type="line"/>
      <point x="200" y="820" type="line"/>
      <point x="200" y="900" type="line"/>
      <point x="350" y="900" type="line"/>
      <point x="350" y="920" type="line"/>
      <point x="200" y="920" type="line"/>
      <point x="200" y="1240" type="line"/>
      <point x="180" y="1240" type="line"/>
      <point x="180" y="920" type="line"/>
      <point x="30" y="920" type="line"/>
      <point x="30" y="900" type="line"/>
      <point x="180" y="900" type="line"/>
      <point x="180" y="820" type="line"/>
      <point x="30" y="820" type="line"/>
      <point x="30" y="800" type="line"/>
      <point x="180" y="800" type="line"/>
    </contour>
  </outline>
</glyph>
<glyph name="florin" format="2">
  <advance width="1200"/>
  <unicode hex="0192"/>
  <outline>
    <contour>
      <point x="344" y="-400" type="curve" smooth="yes"/>
      <point x="459" y="-400"/>
      <point x="541" y="-291"/>
      <point x="550" y="-126" type="curve" smooth="yes"/>
      <point x="607" y="900" type="line"/>
      <point x="770" y="900" type="line"/>
      <point x="771" y="920" type="line"/>
      <point x="609" y="920" type="line"/>
      <point x="630" y="1300" type="line" smooth="yes"/>
      <point x="639" y="1455"/>
      <point x="713" y="1554"/>
      <point x="820" y="1554" type="curve" smooth="yes"/>
      <point x="872" y="1554"/>
      <point x="913" y="1530"/>
      <point x="972" y="1466" type="curve"/>
      <point x="984" y="1480" type="line"/>
      <point x="923" y="1546"/>
      <point x="873" y="1574"/>
      <point x="814" y="1574" type="curve" smooth="yes"/>
      <point x="699" y="1574"/>
      <point x="617" y="1465"/>
      <point x="608" y="1300" type="curve" smooth="yes"/>
      <point x="587" y="920" type="line"/>
      <point x="405" y="920" type="line"/>
      <point x="402" y="900" type="line"/>
      <point x="585" y="900" type="line"/>
      <point x="528" y="-126" type="line" smooth="yes"/>
      <point x="519" y="-281"/>
      <point x="445" y="-380"/>
      <point x="338" y="-380" type="curve" smooth="yes"/>
      <point x="286" y="-380"/>
      <point x="245" y="-356"/>
      <point x="186" y="-292" type="curve"/>
      <point x="174" y="-306" type="line"/>
      <point x="235" y="-372"/>
      <point x="285" y="-400"/>
    </contour>
  </outline>
</glyph>
<glyph name="gravecomb" format="2">
  <unicode hex="0300"/>
  <anchor x="178" y="920" name="_top"/>
  <anchor x="178" y="1400" name="top"/>
  <outline>
    <contour>
      <point x="346" y="1070" type="line"/>
      <point x="356" y="1080" type="line"/>
      <point x="16" y="1400" type="line"/>
      <point x="0" y="1384" type="line"/>
    </contour>
  </outline>
</glyph>
<glyph name="acutecomb" format="2">
  <unicode hex="0301"/>
  <anchor x="208" y="920" name="_top"/>
  <anchor x="208" y="1400" name="top"/>
  <outline>
    <contour>
      <point x="40" y="1070" type="line"/>
      <point x="386" y="1384" type="line"/>
      <point x="370" y="1400" type="line"/>
      <point x="30" y="1080" type="line"/>
    </contour>
  </outline>
</glyph>
<glyph name="tildecomb" format="2">
  <unicode hex="0303"/>
  <anchor x="251" y="920" name="_top"/>
  <anchor x="251" y="1416" name="top"/>
  <outline>
    <contour>
      <point x="18" y="1296" type="line"/>
      <point x="18" y="1356"/>
      <point x="63" y="1398"/>
      <point x="128" y="1398" type="curve" smooth="yes"/>
      <point x="224" y="1398"/>
      <point x="263" y="1304"/>
      <point x="370" y="1304" type="curve" smooth="yes"/>
      <point x="433" y="1304"/>
      <point x="470" y="1336"/>
      <point x="502" y="1410" type="curve"/>
      <point x="484" y="1416" type="line"/>
      <point x="454" y="1352"/>
      <point x="433" y="1320"/>
      <point x="372" y="1320" type="curve" smooth="yes"/>
      <point x="267" y="1320"/>
      <point x="236" y="1414"/>
      <point x="124" y="1414" type="curve" smooth="yes"/>
      <point x="36" y="1414"/>
      <point x="0" y="1356"/>
      <point x="0" y="1298" type="curve"/>
    </contour>
  </outline>
</glyph>
<glyph name="macroncomb" format="2">
  <unicode hex="0304"/>
  <anchor x="350" y="920" name="_top"/>
  <anchor x="350" y="1350" name="top"/>
  <outline>
    <contour>
      <point x="0" y="1330" type="line"/>
      <point x="700" y="1330" type="line"/>
      <point x="700" y="1350" type="line"/>
      <point x="0" y="1350" type="line"/>
    </contour>
  </outline>
</glyph>
<glyph name="brevecomb" format="2">
  <unicode hex="0306"/>
  <anchor x="316" y="920" name="_top"/>
  <anchor x="316" y="1410" name="top"/>
  <outline>
    <contour>
      <point x="316" y="1170" type="curve" smooth="yes"/>
      <point x="499" y="1170"/>
      <point x="632" y="1271"/>
      <point x="632" y="1410" type="curve"/>
      <point x="612" y="1410" type="line"/>
      <point x="612" y="1287"/>
      <point x="483" y="1192"/>
      <point x="316" y="1192" type="curve" smooth="yes"/>
      <point x="149" y="1192"/>
      <point x="20" y="1287"/>
      <point x="20" y="1410" type="curve"/>
      <point x="0" y="1410" type="line"/>
      <point x="0" y="1271"/>
      <point x="133" y="1170"/>
    </contour>
  </outline>
</glyph>
<glyph name="dotaccentcomb" format="2">
  <unicode hex="0307"/>
  <anchor x="22" y="920" name="_top"/>
  <anchor x="22" y="1412" name="top"/>
  <outline>
    <contour>
      <point x="22" y="1308" type="curve" smooth="yes"/>
      <point x="35" y="1308"/>
      <point x="44" y="1317"/>
      <point x="44" y="1330" type="curve" smooth="yes"/>
      <point x="44" y="1343"/>
      <point x="35" y="1352"/>
      <point x="22" y="1352" type="curve" smooth="yes"/>
      <point x="9" y="1352"/>
      <point x="0" y="1343"/>
      <point x="0" y="1330" type="curve" smooth="yes"/>
      <point x="0" y="1317"/>
      <point x="9" y="1308"/>
    </contour>
  </outline>
</glyph>
<glyph name="dieresiscomb" format="2">
  <unicode hex="0308"/>
  <anchor x="222" y="920" name="_top"/>
  <anchor x="222" y="1400" name="top"/>
  <outline>
    <contour>
      <point x="22" y="1236" type="curve" smooth="yes"/>
      <point x="35" y="1236"/>
      <point x="44" y="1245"/>
      <point x="44" y="1258" type="curve" smooth="yes"/>
      <point x="44" y="1271"/>
      <point x="35" y="1280"/>
      <point x="22" y="1280" type="curve" smooth="yes"/>
      <point x="9" y="1280"/>
      <point x="0" y="1271"/>
      <point x="0" y="1258" type="curve" smooth="yes"/>
      <point x="0" y="1245"/>
      <point x="9" y="1236"/>
    </contour>
    <contour>
      <point x="422" y="1236" type="curve" smooth="yes"/>
      <point x="435" y="1236"/>
      <point x="444" y="1245"/>
      <point x="444" y="1258" type="curve" smooth="yes"/>
      <point x="444" y="1271"/>
      <point x="435" y="1280"/>
      <point x="422" y="1280" type="curve" smooth="yes"/>
      <point x="409" y="1280"/>
      <point x="400" y="1271"/>
      <point x="400" y="1258" type="curve" smooth="yes"/>
      <point x="400" y="1245"/>
      <point x="409" y="1236"/>
    </contour>
  </outline>
</glyph>
<glyph name="ringcomb" format="2">
  <unicode hex="030A"/>
  <anchor x="204" y="920" name="_top"/>
  <anchor x="204" y="1460" name="top"/>
  <outline>
    <contour>
      <point x="204" y="1060" type="curve" smooth="yes"/>
      <point x="317" y="1060"/>
      <point x="408" y="1149"/>
      <point x="408" y="1260" type="curve" smooth="yes"/>
      <point x="408" y="1371"/>
      <point x="317" y="1460"/>
      <point x="204" y="1460" type="curve" smooth="yes"/>
      <point x="91" y="1460"/>
      <point x="0" y="1371"/>
      <point x="0" y="1260" type="curve" smooth="yes"/>
      <point x="0" y="1149"/>
      <point x="91" y="1060"/>
    </contour>
    <contour>
      <point x="204" y="1080" type="curve" smooth="yes"/>
      <point x="102" y="1080"/>
      <point x="20" y="1160"/>
      <point x="20" y="1260" type="curve" smooth="yes"/>
      <point x="20" y="1360"/>
      <point x="102" y="1440"/>
      <point x="204" y="1440" type="curve" smooth="yes"/>
      <point x="306" y="1440"/>
      <point x="388" y="1360"/>
      <point x="388" y="1260" type="curve" smooth="yes"/>
      <point x="388" y="1160"/>
      <point x="306" y="1080"/>
    </contour>
  </outline>
</glyph>
<glyph name="hungarumlautcomb" format="2">
  <unicode hex="030B"/>
  <anchor x="115" y="920" name="_top"/>
  <anchor x="115" y="1480" name="top"/>
  <outline>
    <contour>
      <point x="12.626" y="1057.149" type="line"/>
      <point x="230.365" y="1470.551" type="line"/>
      <point x="209.857" y="1480.113" type="line"/>
      <point x="-0.191" y="1063.126" type="line"/>
    </contour>
    <contour>
      <point x="212.626" y="1057.149" type="line"/>
      <point x="430.365" y="1470.551" type="line"/>
      <point x="409.857" y="1480.113" type="line"/>
      <point x="199.809" y="1063.126" type="line"/>
    </contour>
  </outline>
</glyph>
<glyph name="caroncomb" format="2">
  <unicode hex="030C"/>
  <anchor x="320" y="920" name="_top"/>
  <anchor x="320" y="1460" name="top"/>
  <outline>
    <contour>
      <point x="320" y="1166" type="line"/>
      <point x="640" y="1446" type="line"/>
      <point x="626" y="1460" type="line"/>
      <point x="316" y="1186" type="line"/>
      <point x="325" y="1186" type="line"/>
      <point x="14" y="1460" type="line"/>
      <point x="0" y="1446" type="line"/>
    </contour>
  </outline>
</glyph>
<glyph name="commaturnedabovecomb" format="2">
  <unicode hex="0312"/>
  <anchor x="116" y="920" name="_top"/>
  <anchor x="116" y="1548" name="top"/>
  <outline>
    <contour>
      <point x="22" y="1038" type="line"/>
      <point x="232" y="1544" type="line"/>
      <point x="220" y="1548" type="line"/>
      <point x="0" y="1048" type="line"/>
    </contour>
  </outline>
</glyph>
<glyph name="commaaccentcomb" format="2">
  <unicode hex="0326"/>
  <anchor x="87" y="0" name="_bottom"/>
  <anchor x="87" y="-421" name="bottom"/>
  <outline>
    <contour>
      <point x="9" y="-421" type="line"/>
      <point x="174" y="-46" type="line"/>
      <point x="158" y="-38" type="line"/>
      <point x="0" y="-418" type="line"/>
    </contour>
  </outline>
</glyph>
<glyph name="cedillacomb" format="2">
  <unicode hex="0327"/>
  <anchor x="198" y="0" name="_bottom"/>
  <anchor x="196" y="-440" name="bottom"/>
  <outline>
    <contour>
      <point x="178" y="-440" type="curve" smooth="yes"/>
      <point x="303" y="-440"/>
      <point x="396" y="-360"/>
      <point x="396" y="-252" type="curve" smooth="yes"/>
      <point x="396" y="-167"/>
      <point x="333" y="-104"/>
      <point x="246" y="-104" type="curve" smooth="yes"/>
      <point x="195" y="-104"/>
      <point x="130" y="-127"/>
      <point x="104" y="-154" type="curve"/>
      <point x="125" y="-148" type="line"/>
      <point x="214" y="0" type="line"/>
      <point x="194" y="0" type="line"/>
      <point x="84" y="-176" type="line"/>
      <point x="128" y="-145"/>
      <point x="195" y="-124"/>
      <point x="246" y="-124" type="curve" smooth="yes"/>
      <point x="323" y="-124"/>
      <point x="372" y="-173"/>
      <point x="372" y="-252" type="curve" smooth="yes"/>
      <point x="372" y="-351"/>
      <point x="292" y="-420"/>
      <point x="178" y="-420" type="curve" smooth="yes"/>
      <point x="112" y="-420"/>
      <point x="59" y="-397"/>
      <point x="16" y="-349" type="curve"/>
      <point x="0" y="-364" type="line"/>
      <point x="52" y="-416"/>
      <point x="109" y="-440"/>
    </contour>
  </outline>
</glyph>
<glyph name="ogonekcomb" format="2">
  <unicode hex="0328"/>
  <anchor x="320" y="0" name="_ogonek"/>
  <outline>
    <contour>
      <point x="206" y="-440" type="curve" smooth="yes"/>
      <point x="292" y="-440"/>
      <point x="372" y="-400"/>
      <point x="402" y="-360" type="curve"/>
      <point x="388" y="-346" type="line"/>
      <point x="358" y="-382"/>
      <point x="286" y="-420"/>
      <point x="206" y="-420" type="curve" smooth="yes"/>
      <point x="106" y="-420"/>
      <point x="20" y="-372"/>
      <point x="20" y="-280" type="curve" smooth="yes"/>
      <point x="20" y="-166"/>
      <point x="184" y="-64"/>
      <point x="320" y="0" type="curve"/>
      <point x="306" y="20" type="line"/>
      <point x="166" y="-52"/>
      <point x="0" y="-142"/>
      <point x="0" y="-280" type="curve" smooth="yes"/>
      <point x="0" y="-378"/>
      <point x="78" y="-440"/>
    </contour>
  </outline>
</glyph>
<glyph name="Delta" format="2">
  <advance width="1200"/>
  <unicode hex="0394"/>
  <outline>
    <contour>
      <point x="73" y="0" type="line"/>
      <point x="1121" y="0" type="line"/>
      <point x="597" y="1453" type="line"/>
    </contour>
    <contour>
      <point x="103" y="18" type="line"/>
      <point x="597" y="1387" type="line"/>
      <point x="1091" y="18" type="line"/>
    </contour>
  </outline>
</glyph>
<glyph name="Omega" format="2">
  <advance width="1200"/>
  <unicode hex="03A9"/>
  <outline>
    <contour>
      <point x="132" y="0" type="line"/>
      <point x="523" y="0" type="line"/>
      <point x="523" y="4" type="line"/>
      <point x="317" y="110"/>
      <point x="157" y="384"/>
      <point x="157" y="623" type="curve" smooth="yes"/>
      <point x="157" y="896"/>
      <point x="347" y="1101"/>
      <point x="599" y="1101" type="curve" smooth="yes"/>
      <point x="852" y="1101"/>
      <point x="1042" y="896"/>
      <point x="1042" y="623" type="curve" smooth="yes"/>
      <point x="1042" y="384"/>
      <point x="882" y="109"/>
      <point x="676" y="4" type="curve"/>
      <point x="676" y="0" type="line"/>
      <point x="1067" y="0" type="line"/>
      <point x="1067" y="16" type="line"/>
      <point x="733" y="16" type="line"/>
      <point x="922" y="143"/>
      <point x="1060" y="398"/>
      <point x="1060" y="623" type="curve" smooth="yes"/>
      <point x="1060" y="905"/>
      <point x="862" y="1117"/>
      <point x="599" y="1117" type="curve" smooth="yes"/>
      <point x="337" y="1117"/>
      <point x="138" y="905"/>
      <point x="138" y="623" type="curve" smooth="yes"/>
      <point x="138" y="398"/>
      <point x="277" y="144"/>
      <point x="466" y="16" type="curve"/>
      <point x="132" y="16" type="line"/>
    </contour>
  </outline>
</glyph>
<glyph name="pi" format="2">
  <advance width="940"/>
  <unicode hex="03C0"/>
  <outline>
    <contour>
      <point x="806" y="-18" type="curve"/>
      <point x="806" y="2" type="line"/>
      <point x="706" y="2"/>
      <point x="700" y="50"/>
      <point x="700" y="242" type="curve" smooth="yes"/>
      <point x="700" y="900" type="line"/>
      <point x="860" y="900" type="line"/>
      <point x="860" y="920" type="line"/>
      <point x="60" y="920" type="line"/>
      <point x="60" y="900" type="line"/>
      <point x="180" y="900" type="line"/>
      <point x="180" y="0" type="line"/>
      <point x="200" y="0" type="line"/>
      <point x="200" y="900" type="line"/>
      <point x="680" y="900" type="line"/>
      <point x="680" y="242" type="line" smooth="yes"/>
      <point x="680" y="24"/>
      <point x="698" y="-18"/>
    </contour>
  </outline>
</glyph>
<glyph name="A-cy" format="2">
  <advance width="1320"/>
  <unicode hex="0410"/>
  <outline>
    <contour>
      <point x="30" y="0" type="line"/>
      <point x="54" y="0" type="line"/>
      <point x="269" y="544" type="line"/>
      <point x="933" y="544" type="line"/>
      <point x="1146" y="0" type="line"/>
      <point x="1170" y="0" type="line"/>
      <point x="600" y="1430" type="line"/>
    </contour>
    <contour>
      <point x="276" y="564" type="line"/>
      <point x="600" y="1376" type="line"/>
      <point x="925" y="564" type="line"/>
    </contour>
  </outline>
</glyph>
<glyph name="Be-cy" format="2">
  <advance width="1016"/>
  <unicode hex="0411"/>
  <outline>
    <contour>
      <point x="160" y="0" type="line"/>
      <point x="460" y="0" type="line" smooth="yes"/>
      <point x="730" y="0"/>
      <point x="936" y="162"/>
      <point x="936" y="420" type="curve" smooth="yes"/>
      <point x="936" y="678"/>
      <point x="730" y="840"/>
      <point x="460" y="840" type="curve" smooth="yes"/>
      <point x="180" y="840" type="line"/>
      <point x="180" y="1380" type="line"/>
      <point x="830" y="1380" type="line"/>
      <point x="830" y="1400" type="line"/>
      <point x="160" y="1400" type="line"/>
    </contour>
    <contour>
      <point x="180" y="20" type="line"/>
      <point x="180" y="820" type="line"/>
      <point x="460" y="820" type="line" smooth="yes"/>
      <point x="720" y="820"/>
      <point x="916" y="662"/>
      <point x="916" y="420" type="curve" smooth="yes"/>
      <point x="916" y="178"/>
      <point x="720" y="20"/>
      <point x="460" y="20" type="curve" smooth="yes"/>
    </contour>
  </outline>
</glyph>
<glyph name="Ve-cy" format="2">
  <advance width="1116"/>
  <unicode hex="0412"/>
  <outline>
    <contour>
      <point x="180" y="0" type="line"/>
      <point x="420" y="0" type="line" smooth="yes"/>
      <point x="464" y="0"/>
      <point x="870" y="0"/>
      <point x="870" y="375" type="curve" smooth="yes"/>
      <point x="870" y="645"/>
      <point x="670" y="753"/>
      <point x="509" y="778" type="curve"/>
      <point x="675" y="801"/>
      <point x="796" y="895"/>
      <point x="796" y="1078" type="curve" smooth="yes"/>
      <point x="796" y="1279"/>
      <point x="650" y="1400"/>
      <point x="400" y="1400" type="curve" smooth="yes"/>
      <point x="180" y="1400" type="line"/>
    </contour>
    <contour>
      <point x="200" y="22" type="line"/>
      <point x="200" y="768" type="line"/>
      <point x="420" y="768" type="line" smooth="yes"/>
      <point x="606" y="768"/>
      <point x="848" y="654"/>
      <point x="848" y="379" type="curve" smooth="yes"/>
      <point x="848" y="149"/>
      <point x="680" y="22"/>
      <point x="420" y="22" type="curve" smooth="yes"/>
    </contour>
    <contour>
      <point x="200" y="788" type="line"/>
      <point x="200" y="1378" type="line"/>
      <point x="400" y="1378" type="line" smooth="yes"/>
      <point x="640" y="1378"/>
      <point x="774" y="1268"/>
      <point x="774" y="1080" type="curve" smooth="yes"/>
      <point x="774" y="868"/>
      <point x="600" y="788"/>
      <point x="400" y="788" type="curve" smooth="yes"/>
    </contour>
  </outline>
</glyph>
<glyph name="De-cy" format="2">
  <advance width="1700"/>
  <unicode hex="0414"/>
  <outline>
    <contour>
      <point x="343" y="14" type="curve"/>
      <point x="373" y="14" type="line"/>
      <point x="607" y="231"/>
      <point x="677" y="474"/>
      <point x="776" y="1410" type="curve"/>
      <point x="755" y="1400" type="line"/>
      <point x="1390" y="1400" type="line"/>
      <point x="1378" y="1410" type="line"/>
      <point x="1378" y="14" type="line"/>
      <point x="1397" y="14" type="line"/>
      <point x="1397" y="1418" type="line"/>
      <point x="756" y="1418" type="line"/>
      <point x="656" y="472"/>
      <point x="590" y="247"/>
    </contour>
    <contour>
      <point x="180" y="-220" type="line"/>
      <point x="200" y="-220" type="line"/>
      <point x="200" y="15" type="line"/>
      <point x="185" y="0" type="line"/>
      <point x="1595" y="0" type="line"/>
      <point x="1580" y="15" type="line"/>
      <point x="1580" y="-220" type="line"/>
      <point x="1600" y="-220" type="line"/>
      <point x="1600" y="20" type="line"/>
      <point x="180" y="20" type="line"/>
    </contour>
  </outline>
</glyph>
<glyph name="Ie-cy" format="2">
  <advance width="1100"/>
  <unicode hex="0415"/>
  <anchor x="550" y="1400" name="top"/>
  <outline>
    <contour>
      <point x="180" y="0" type="line"/>
      <point x="860" y="0" type="line"/>
      <point x="860" y="20" type="line"/>
      <point x="202" y="20" type="line"/>
      <point x="202" y="768" type="line"/>
      <point x="820" y="768" type="line"/>
      <point x="820" y="788" type="line"/>
      <point x="202" y="788" type="line"/>
      <point x="202" y="1380" type="line"/>
      <point x="860" y="1380" type="line"/>
      <point x="860" y="1400" type="line"/>
      <point x="180" y="1400" type="line"/>
    </contour>
  </outline>
</glyph>
<glyph name="Zhe-cy" format="2">
  <advance width="1280"/>
  <unicode hex="0416"/>
  <anchor x="1260" y="0" name="bottomright"/>
  <anchor x="640" y="1400" name="top"/>
  <outline>
    <contour>
      <point x="10" y="0" type="line"/>
      <point x="40" y="0" type="line"/>
      <point x="640" y="735" type="line"/>
      <point x="640" y="0" type="line"/>
      <point x="660" y="0" type="line"/>
      <point x="660" y="735" type="line"/>
      <point x="1240" y="0" type="line"/>
      <point x="1270" y="0" type="line"/>
      <point x="682" y="740" type="line"/>
      <point x="1240" y="1400" type="line"/>
      <point x="1210" y="1400" type="line"/>
      <point x="660" y="745" type="line"/>
      <point x="660" y="1400" type="line"/>
      <point x="640" y="1400" type="line"/>
      <point x="640" y="745" type="line"/>
      <point x="70" y="1400" type="line"/>
      <point x="40" y="1400" type="line"/>
      <point x="618" y="740" type="line"/>
    </contour>
  </outline>
</glyph>
<glyph name="Ze-cy" format="2">
  <advance width="1212"/>
  <unicode hex="0417"/>
  <anchor x="606" y="0" name="bottom"/>
  <anchor x="606" y="1400" name="top"/>
  <outline>
    <contour>
      <point x="626" y="-20" type="curve" smooth="yes"/>
      <point x="931" y="-20"/>
      <point x="1122" y="131"/>
      <point x="1122" y="372" type="curve" smooth="yes"/>
      <point x="1122" y="586"/>
      <point x="974" y="704"/>
      <point x="678" y="726" type="curve"/>
      <point x="933" y="754"/>
      <point x="1082" y="876"/>
      <point x="1082" y="1056" type="curve" smooth="yes"/>
      <point x="1082" y="1265"/>
      <point x="889" y="1420"/>
      <point x="629" y="1420" type="curve" smooth="yes"/>
      <point x="367" y="1420"/>
      <point x="180" y="1267"/>
      <point x="180" y="1052" type="curve"/>
      <point x="200" y="1052" type="line"/>
      <point x="200" y="1256"/>
      <point x="377" y="1400"/>
      <point x="627" y="1400" type="curve" smooth="yes"/>
      <point x="875" y="1400"/>
      <point x="1062" y="1252"/>
      <point x="1062" y="1057" type="curve" smooth="yes"/>
      <point x="1062" y="860"/>
      <point x="868" y="734"/>
      <point x="566" y="734" type="curve"/>
      <point x="566" y="714" type="line"/>
      <point x="919" y="714"/>
      <point x="1102" y="598"/>
      <point x="1102" y="373" type="curve" smooth="yes"/>
      <point x="1102" y="146"/>
      <point x="915" y="0"/>
      <point x="624" y="0" type="curve" smooth="yes"/>
      <point x="331" y="0"/>
      <point x="140" y="146"/>
      <point x="140" y="370" type="curve"/>
      <point x="120" y="370" type="line"/>
      <point x="120" y="133"/>
      <point x="319" y="-20"/>
    </contour>
  </outline>
</glyph>
<glyph name="Ii-cy" format="2">
  <advance width="1450"/>
  <unicode hex="0418"/>
  <anchor x="1430" y="0" name="bottomright"/>
  <anchor x="725" y="1400" name="top"/>
  <outline>
    <contour>
      <point x="180" y="-70" type="line"/>
      <point x="1250" y="1406" type="line"/>
      <point x="1250" y="0" type="line"/>
      <point x="1270" y="0" type="line"/>
      <point x="1270" y="1470" type="line"/>
      <point x="200" y="-6" type="line"/>
      <point x="200" y="1400" type="line"/>
      <point x="180" y="1400" type="line"/>
    </contour>
  </outline>
</glyph>
<glyph name="Ka-cy" format="2">
  <advance width="1130"/>
  <unicode hex="041A"/>
  <anchor x="1110" y="0" name="bottomright"/>
  <anchor x="565" y="1400" name="top"/>
  <outline>
    <contour>
      <point x="844" y="0" type="line"/>
      <point x="878" y="0" type="line"/>
      <point x="218" y="744" type="line"/>
      <point x="848" y="1400" type="line"/>
      <point x="816" y="1400" type="line"/>
      <point x="188" y="744" type="line"/>
    </contour>
    <contour>
      <point x="170" y="0" type="line"/>
      <point x="192" y="0" type="line"/>
      <point x="192" y="1400" type="line"/>
      <point x="170" y="1400" type="line"/>
    </contour>
  </outline>
</glyph>
<glyph name="El-cy" format="2">
  <advance width="1226"/>
  <unicode hex="041B"/>
  <outline>
    <contour>
      <point x="20" y="0" type="line"/>
      <point x="139" y="0"/>
      <point x="226" y="202"/>
      <point x="226" y="480" type="curve" smooth="yes"/>
      <point x="226" y="1380" type="line"/>
      <point x="1046" y="1380" type="line"/>
      <point x="1046" y="0" type="line"/>
      <point x="1066" y="0" type="line"/>
      <point x="1066" y="1400" type="line"/>
      <point x="206" y="1400" type="line"/>
      <point x="206" y="480" type="line" smooth="yes"/>
      <point x="206" y="226"/>
      <point x="123" y="20"/>
      <point x="20" y="20" type="curve"/>
    </contour>
  </outline>
</glyph>
<glyph name="Em-cy" format="2">
  <advance width="1620"/>
  <unicode hex="041C"/>
  <outline>
    <contour>
      <point x="120" y="0" type="line"/>
      <point x="142" y="0" type="line"/>
      <point x="284" y="1350" type="line"/>
      <point x="830" y="210" type="line"/>
      <point x="1376" y="1350" type="line"/>
      <point x="1518" y="0" type="line"/>
      <point x="1540" y="0" type="line"/>
      <point x="1390" y="1430" type="line"/>
      <point x="830" y="262" type="line"/>
      <point x="270" y="1430" type="line"/>
    </contour>
  </outline>
</glyph>
<glyph name="En-cy" format="2">
  <advance width="1430"/>
  <unicode hex="041D"/>
  <anchor x="1410" y="0" name="bottomright"/>
  <outline>
    <contour>
      <point x="180" y="0" type="line"/>
      <point x="202" y="0" type="line"/>
      <point x="202" y="754" type="line"/>
      <point x="1092" y="754" type="line"/>
      <point x="1092" y="0" type="line"/>
      <point x="1114" y="0" type="line"/>
      <point x="1114" y="1400" type="line"/>
      <point x="1092" y="1400" type="line"/>
      <point x="1092" y="774" type="line"/>
      <point x="202" y="774" type="line"/>
      <point x="202" y="1400" type="line"/>
      <point x="180" y="1400" type="line"/>
    </contour>
  </outline>
</glyph>
<glyph name="Pe-cy" format="2">
  <advance width="1280"/>
  <unicode hex="041F"/>
  <anchor x="1260" y="0" name="bottomright"/>
  <outline>
    <contour>
      <point x="160" y="0" type="line"/>
      <point x="180" y="0" type="line"/>
      <point x="180" y="1380" type="line"/>
      <point x="1100" y="1380" type="line"/>
      <point x="1100" y="0" type="line"/>
      <point x="1120" y="0" type="line"/>
      <point x="1120" y="1400" type="line"/>
      <point x="160" y="1400" type="line"/>
    </contour>
  </outline>
</glyph>
<glyph name="Te-cy" format="2">
  <advance width="930"/>
  <unicode hex="0422"/>
  <anchor x="910" y="0" name="bottomright"/>
  <outline>
    <contour>
      <point x="420" y="0" type="line"/>
      <point x="442" y="0" type="line"/>
      <point x="442" y="1378" type="line"/>
      <point x="822" y="1378" type="line"/>
      <point x="822" y="1400" type="line"/>
      <point x="40" y="1400" type="line"/>
      <point x="40" y="1378" type="line"/>
      <point x="420" y="1378" type="line"/>
    </contour>
  </outline>
</glyph>
<glyph name="U-cy" format="2">
  <advance width="960"/>
  <unicode hex="0423"/>
  <anchor x="480" y="1400" name="top"/>
  <outline>
    <contour>
      <point x="282" y="0" type="line"/>
      <point x="302" y="0" type="line"/>
      <point x="960" y="1400" type="line"/>
      <point x="940" y="1400" type="line"/>
      <point x="498" y="460" type="line"/>
      <point x="506" y="460" type="line"/>
      <point x="20" y="1400" type="line"/>
      <point x="0" y="1400" type="line"/>
      <point x="492" y="448" type="line"/>
    </contour>
  </outline>
</glyph>
<glyph name="Ef-cy" format="2">
  <advance width="1460"/>
  <unicode hex="0424"/>
  <outline>
    <contour>
      <point x="720" y="160" type="curve" smooth="yes"/>
      <point x="740" y="160" type="line" smooth="yes"/>
      <point x="1108" y="160"/>
      <point x="1380" y="362"/>
      <point x="1380" y="700" type="curve" smooth="yes"/>
      <point x="1380" y="1038"/>
      <point x="1108" y="1240"/>
      <point x="740" y="1240" type="curve" smooth="yes"/>
      <point x="720" y="1240" type="line" smooth="yes"/>
      <point x="352" y="1240"/>
      <point x="80" y="1038"/>
      <point x="80" y="700" type="curve" smooth="yes"/>
      <point x="80" y="362"/>
      <point x="352" y="160"/>
    </contour>
    <contour>
      <point x="720" y="178" type="line" smooth="yes"/>
      <point x="364" y="178"/>
      <point x="100" y="374"/>
      <point x="100" y="700" type="curve" smooth="yes"/>
      <point x="100" y="1026"/>
      <point x="364" y="1218"/>
      <point x="720" y="1218" type="curve" smooth="yes"/>
      <point x="740" y="1218" type="line" smooth="yes"/>
      <point x="1096" y="1218"/>
      <point x="1360" y="1026"/>
      <point x="1360" y="700" type="curve" smooth="yes"/>
      <point x="1360" y="374"/>
      <point x="1096" y="178"/>
      <point x="740" y="178" type="curve" smooth="yes"/>
    </contour>
    <contour>
      <point x="720" y="0" type="line"/>
      <point x="740" y="0" type="line"/>
      <point x="740" y="1400" type="line"/>
      <point x="720" y="1400" type="line"/>
    </contour>
  </outline>
</glyph>
<glyph name="Ha-cy" format="2">
  <advance width="1110"/>
  <unicode hex="0425"/>
  <anchor x="1090" y="0" name="bottomright"/>
  <outline>
    <contour>
      <point x="40" y="0" type="line"/>
      <point x="68" y="0" type="line"/>
      <point x="504" y="712" type="line"/>
      <point x="932" y="0" type="line"/>
      <point x="960" y="0" type="line"/>
      <point x="518" y="734" type="line"/>
      <point x="930" y="1400" type="line"/>
      <point x="902" y="1400" type="line"/>
      <point x="506" y="754" type="line"/>
      <point x="118" y="1400" type="line"/>
      <point x="90" y="1400" type="line"/>
      <point x="492" y="734" type="line"/>
    </contour>
  </outline>
</glyph>
<glyph name="Tse-cy" format="2">
  <advance width="1370"/>
  <unicode hex="0426"/>
  <outline>
    <contour>
      <point x="1270" y="-220" type="line"/>
      <point x="1290" y="-220" type="line"/>
      <point x="1290" y="20" type="line"/>
      <point x="1120" y="20" type="line"/>
      <point x="1120" y="1400" type="line"/>
      <point x="1100" y="1400" type="line"/>
      <point x="1100" y="20" type="line"/>
      <point x="180" y="20" type="line"/>
      <point x="180" y="1400" type="line"/>
      <point x="160" y="1400" type="line"/>
      <point x="160" y="0" type="line"/>
      <point x="1270" y="0" type="line"/>
    </contour>
  </outline>
</glyph>
<glyph name="Che-cy" format="2">
  <advance width="1080"/>
  <unicode hex="0427"/>
  <anchor x="1060" y="0" name="bottomright"/>
  <anchor x="540" y="1400" name="top"/>
  <outline>
    <contour>
      <point x="900" y="0" type="line"/>
      <point x="920" y="0" type="line"/>
      <point x="920" y="1400" type="line"/>
      <point x="900" y="1400" type="line"/>
      <point x="900" y="580" type="line"/>
      <point x="580" y="580" type="line" smooth="yes"/>
      <point x="320" y="580"/>
      <point x="180" y="776"/>
      <point x="180" y="1036" type="curve" smooth="yes"/>
      <point x="180" y="1400" type="line"/>
      <point x="160" y="1400" type="line"/>
      <point x="160" y="1036" type="line" smooth="yes"/>
      <point x="160" y="766"/>
      <point x="302" y="560"/>
      <point x="580" y="560" type="curve" smooth="yes"/>
      <point x="900" y="560" type="line"/>
    </contour>
  </outline>
</glyph>
<glyph name="Sha-cy" format="2">
  <advance width="1818"/>
  <unicode hex="0428"/>
  <outline>
    <contour>
      <point x="160" y="0" type="line"/>
      <point x="1660" y="0" type="line"/>
      <point x="1660" y="1400" type="line"/>
      <point x="1640" y="1400" type="line"/>
      <point x="1640" y="20" type="line"/>
      <point x="920" y="20" type="line"/>
      <point x="920" y="1400" type="line"/>
      <point x="900" y="1400" type="line"/>
      <point x="900" y="20" type="line"/>
      <point x="180" y="20" type="line"/>
      <point x="180" y="1400" type="line"/>
      <point x="160" y="1400" type="line"/>
    </contour>
  </outline>
</glyph>
<glyph name="Shcha-cy" format="2">
  <advance width="1910"/>
  <unicode hex="0429"/>
  <outline>
    <contour>
      <point x="1810" y="-220" type="line"/>
      <point x="1830" y="-220" type="line"/>
      <point x="1830" y="20" type="line"/>
      <point x="1660" y="20" type="line"/>
      <point x="1660" y="1400" type="line"/>
      <point x="1640" y="1400" type="line"/>
      <point x="1640" y="20" type="line"/>
      <point x="920" y="20" type="line"/>
      <point x="920" y="1400" type="line"/>
      <point x="900" y="1400" type="line"/>
      <point x="900" y="20" type="line"/>
      <point x="180" y="20" type="line"/>
      <point x="180" y="1400" type="line"/>
      <point x="160" y="1400" type="line"/>
      <point x="160" y="0" type="line"/>
      <point x="1810" y="0" type="line"/>
    </contour>
  </outline>
</glyph>
<glyph name="Hardsign-cy" format="2">
  <advance width="1232"/>
  <unicode hex="042A"/>
  <anchor x="616" y="1400" name="top"/>
  <outline>
    <contour>
      <point x="380" y="0" type="line"/>
      <point x="676" y="0" type="line" smooth="yes"/>
      <point x="946" y="0"/>
      <point x="1152" y="162"/>
      <point x="1152" y="420" type="curve" smooth="yes"/>
      <point x="1152" y="678"/>
      <point x="946" y="840"/>
      <point x="676" y="840" type="curve" smooth="yes"/>
      <point x="400" y="840" type="line"/>
      <point x="400" y="1400" type="line"/>
      <point x="20" y="1400" type="line"/>
      <point x="20" y="1380" type="line"/>
      <point x="380" y="1380" type="line"/>
    </contour>
    <contour>
      <point x="400" y="20" type="line"/>
      <point x="400" y="820" type="line"/>
      <point x="676" y="820" type="line" smooth="yes"/>
      <point x="936" y="820"/>
      <point x="1132" y="662"/>
      <point x="1132" y="420" type="curve" smooth="yes"/>
      <point x="1132" y="178"/>
      <point x="936" y="20"/>
      <point x="676" y="20" type="curve" smooth="yes"/>
    </contour>
  </outline>
</glyph>
<glyph name="Softsign-cy" format="2">
  <advance width="1002"/>
  <unicode hex="042C"/>
  <outline>
    <contour>
      <point x="150" y="0" type="line"/>
      <point x="446" y="0" type="line" smooth="yes"/>
      <point x="716" y="0"/>
      <point x="922" y="162"/>
      <point x="922" y="420" type="curve" smooth="yes"/>
      <point x="922" y="678"/>
      <point x="716" y="840"/>
      <point x="446" y="840" type="curve" smooth="yes"/>
      <point x="170" y="840" type="line"/>
      <point x="170" y="1400" type="line"/>
      <point x="150" y="1400" type="line"/>
    </contour>
    <contour>
      <point x="170" y="20" type="line"/>
      <point x="170" y="820" type="line"/>
      <point x="446" y="820" type="line" smooth="yes"/>
      <point x="706" y="820"/>
      <point x="902" y="662"/>
      <point x="902" y="420" type="curve" smooth="yes"/>
      <point x="902" y="178"/>
      <point x="706" y="20"/>
      <point x="446" y="20" type="curve" smooth="yes"/>
    </contour>
  </outline>
</glyph>
<glyph name="Ereversed-cy" format="2">
  <advance width="1343"/>
  <unicode hex="042D"/>
  <outline>
    <contour>
      <point x="551" y="-16" type="curve" smooth="yes"/>
      <point x="951" y="-16"/>
      <point x="1211" y="266"/>
      <point x="1211" y="700" type="curve" smooth="yes"/>
      <point x="1211" y="1134"/>
      <point x="951" y="1416"/>
      <point x="551" y="1416" type="curve" smooth="yes"/>
      <point x="374" y="1416"/>
      <point x="219" y="1361"/>
      <point x="100" y="1256" type="curve"/>
      <point x="100" y="1226" type="line"/>
      <point x="205" y="1331"/>
      <point x="370" y="1392"/>
      <point x="551" y="1392" type="curve" smooth="yes"/>
      <point x="930" y="1392"/>
      <point x="1183" y="1120"/>
      <point x="1187" y="710" type="curve"/>
      <point x="264" y="710" type="line"/>
      <point x="264" y="690" type="line"/>
      <point x="1187" y="690" type="line"/>
      <point x="1183" y="277"/>
      <point x="932" y="8"/>
      <point x="551" y="8" type="curve" smooth="yes"/>
      <point x="370" y="8"/>
      <point x="211" y="67"/>
      <point x="100" y="176" type="curve"/>
      <point x="100" y="144" type="line"/>
      <point x="219" y="39"/>
      <point x="374" y="-16"/>
    </contour>
  </outline>
</glyph>
<glyph name="Iu-cy" format="2">
  <advance width="2048"/>
  <unicode hex="042E"/>
  <anchor x="1024" y="1400" name="top"/>
  <outline>
    <contour>
      <point x="1274" y="-18" type="curve" smooth="yes"/>
      <point x="1662" y="-18"/>
      <point x="1948" y="286"/>
      <point x="1948" y="704" type="curve" smooth="yes"/>
      <point x="1948" y="1122"/>
      <point x="1662" y="1420"/>
      <point x="1274" y="1420" type="curve" smooth="yes"/>
      <point x="886" y="1420"/>
      <point x="600" y="1122"/>
      <point x="600" y="704" type="curve" smooth="yes"/>
      <point x="600" y="286"/>
      <point x="886" y="-18"/>
    </contour>
    <contour>
      <point x="160" y="0" type="line"/>
      <point x="180" y="0" type="line"/>
      <point x="180" y="1400" type="line"/>
      <point x="160" y="1400" type="line"/>
    </contour>
    <contour>
      <point x="174" y="750" type="line"/>
      <point x="614" y="750" type="line"/>
      <point x="614" y="770" type="line"/>
      <point x="174" y="770" type="line"/>
    </contour>
    <contour>
      <point x="1274" y="6" type="curve" smooth="yes"/>
      <point x="892" y="6"/>
      <point x="622" y="302"/>
      <point x="622" y="704" type="curve" smooth="yes"/>
      <point x="622" y="1106"/>
      <point x="892" y="1398"/>
      <point x="1274" y="1398" type="curve" smooth="yes"/>
      <point x="1656" y="1398"/>
      <point x="1926" y="1106"/>
      <point x="1926" y="704" type="curve" smooth="yes"/>
      <point x="1926" y="302"/>
      <point x="1656" y="6"/>
    </contour>
  </outline>
</glyph>
<glyph name="Ia-cy" format="2">
  <advance width="936"/>
  <unicode hex="042F"/>
  <anchor x="468" y="1400" name="top"/>
  <outline>
    <contour>
      <point x="70" y="0" type="line"/>
      <point x="98" y="0" type="line"/>
      <point x="534" y="628" type="line"/>
      <point x="734" y="628" type="line"/>
      <point x="734" y="0" type="line"/>
      <point x="756" y="0" type="line"/>
      <point x="756" y="1400" type="line"/>
      <point x="526" y="1400" type="line" smooth="yes"/>
      <point x="233" y="1400"/>
      <point x="54" y="1253"/>
      <point x="54" y="1014" type="curve" smooth="yes"/>
      <point x="54" y="779"/>
      <point x="226" y="633"/>
      <point x="510" y="628" type="curve"/>
    </contour>
    <contour>
      <point x="526" y="648" type="line" smooth="yes"/>
      <point x="244" y="648"/>
      <point x="76" y="784"/>
      <point x="76" y="1014" type="curve" smooth="yes"/>
      <point x="76" y="1243"/>
      <point x="242" y="1378"/>
      <point x="526" y="1378" type="curve" smooth="yes"/>
      <point x="734" y="1378" type="line"/>
      <point x="734" y="648" type="line"/>
    </contour>
  </outline>
</glyph>
<glyph name="be-cy" format="2">
  <advance width="1092"/>
  <unicode hex="0431"/>
  <outline>
    <contour>
      <point x="540" y="-20" type="curve" smooth="yes"/>
      <point x="817" y="-20"/>
      <point x="1022" y="182"/>
      <point x="1022" y="458" type="curve" smooth="yes"/>
      <point x="1022" y="738"/>
      <point x="812" y="940"/>
      <point x="557" y="940" type="curve" smooth="yes"/>
      <point x="339" y="940"/>
      <point x="122" y="784"/>
      <point x="90" y="525" type="curve"/>
      <point x="90" y="1059"/>
      <point x="226" y="1179"/>
      <point x="494" y="1292" type="curve" smooth="yes"/>
      <point x="616" y="1343"/>
      <point x="750" y="1390"/>
      <point x="788" y="1560" type="curve"/>
      <point x="768" y="1560" type="line"/>
      <point x="734" y="1431"/>
      <point x="660" y="1379"/>
      <point x="488" y="1312" type="curve" smooth="yes"/>
      <point x="347" y="1257"/>
      <point x="70" y="1148"/>
      <point x="70" y="620" type="curve" smooth="yes"/>
      <point x="70" y="164"/>
      <point x="276" y="-20"/>
    </contour>
    <contour>
      <point x="546" y="0" type="curve" smooth="yes"/>
      <point x="306" y="0"/>
      <point x="108" y="188"/>
      <point x="108" y="459" type="curve" smooth="yes"/>
      <point x="108" y="752"/>
      <point x="339" y="920"/>
      <point x="560" y="920" type="curve" smooth="yes"/>
      <point x="794" y="920"/>
      <point x="1002" y="732"/>
      <point x="1002" y="463" type="curve" smooth="yes"/>
      <point x="1002" y="188"/>
      <point x="786" y="0"/>
    </contour>
  </outline>
</glyph>
<glyph name="ve-cy" format="2">
  <advance width="822"/>
  <unicode hex="0432"/>
  <outline>
    <contour>
      <point x="150" y="0" type="line"/>
      <point x="466" y="0" type="line" smooth="yes"/>
      <point x="676" y="0"/>
      <point x="762" y="112"/>
      <point x="762" y="250" type="curve" smooth="yes"/>
      <point x="762" y="413"/>
      <point x="640" y="455"/>
      <point x="474" y="461" type="curve"/>
      <point x="620" y="477"/>
      <point x="722" y="534"/>
      <point x="722" y="676" type="curve" smooth="yes"/>
      <point x="722" y="845"/>
      <point x="576" y="920"/>
      <point x="406" y="920" type="curve" smooth="yes"/>
      <point x="150" y="920" type="line"/>
    </contour>
    <contour>
      <point x="170" y="20" type="line"/>
      <point x="170" y="450" type="line"/>
      <point x="426" y="450" type="line" smooth="yes"/>
      <point x="528" y="450"/>
      <point x="742" y="450"/>
      <point x="742" y="248" type="curve" smooth="yes"/>
      <point x="742" y="127"/>
      <point x="666" y="20"/>
      <point x="466" y="20" type="curve" smooth="yes"/>
    </contour>
    <contour>
      <point x="170" y="470" type="line"/>
      <point x="170" y="900" type="line"/>
      <point x="406" y="900" type="line" smooth="yes"/>
      <point x="570" y="900"/>
      <point x="702" y="823"/>
      <point x="702" y="676" type="curve" smooth="yes"/>
      <point x="702" y="495"/>
      <point x="502" y="470"/>
      <point x="406" y="470" type="curve" smooth="yes"/>
    </contour>
  </outline>
</glyph>
<glyph name="ge-cy" format="2">
  <advance width="600"/>
  <unicode hex="0433"/>
  <anchor x="580" y="0" name="bottomright"/>
  <anchor x="400" y="920" name="top"/>
  <outline>
    <contour>
      <point x="160" y="0" type="line"/>
      <point x="180" y="0" type="line"/>
      <point x="180" y="900" type="line"/>
      <point x="590" y="900" type="line"/>
      <point x="590" y="920" type="line"/>
      <point x="160" y="920" type="line"/>
    </contour>
  </outline>
</glyph>
<glyph name="de-cy" format="2">
  <advance width="1310"/>
  <unicode hex="0434"/>
  <outline>
    <contour>
      <point x="270" y="9" type="curve"/>
      <point x="296" y="9" type="line"/>
      <point x="596" y="306"/>
      <point x="709" y="633"/>
      <point x="709" y="932" type="curve"/>
      <point x="688" y="922" type="line"/>
      <point x="963" y="922" type="line"/>
      <point x="951" y="932" type="line"/>
      <point x="951" y="9" type="line"/>
      <point x="970" y="9" type="line"/>
      <point x="970" y="940" type="line"/>
      <point x="689" y="940" type="line"/>
      <point x="689" y="633"/>
      <point x="576" y="314"/>
    </contour>
    <contour>
      <point x="130" y="-180" type="line"/>
      <point x="150" y="-180" type="line"/>
      <point x="150" y="15" type="line"/>
      <point x="135" y="0" type="line"/>
      <point x="1165" y="0" type="line"/>
      <point x="1150" y="15" type="line"/>
      <point x="1150" y="-180" type="line"/>
      <point x="1170" y="-180" type="line"/>
      <point x="1170" y="20" type="line"/>
      <point x="130" y="20" type="line"/>
    </contour>
  </outline>
</glyph>
<glyph name="zhe-cy" format="2">
  <advance width="908"/>
  <unicode hex="0436"/>
  <anchor x="888" y="0" name="bottomright"/>
  <anchor x="454" y="920" name="top"/>
  <outline>
    <contour>
      <point x="20" y="0" type="line"/>
      <point x="46" y="0" type="line"/>
      <point x="444" y="535" type="line"/>
      <point x="444" y="0" type="line"/>
      <point x="464" y="0" type="line"/>
      <point x="464" y="535" type="line"/>
      <point x="862" y="0" type="line"/>
      <point x="888" y="0" type="line"/>
      <point x="486" y="538" type="line"/>
      <point x="848" y="920" type="line"/>
      <point x="822" y="920" type="line"/>
      <point x="464" y="544" type="line"/>
      <point x="464" y="920" type="line"/>
      <point x="444" y="920" type="line"/>
      <point x="444" y="544" type="line"/>
      <point x="86" y="920" type="line"/>
      <point x="60" y="920" type="line"/>
      <point x="422" y="538" type="line"/>
    </contour>
  </outline>
</glyph>
<glyph name="ze-cy" format="2">
  <advance width="952"/>
  <unicode hex="0437"/>
  <anchor x="476" y="0" name="bottom"/>
  <anchor x="502" y="940" name="top"/>
  <outline>
    <contour>
      <point x="496" y="-20" type="curve" smooth="yes"/>
      <point x="701" y="-20"/>
      <point x="862" y="106"/>
      <point x="862" y="266" type="curve" smooth="yes"/>
      <point x="862" y="397"/>
      <point x="755" y="475"/>
      <point x="554" y="490" type="curve"/>
      <point x="739" y="500"/>
      <point x="822" y="556"/>
      <point x="822" y="669" type="curve" smooth="yes"/>
      <point x="822" y="818"/>
      <point x="677" y="940"/>
      <point x="502" y="940" type="curve" smooth="yes"/>
      <point x="323" y="940"/>
      <point x="180" y="812"/>
      <point x="180" y="652" type="curve"/>
      <point x="200" y="652" type="line"/>
      <point x="200" y="800"/>
      <point x="335" y="920"/>
      <point x="501" y="920" type="curve" smooth="yes"/>
      <point x="659" y="920"/>
      <point x="802" y="801"/>
      <point x="802" y="669" type="curve" smooth="yes"/>
      <point x="802" y="557"/>
      <point x="696" y="500"/>
      <point x="486" y="500" type="curve"/>
      <point x="486" y="480" type="line"/>
      <point x="706" y="480"/>
      <point x="842" y="399"/>
      <point x="842" y="266" type="curve" smooth="yes"/>
      <point x="842" y="122"/>
      <point x="682" y="0"/>
      <point x="492" y="0" type="curve" smooth="yes"/>
      <point x="306" y="0"/>
      <point x="163" y="117"/>
      <point x="140" y="290" type="curve"/>
      <point x="120" y="290" type="line"/>
      <point x="141" y="105"/>
      <point x="293" y="-20"/>
    </contour>
  </outline>
</glyph>
<glyph name="ka-cy" format="2">
  <advance width="880"/>
  <unicode hex="043A"/>
  <anchor x="860" y="0" name="bottomright"/>
  <anchor x="440" y="920" name="top"/>
  <outline>
    <contour>
      <point x="696" y="0" type="line"/>
      <point x="724" y="0" type="line"/>
      <point x="204" y="540" type="line"/>
      <point x="688" y="920" type="line"/>
      <point x="656" y="920" type="line"/>
      <point x="176" y="540" type="line"/>
    </contour>
    <contour>
      <point x="160" y="0" type="line"/>
      <point x="180" y="0" type="line"/>
      <point x="180" y="920" type="line"/>
      <point x="160" y="920" type="line"/>
    </contour>
  </outline>
</glyph>
<glyph name="el-cy" format="2">
  <advance width="976"/>
  <unicode hex="043B"/>
  <outline>
    <contour>
      <point x="20" y="0" type="line"/>
      <point x="121" y="0"/>
      <point x="186" y="126"/>
      <point x="186" y="320" type="curve" smooth="yes"/>
      <point x="186" y="900" type="line"/>
      <point x="796" y="900" type="line"/>
      <point x="796" y="0" type="line"/>
      <point x="816" y="0" type="line"/>
      <point x="816" y="920" type="line"/>
      <point x="166" y="920" type="line"/>
      <point x="166" y="320" type="line" smooth="yes"/>
      <point x="166" y="142"/>
      <point x="107" y="20"/>
      <point x="20" y="20" type="curve"/>
    </contour>
  </outline>
</glyph>
<glyph name="em-cy" format="2">
  <advance width="1214"/>
  <unicode hex="043C"/>
  <outline>
    <contour>
      <point x="604" y="-62" type="line"/>
      <point x="960" y="908" type="line"/>
      <point x="1180" y="0" type="line"/>
      <point x="1204" y="0" type="line"/>
      <point x="964" y="990" type="line"/>
      <point x="604" y="18" type="line"/>
      <point x="250" y="990" type="line"/>
      <point x="10" y="0" type="line"/>
      <point x="38" y="0" type="line"/>
      <point x="254" y="908" type="line"/>
    </contour>
  </outline>
</glyph>
<glyph name="en-cy" format="2">
  <advance width="990"/>
  <unicode hex="043D"/>
  <anchor x="970" y="0" name="bottomright"/>
  <outline>
    <contour>
      <point x="150" y="0" type="line"/>
      <point x="170" y="0" type="line"/>
      <point x="170" y="480" type="line"/>
      <point x="820" y="480" type="line"/>
      <point x="820" y="0" type="line"/>
      <point x="840" y="0" type="line"/>
      <point x="840" y="920" type="line"/>
      <point x="820" y="920" type="line"/>
      <point x="820" y="500" type="line"/>
      <point x="170" y="500" type="line"/>
      <point x="170" y="920" type="line"/>
      <point x="150" y="920" type="line"/>
    </contour>
  </outline>
</glyph>
<glyph name="pe-cy" format="2">
  <advance width="910"/>
  <unicode hex="043F"/>
  <anchor x="890" y="0" name="bottomright"/>
  <outline>
    <contour>
      <point x="150" y="0" type="line"/>
      <point x="170" y="0" type="line"/>
      <point x="170" y="900" type="line"/>
      <point x="740" y="900" type="line"/>
      <point x="740" y="0" type="line"/>
      <point x="760" y="0" type="line"/>
      <point x="760" y="920" type="line"/>
      <point x="150" y="920" type="line"/>
    </contour>
  </outline>
</glyph>
<glyph name="es-cy" format="2">
  <advance width="956"/>
  <unicode hex="0441"/>
  <anchor x="936" y="0" name="bottomright"/>
  <outline>
    <contour>
      <point x="544" y="-20" type="curve" smooth="yes"/>
      <point x="692" y="-20"/>
      <point x="812" y="46"/>
      <point x="856" y="96" type="curve"/>
      <point x="856" y="122" type="line"/>
      <point x="814" y="75"/>
      <point x="698" y="0"/>
      <point x="544" y="0" type="curve" smooth="yes"/>
      <point x="297" y="0"/>
      <point x="100" y="192"/>
      <point x="100" y="460" type="curve" smooth="yes"/>
      <point x="100" y="733"/>
      <point x="302" y="920"/>
      <point x="543" y="920" type="curve" smooth="yes"/>
      <point x="695" y="920"/>
      <point x="814" y="846"/>
      <point x="856" y="798" type="curve"/>
      <point x="856" y="824" type="line"/>
      <point x="812" y="872"/>
      <point x="693" y="940"/>
      <point x="542" y="940" type="curve" smooth="yes"/>
      <point x="283" y="940"/>
      <point x="80" y="738"/>
      <point x="80" y="460" type="curve" smooth="yes"/>
      <point x="80" y="179"/>
      <point x="286" y="-20"/>
    </contour>
  </outline>
</glyph>
<glyph name="u-cy" format="2">
  <advance width="880"/>
  <unicode hex="0443"/>
  <anchor x="440" y="920" name="top"/>
  <outline>
    <contour>
      <point x="208" y="-440" type="line"/>
      <point x="230" y="-440" type="line"/>
      <point x="830" y="920" type="line"/>
      <point x="808" y="920" type="line"/>
      <point x="420" y="40" type="line"/>
      <point x="442" y="40" type="line"/>
      <point x="44" y="920" type="line"/>
      <point x="20" y="920" type="line"/>
      <point x="420" y="40" type="line"/>
    </contour>
  </outline>
</glyph>
<glyph name="ef-cy" format="2">
  <advance width="1172"/>
  <unicode hex="0444"/>
  <outline>
    <contour>
      <point x="576" y="-200" type="line"/>
      <point x="596" y="-200" type="line"/>
      <point x="596" y="-20" type="line"/>
      <point x="895" y="-16"/>
      <point x="1102" y="180"/>
      <point x="1102" y="460" type="curve" smooth="yes"/>
      <point x="1102" y="740"/>
      <point x="895" y="936"/>
      <point x="596" y="940" type="curve"/>
      <point x="596" y="1120" type="line"/>
      <point x="576" y="1120" type="line"/>
      <point x="576" y="940" type="line"/>
      <point x="277" y="936"/>
      <point x="70" y="740"/>
      <point x="70" y="460" type="curve" smooth="yes"/>
      <point x="70" y="180"/>
      <point x="277" y="-16"/>
      <point x="576" y="-20" type="curve"/>
    </contour>
    <contour>
      <point x="576" y="0" type="line"/>
      <point x="291" y="4"/>
      <point x="90" y="194"/>
      <point x="90" y="460" type="curve" smooth="yes"/>
      <point x="90" y="726"/>
      <point x="291" y="916"/>
      <point x="576" y="920" type="curve"/>
    </contour>
    <contour>
      <point x="596" y="0" type="curve"/>
      <point x="596" y="920" type="line"/>
      <point x="881" y="916"/>
      <point x="1082" y="726"/>
      <point x="1082" y="460" type="curve" smooth="yes"/>
      <point x="1082" y="194"/>
      <point x="881" y="4"/>
    </contour>
  </outline>
</glyph>
<glyph name="ha-cy" format="2">
  <advance width="840"/>
  <unicode hex="0445"/>
  <anchor x="820" y="0" name="bottomright"/>
  <outline>
    <contour>
      <point x="20" y="0" type="line"/>
      <point x="50" y="0" type="line"/>
      <point x="380" y="458" type="line"/>
      <point x="710" y="0" type="line"/>
      <point x="740" y="0" type="line"/>
      <point x="394" y="474" type="line"/>
      <point x="718" y="920" type="line"/>
      <point x="690" y="920" type="line"/>
      <point x="380" y="490" type="line"/>
      <point x="70" y="920" type="line"/>
      <point x="40" y="920" type="line"/>
      <point x="366" y="474" type="line"/>
    </contour>
  </outline>
</glyph>
<glyph name="tse-cy" format="2">
  <advance width="990"/>
  <unicode hex="0446"/>
  <outline>
    <contour>
      <point x="900" y="-180" type="line"/>
      <point x="920" y="-180" type="line"/>
      <point x="920" y="20" type="line"/>
      <point x="760" y="20" type="line"/>
      <point x="760" y="920" type="line"/>
      <point x="740" y="920" type="line"/>
      <point x="740" y="20" type="line"/>
      <point x="170" y="20" type="line"/>
      <point x="170" y="920" type="line"/>
      <point x="150" y="920" type="line"/>
      <point x="150" y="0" type="line"/>
      <point x="900" y="0" type="line"/>
    </contour>
  </outline>
</glyph>
<glyph name="che-cy" format="2">
  <advance width="830"/>
  <unicode hex="0447"/>
  <anchor x="810" y="0" name="bottomright"/>
  <anchor x="415" y="920" name="top"/>
  <outline>
    <contour>
      <point x="660" y="0" type="line"/>
      <point x="680" y="0" type="line"/>
      <point x="680" y="920" type="line"/>
      <point x="660" y="920" type="line"/>
      <point x="660" y="300" type="line"/>
      <point x="460" y="300" type="line" smooth="yes"/>
      <point x="205" y="300"/>
      <point x="120" y="389"/>
      <point x="120" y="656" type="curve" smooth="yes"/>
      <point x="120" y="920" type="line"/>
      <point x="100" y="920" type="line"/>
      <point x="100" y="656" type="line" smooth="yes"/>
      <point x="100" y="376"/>
      <point x="192" y="280"/>
      <point x="460" y="280" type="curve" smooth="yes"/>
      <point x="660" y="280" type="line"/>
    </contour>
  </outline>
</glyph>
<glyph name="sha-cy" format="2">
  <advance width="1420"/>
  <unicode hex="0448"/>
  <outline>
    <contour>
      <point x="150" y="0" type="line"/>
      <point x="1270" y="0" type="line"/>
      <point x="1270" y="920" type="line"/>
      <point x="1250" y="920" type="line"/>
      <point x="1250" y="20" type="line"/>
      <point x="720" y="20" type="line"/>
      <point x="720" y="920" type="line"/>
      <point x="700" y="920" type="line"/>
      <point x="700" y="20" type="line"/>
      <point x="170" y="20" type="line"/>
      <point x="170" y="920" type="line"/>
      <point x="150" y="920" type="line"/>
    </contour>
  </outline>
</glyph>
<glyph name="shcha-cy" format="2">
  <advance width="1500"/>
  <unicode hex="0449"/>
  <outline>
    <contour>
      <point x="1410" y="-180" type="line"/>
      <point x="1430" y="-180" type="line"/>
      <point x="1430" y="20" type="line"/>
      <point x="1270" y="20" type="line"/>
      <point x="1270" y="920" type="line"/>
      <point x="1250" y="920" type="line"/>
      <point x="1250" y="20" type="line"/>
      <point x="720" y="20" type="line"/>
      <point x="720" y="920" type="line"/>
      <point x="700" y="920" type="line"/>
      <point x="700" y="20" type="line"/>
      <point x="170" y="20" type="line"/>
      <point x="170" y="920" type="line"/>
      <point x="150" y="920" type="line"/>
      <point x="150" y="0" type="line"/>
      <point x="1410" y="0" type="line"/>
    </contour>
  </outline>
</glyph>
<glyph name="hardsign-cy" format="2">
  <advance width="1026"/>
  <unicode hex="044A"/>
  <outline>
    <contour>
      <point x="340" y="0" type="line"/>
      <point x="590" y="0" type="line" smooth="yes"/>
      <point x="780" y="0"/>
      <point x="926" y="88"/>
      <point x="926" y="286" type="curve" smooth="yes"/>
      <point x="926" y="484"/>
      <point x="780" y="572"/>
      <point x="590" y="572" type="curve" smooth="yes"/>
      <point x="360" y="572" type="line"/>
      <point x="360" y="920" type="line"/>
      <point x="10" y="920" type="line"/>
      <point x="10" y="900" type="line"/>
      <point x="340" y="900" type="line"/>
    </contour>
    <contour>
      <point x="360" y="20" type="line"/>
      <point x="360" y="552" type="line"/>
      <point x="590" y="552" type="line" smooth="yes"/>
      <point x="766" y="552"/>
      <point x="906" y="469"/>
      <point x="906" y="282" type="curve" smooth="yes"/>
      <point x="906" y="96"/>
      <point x="767" y="20"/>
      <point x="590" y="20" type="curve" smooth="yes"/>
    </contour>
  </outline>
</glyph>
